{"glyphs":{"0":{"ha":688,"x_min":0,"x_max":0,"o":""},"1":{"ha":688,"x_min":0,"x_max":0,"o":""},"2":{"ha":688,"x_min":0,"x_max":0,"o":""},"3":{"ha":688,"x_min":0,"x_max":0,"o":""},"4":{"ha":688,"x_min":0,"x_max":0,"o":""},"5":{"ha":688,"x_min":0,"x_max":0,"o":""},"6":{"ha":688,"x_min":0,"x_max":0,"o":""},"7":{"ha":688,"x_min":0,"x_max":0,"o":""},"8":{"ha":688,"x_min":0,"x_max":0,"o":""},"9":{"ha":688,"x_min":0,"x_max":0,"o":""}," ":{"ha":345,"x_min":0,"x_max":0,"o":""},"!":{"ha":456,"x_min":0,"x_max":0,"o":""},"\"":{"ha":456,"x_min":0,"x_max":0,"o":""},"#":{"ha":906,"x_min":0,"x_max":0,"o":""},"$":{"ha":688,"x_min":0,"x_max":0,"o":""},"%":{"ha":1092,"x_min":0,"x_max":0,"o":""},"&":{"ha":1141,"x_min":0,"x_max":0,"o":""},"'":{"ha":235,"x_min":0,"x_max":0,"o":""},"(":{"ha":514,"x_min":0,"x_max":0,"o":""},")":{"ha":514,"x_min":0,"x_max":0,"o":""},"*":{"ha":694,"x_min":0,"x_max":0,"o":""},"+":{"ha":688,"x_min":0,"x_max":0,"o":""},",":{"ha":378,"x_min":0,"x_max":0,"o":""},"-":{"ha":454,"x_min":0,"x_max":0,"o":""},".":{"ha":378,"x_min":0,"x_max":0,"o":""},"/":{"ha":386,"x_min":0,"x_max":0,"o":""},":":{"ha":378,"x_min":0,"x_max":0,"o":""},";":{"ha":378,"x_min":0,"x_max":0,"o":""},"<":{"ha":688,"x_min":0,"x_max":0,"o":""},"=":{"ha":688,"x_min":0,"x_max":0,"o":""},">":{"ha":688,"x_min":0,"x_max":0,"o":""},"?":{"ha":507,"x_min":0,"x_max":0,"o":""},"@":{"ha":1369,"x_min":0,"x_max":0,"o":""},"A":{"ha":1725,"x_min":0,"x_max":1685,"o":"m 1150 1725 q 1473 1530 1336 1725 q 1506 1389 1506 1458 q 1299 1101 1506 1198 l 1299 1099 q 1541 873 1443 1042 q 1603 662 1603 766 l 1603 659 q 1674 605 1634 659 q 1685 570 1685 584 l 1685 513 q 1560 285 1685 428 q 1359 136 1434 163 q 1267 81 1267 96 q 1118 0 1178 0 l 1080 0 q 952 90 1021 0 l 949 90 q 689 209 785 90 q 656 282 672 237 q 532 613 532 424 l 532 632 l 534 651 q 320 575 427 575 q 52 741 161 575 q 0 922 0 827 l 0 928 q 203 1275 0 1183 l 271 1286 q 543 1096 428 1286 q 597 868 597 985 q 901 1120 720 1059 q 1023 1142 973 1142 l 1025 1142 q 857 1421 857 1274 l 857 1430 q 1009 1687 857 1580 q 1150 1725 1072 1725 m 822 822 q 971 486 822 601 q 990 472 989 479 q 911 480 951 480 q 705 393 781 480 q 678 320 678 355 l 678 315 q 841 133 678 201 q 936 111 897 111 q 922 138 922 129 l 922 141 l 925 141 q 1009 60 932 140 q 1088 24 1047 24 l 1107 24 q 1280 122 1181 24 q 1283 119 1283 122 q 1495 252 1377 153 q 1638 431 1608 362 q 1671 540 1669 498 q 1579 640 1671 623 q 1544 643 1545 643 q 1497 640 1512 640 q 1511 703 1511 673 l 1511 735 q 1402 1006 1511 869 q 1321 1050 1350 1050 l 1318 1050 q 1234 936 1263 1050 q 1229 892 1229 924 l 1229 887 q 1126 1023 1178 972 q 971 1099 1055 1099 q 833 922 869 1099 q 822 822 825 884 m 1120 854 q 1240 583 1210 854 l 1240 559 q 1234 499 1240 540 l 1237 499 q 1367 556 1314 556 l 1367 559 l 1362 559 l 1362 562 q 1419 627 1405 594 l 1424 627 l 1424 624 q 1373 562 1424 581 l 1373 559 q 1427 545 1427 557 l 1405 545 q 1185 423 1293 545 l 1185 434 q 1194 456 1185 442 q 1147 502 1177 456 q 1118 545 1147 506 q 1063 751 1063 650 q 1112 854 1063 840 l 1120 854 m 1082 746 q 1131 548 1082 650 l 1134 548 q 1158 602 1134 602 l 1161 602 q 1218 510 1194 602 l 1221 510 q 1223 556 1221 539 q 1156 817 1223 692 q 1120 838 1134 838 q 1082 773 1089 838 l 1082 746 m 1373 743 q 1397 719 1397 740 q 1375 732 1396 719 q 1313 635 1346 732 l 1310 635 l 1310 643 q 1373 743 1320 743 m 1389 667 l 1405 667 q 1424 648 1418 661 l 1424 646 l 1400 651 q 1316 564 1358 651 l 1310 564 q 1375 665 1310 610 l 1389 667 m 1576 532 l 1590 532 q 1625 513 1613 532 l 1625 510 q 1595 518 1621 510 q 1600 469 1600 477 q 1427 214 1600 331 q 1280 149 1364 174 q 1101 49 1184 49 q 971 165 1009 49 q 911 301 935 257 q 863 255 905 301 l 860 255 l 860 258 q 939 339 860 298 q 979 347 963 347 l 998 347 l 1012 345 q 963 331 1012 339 q 928 315 960 326 q 1204 163 1015 163 l 1213 163 q 1454 255 1339 163 q 1581 469 1581 359 q 1573 518 1581 492 l 1554 515 l 1546 515 l 1546 518 q 1576 532 1556 532 m 1440 505 q 1522 437 1522 494 l 1522 431 q 1386 282 1522 348 q 1308 263 1341 263 q 1223 336 1223 272 l 1223 342 q 1343 480 1223 414 q 1440 505 1390 505 m 982 195 l 982 193 q 1061 73 1021 87 q 1096 68 1085 68 l 1104 68 q 1204 106 1159 68 q 1126 146 1180 146 l 1120 146 q 1101 141 1101 146 q 1112 106 1112 121 l 1107 103 q 982 195 1046 195 z "},"B":{"ha":2013,"x_min":0,"x_max":1950,"o":"m 863 1633 q 1153 1492 1031 1633 q 1221 1291 1221 1403 l 1221 1280 q 1158 1096 1221 1183 l 1164 1096 q 1519 928 1342 1096 q 1660 610 1660 763 l 1660 570 l 1657 537 l 1679 537 q 1701 613 1684 537 q 1826 719 1742 719 q 1940 651 1901 719 q 1950 605 1950 624 l 1950 553 q 1850 374 1950 463 q 1809 244 1839 300 q 1579 41 1735 104 q 1435 16 1497 16 l 1397 16 q 1316 24 1348 16 q 1251 0 1289 0 l 1202 0 q 1093 38 1162 0 q 914 73 994 49 q 751 182 781 128 q 648 407 686 248 l 646 407 q 401 255 537 255 l 374 255 q 68 448 211 255 q 0 667 0 561 q 155 936 0 846 q 301 968 225 968 q 556 830 423 968 q 635 703 617 753 l 637 703 q 722 882 647 759 q 860 1015 810 996 l 860 1017 q 632 1134 747 1017 q 564 1299 564 1225 q 562 1332 562 1299 l 562 1348 q 713 1598 562 1508 q 863 1633 781 1633 m 1072 800 q 1161 472 1072 654 l 1185 434 l 1183 434 q 914 540 1030 540 q 730 410 784 540 q 716 336 716 372 q 987 68 716 157 q 1082 52 1065 52 q 1055 92 1055 78 l 1055 95 q 1229 11 1137 11 q 1294 24 1262 11 l 1294 27 q 1082 119 1155 52 q 987 315 987 214 l 987 320 l 990 347 q 887 323 967 347 l 887 326 q 1023 369 924 369 q 1126 336 1095 369 l 1123 336 q 1004 347 1055 347 l 1004 317 q 1185 76 1004 167 q 1427 33 1290 33 q 1758 193 1616 33 q 1823 350 1823 290 l 1823 361 q 1774 347 1805 351 q 1674 431 1699 347 l 1674 472 q 1679 515 1674 485 l 1676 515 q 1522 456 1628 514 l 1522 458 q 1544 483 1534 483 q 1535 654 1539 531 q 1560 708 1548 708 l 1568 708 q 1622 564 1614 708 q 1619 526 1619 541 l 1622 526 q 1638 551 1638 526 q 1641 589 1641 574 q 1549 860 1641 726 q 1503 909 1508 909 q 1484 833 1490 835 q 1291 1050 1414 996 q 1248 1055 1261 1055 q 1085 898 1135 1055 q 1072 800 1074 857 m 1400 787 q 1503 602 1474 787 q 1506 559 1503 580 q 1462 439 1506 465 l 1443 439 q 1362 613 1384 439 q 1356 705 1356 692 q 1400 787 1364 787 m 1421 760 q 1432 705 1432 732 l 1432 703 q 1400 643 1432 643 l 1397 643 q 1378 651 1388 643 l 1378 646 q 1451 453 1395 453 q 1487 556 1482 453 l 1487 559 q 1427 760 1487 689 l 1421 760 m 1587 670 q 1554 616 1587 616 l 1554 583 q 1557 496 1554 555 q 1603 529 1603 516 q 1606 578 1606 555 l 1606 581 q 1590 670 1606 624 l 1587 670 z "},"C":{"ha":1718,"x_min":0,"x_max":1704,"o":"m 697 1649 q 990 1478 898 1649 q 1012 1378 1012 1423 l 1012 1367 q 841 1099 1012 1208 l 841 1096 q 1101 987 1006 1065 q 1139 947 1139 954 l 1142 947 l 1142 955 q 1139 963 1142 963 l 1142 977 l 1142 985 q 1275 1245 1142 1136 q 1435 1297 1349 1297 q 1652 1175 1572 1297 q 1704 1015 1704 1090 l 1704 936 q 1595 719 1704 831 q 1411 651 1506 651 l 1405 651 q 1272 692 1337 651 l 1270 692 q 1280 594 1280 645 l 1280 570 q 1139 198 1280 370 q 1077 136 1077 140 q 1017 33 1060 62 q 920 0 966 0 l 863 0 q 754 22 809 0 q 689 5 720 5 l 665 5 q 613 16 637 5 q 526 0 566 0 l 448 0 q 225 87 340 0 q 160 179 174 141 q 38 260 115 179 q 0 363 0 317 l 0 366 q 111 491 0 452 l 127 491 q 255 393 192 491 l 258 393 q 274 407 274 404 q 231 578 231 488 l 231 608 q 415 977 231 815 q 608 1069 536 1057 l 608 1072 q 439 1150 491 1095 q 366 1318 366 1224 l 366 1340 q 505 1592 366 1485 q 697 1649 589 1649 m 336 760 l 334 760 q 298 798 334 777 q 250 594 250 701 q 290 412 250 498 q 309 423 309 419 q 266 548 266 475 l 266 556 q 293 621 266 603 l 309 621 q 372 510 330 621 q 407 426 402 429 q 461 401 433 426 l 461 399 q 377 412 426 412 q 269 374 311 412 q 312 274 312 328 q 201 168 312 183 l 193 168 q 334 52 227 94 q 496 22 411 22 q 909 269 743 22 q 982 502 982 395 q 901 461 965 502 l 901 464 q 998 521 939 521 l 1017 521 q 1061 499 1040 521 l 1061 496 q 1009 505 1026 505 l 998 505 l 987 393 q 1020 220 987 384 q 1023 190 1023 220 l 1023 176 q 920 46 1023 79 q 873 41 898 41 l 857 41 q 741 71 808 41 q 648 30 661 30 l 648 27 l 662 24 l 708 24 q 743 30 719 24 l 743 33 l 741 38 l 743 38 q 873 16 833 16 l 884 16 q 1050 122 1002 16 q 1080 290 1061 165 q 1090 304 1086 304 l 1090 301 q 1080 165 1085 194 q 1204 339 1173 258 q 1251 483 1251 444 q 1161 643 1251 572 q 1066 670 1112 670 l 1036 670 q 770 518 884 670 l 770 513 l 765 513 l 768 526 q 613 974 768 835 q 532 1001 571 1001 l 529 1001 q 374 882 453 1001 q 336 760 347 833 m 434 773 q 532 564 486 773 q 540 483 540 505 q 515 426 540 441 l 496 426 q 385 597 425 426 q 380 659 380 626 l 380 670 q 434 773 387 773 m 399 673 l 399 640 q 488 439 399 508 l 491 439 l 491 442 q 467 513 476 442 q 488 567 467 548 l 491 567 q 515 556 501 567 q 429 757 475 757 q 399 673 404 757 m 296 608 q 279 559 279 591 q 326 423 279 487 l 345 426 l 353 426 l 353 429 q 342 472 342 448 l 342 486 q 361 496 342 494 q 296 608 321 608 m 982 290 q 928 157 928 249 l 930 138 q 911 182 918 138 q 865 155 895 181 q 836 92 836 119 l 836 68 q 876 57 836 57 q 1001 141 965 57 q 1006 182 1006 167 l 1006 190 q 985 290 1006 233 l 982 290 z "},"D":{"ha":1663,"x_min":0,"x_max":1625,"o":"m 304 1587 l 320 1587 q 553 1432 466 1587 q 583 1286 583 1362 q 551 1126 583 1211 l 553 1126 q 738 1221 651 1221 q 841 1147 803 1221 q 887 1137 870 1142 q 958 1169 915 1169 l 960 1169 q 1050 1128 1000 1169 l 1050 1131 q 1047 1169 1050 1135 q 1240 1454 1047 1360 q 1340 1476 1297 1476 l 1370 1476 q 1609 1297 1525 1476 q 1625 1218 1625 1242 l 1625 1145 q 1544 958 1625 1063 q 1335 857 1446 857 q 1248 873 1295 857 q 1310 613 1310 745 l 1310 597 q 1264 391 1310 498 q 1025 117 1264 251 q 890 76 972 90 q 749 0 801 5 l 689 0 q 540 103 630 0 q 467 136 537 111 q 225 453 225 279 q 236 521 225 465 q 225 610 225 566 l 225 621 q 350 958 225 819 l 347 958 q 258 944 298 944 l 247 944 q 11 1128 70 944 q 0 1207 3 1164 q 84 1462 0 1331 q 304 1587 180 1587 m 445 711 q 467 608 445 663 l 423 608 q 255 502 301 608 q 247 450 247 463 q 453 168 247 302 q 526 130 486 147 l 526 133 q 513 165 513 158 l 513 168 l 515 168 q 719 16 612 16 q 928 136 809 16 l 930 136 l 930 133 q 906 95 925 122 l 909 95 q 1115 193 975 102 q 1245 388 1245 298 q 1131 526 1245 469 l 1131 529 q 1169 722 1169 635 q 1055 1050 1169 889 q 960 1104 1008 1104 l 958 1104 q 849 1034 906 1104 q 738 1156 795 1156 l 735 1156 q 537 996 652 1156 q 445 711 445 848 m 852 1118 l 852 1112 l 854 1112 l 854 1118 l 852 1118 m 865 1115 l 857 1101 l 860 1101 l 868 1115 l 865 1115 m 1082 1088 q 1123 1023 1120 1023 q 1082 1088 1104 1065 m 760 985 l 762 985 q 827 882 817 985 q 830 844 830 873 l 830 841 q 787 621 830 739 l 846 621 l 844 648 l 844 659 q 922 939 848 890 l 939 939 q 996 838 979 939 q 998 800 996 823 q 933 594 998 682 l 933 591 q 974 556 958 583 l 971 556 q 795 605 892 605 q 662 581 736 605 q 708 608 671 597 l 708 613 q 667 760 667 667 q 732 974 667 892 q 760 985 751 985 m 686 749 q 727 616 686 661 l 732 616 q 738 621 738 616 q 732 654 732 640 l 732 673 q 768 741 732 725 l 779 741 q 798 711 798 727 q 814 825 811 718 l 814 846 q 765 966 807 966 l 762 966 q 686 776 712 966 l 686 749 m 860 694 l 863 694 q 890 719 863 713 l 898 719 q 917 675 913 719 q 901 608 917 657 q 922 602 911 602 q 979 800 979 680 l 979 803 q 936 925 979 907 l 933 925 q 860 700 882 911 l 860 694 m 795 583 l 798 583 q 960 502 923 583 l 963 486 l 963 477 q 876 382 963 409 q 822 374 857 374 l 800 374 q 651 453 691 374 q 646 480 646 476 q 722 572 646 545 q 795 583 758 583 m 472 502 l 491 502 q 518 496 496 502 l 518 491 q 450 480 488 488 q 526 350 454 427 q 789 252 642 252 l 803 252 q 1093 401 989 252 l 1093 404 q 1047 426 1057 426 q 1053 431 1048 431 l 1066 431 q 1150 355 1150 410 l 1150 342 l 1147 323 l 1145 323 q 1109 393 1145 357 l 1104 396 q 1004 288 1085 350 q 939 217 968 267 q 724 60 819 60 l 713 60 q 521 296 576 60 q 491 358 505 351 q 437 472 458 390 q 369 423 419 472 l 363 423 q 472 502 399 502 m 559 233 q 719 79 609 79 q 822 119 764 79 l 822 122 q 716 182 791 182 q 708 179 711 179 q 722 136 722 152 q 572 241 635 241 q 559 233 559 238 z "},"E":{"ha":2175,"x_min":0,"x_max":2129,"o":"m 1012 1698 l 1116 1698 q 1919 1361 1569 1698 q 2129 890 2129 1124 l 2129 808 q 1925 343 2129 578 q 1337 23 1746 130 q 1116 0 1210 0 l 1012 0 q 210 337 560 0 q 0 808 0 574 l 0 890 q 203 1355 0 1120 q 791 1675 383 1569 q 1012 1698 919 1698 m 203 843 q 564 267 203 503 q 1041 134 797 134 l 1088 134 q 1803 477 1509 134 q 1925 855 1925 667 q 1565 1431 1925 1196 q 1088 1565 1331 1565 l 1041 1565 q 326 1221 620 1565 q 203 843 203 1031 m 983 1343 l 1041 1343 q 1204 1239 1162 1343 q 1419 1343 1312 1343 l 1477 1343 q 1664 1122 1664 1343 l 1664 727 q 1518 610 1664 610 l 1361 610 l 1355 640 l 1355 1047 q 1291 1116 1352 1116 q 1221 1053 1221 1101 l 1221 623 q 1210 610 1221 610 l 930 610 q 919 623 919 610 l 919 1041 q 849 1116 919 1116 q 785 1070 807 1105 l 785 623 q 774 610 785 610 l 483 610 l 477 640 l 477 1140 q 587 1314 477 1314 q 628 1320 587 1320 l 768 1320 q 779 1308 779 1318 l 779 1251 q 983 1343 878 1343 m 488 570 l 494 570 l 593 494 q 686 570 640 541 l 692 570 l 704 366 l 634 366 l 628 436 q 576 407 598 407 q 547 436 576 415 l 547 366 l 483 366 l 483 483 q 488 570 483 512 m 930 570 l 954 570 q 1035 500 1035 562 q 971 483 996 483 q 954 500 971 491 l 930 500 q 907 459 907 491 q 948 431 916 431 q 971 454 971 436 q 1041 436 1028 436 q 948 361 1041 378 l 937 361 q 838 454 838 372 l 838 477 q 930 570 849 570 m 732 564 l 808 564 l 808 366 l 732 366 l 732 564 m 1064 564 l 1134 564 l 1134 506 l 1140 506 q 1181 564 1140 519 l 1256 564 l 1256 558 l 1198 483 l 1198 477 l 1262 378 l 1262 366 l 1175 366 q 1145 418 1159 418 l 1134 401 l 1134 366 l 1064 366 l 1064 564 m 1280 564 l 1436 564 l 1436 517 l 1349 517 l 1349 494 l 1431 494 l 1431 436 l 1349 436 l 1349 418 l 1436 418 l 1436 366 l 1280 366 l 1280 564 m 1442 564 l 1524 564 q 1553 506 1534 564 l 1565 506 l 1581 564 l 1664 564 q 1594 413 1594 431 l 1594 366 l 1524 366 l 1524 407 q 1442 564 1524 422 z "},"F":{"ha":1702,"x_min":0,"x_max":1652,"o":"m 1316 1568 q 1630 1337 1509 1568 q 1652 1245 1652 1280 l 1652 1191 q 1516 941 1652 1063 q 1343 879 1430 879 q 1283 890 1310 879 q 1389 556 1389 731 q 1291 271 1389 392 q 1253 209 1253 239 q 1150 111 1219 152 q 1090 84 1105 84 l 1093 71 l 1093 60 q 979 3 1093 3 q 871 14 939 3 q 803 0 829 0 l 713 0 q 418 71 579 0 q 315 195 315 128 l 315 206 q 347 288 315 239 q 274 510 274 402 l 274 524 q 271 534 274 530 q 274 545 274 539 l 274 553 q 358 817 274 677 l 355 817 q 260 798 298 798 l 225 798 q 43 911 122 798 q 0 1085 0 988 q 138 1389 0 1250 q 309 1454 224 1454 q 529 1297 458 1454 q 548 1194 548 1240 l 548 1164 q 515 998 548 1088 l 518 998 q 765 1088 583 1057 q 846 1093 825 1093 q 887 1090 880 1090 q 930 1107 913 1107 l 936 1107 q 1004 1082 963 1107 q 1050 1069 1036 1072 q 1004 1245 1004 1154 q 1093 1470 1004 1373 q 1316 1568 1189 1568 m 860 1063 q 827 1015 837 1040 l 830 1015 q 863 1063 836 1028 l 860 1063 m 1015 1063 l 1015 1061 q 1044 1015 1038 1039 l 1047 1015 l 1047 1017 q 1015 1063 1042 1042 m 789 795 q 852 629 852 741 q 857 570 857 629 q 825 399 857 478 l 827 399 q 873 369 861 387 l 871 369 q 703 401 784 401 q 526 366 619 401 q 586 404 526 382 q 529 600 529 477 q 548 716 529 659 q 499 914 499 825 l 499 917 q 391 635 391 793 l 391 627 q 461 339 391 511 q 339 212 339 287 q 570 35 339 111 q 743 11 669 11 l 779 11 q 854 16 808 11 l 854 19 q 836 30 836 24 l 838 30 q 955 19 904 19 l 977 19 q 1072 71 1072 19 q 1053 122 1072 81 q 1082 98 1071 115 q 1251 274 1251 177 l 1251 282 q 1096 382 1251 355 q 1017 388 1059 388 l 1009 388 l 990 385 l 990 388 q 1063 684 1063 526 q 960 1001 1063 871 q 928 1017 935 1017 q 822 887 892 1017 q 789 795 803 844 m 559 694 q 548 610 548 657 l 548 597 q 605 410 548 469 l 608 410 q 651 431 651 410 q 656 494 656 477 l 656 507 q 654 553 656 522 l 640 551 l 637 551 q 583 651 599 551 q 562 694 572 669 l 559 694 m 757 692 q 727 570 737 593 q 770 412 736 412 q 808 404 783 412 q 841 581 841 492 q 838 613 838 595 l 838 627 l 819 624 q 768 675 793 624 q 757 692 762 692 m 654 656 l 651 629 q 656 600 651 626 l 659 600 q 656 656 656 608 l 654 656 m 667 567 q 673 502 673 532 l 673 475 q 665 418 673 443 l 735 418 q 711 537 711 484 l 711 553 l 703 553 q 667 567 686 553 m 673 366 q 838 285 812 358 q 841 271 841 280 l 841 263 q 711 171 841 197 q 675 168 698 168 l 667 168 q 521 220 575 168 q 502 269 502 239 l 502 271 q 613 358 502 331 q 673 366 625 363 m 914 92 l 922 92 q 993 57 993 87 l 993 54 q 955 41 993 43 q 868 73 868 46 q 914 92 879 92 z "},"G":{"ha":1560,"x_min":0,"x_max":1500,"o":"m 1215 1709 l 1234 1709 q 1476 1541 1382 1709 q 1500 1430 1500 1473 l 1500 1373 q 1408 1126 1500 1258 q 1251 1012 1314 1031 q 1240 1004 1240 1008 q 1375 635 1375 857 q 1343 450 1375 541 q 1373 363 1373 399 l 1373 336 q 1194 114 1373 223 q 998 49 1069 49 l 985 52 q 860 0 900 0 l 830 0 q 784 30 810 0 q 716 49 784 45 q 551 114 624 71 q 450 269 450 187 l 450 285 l 453 298 q 374 581 374 398 q 385 711 374 622 l 382 711 q 258 678 313 678 l 231 678 q 46 811 121 678 q 0 1020 0 904 l 0 1031 q 144 1345 0 1232 q 301 1400 218 1400 l 307 1400 q 532 1215 464 1400 q 545 1107 543 1158 q 524 958 545 1041 l 526 958 q 665 1072 608 1044 q 920 1145 781 1137 q 977 1194 953 1194 q 947 1345 947 1274 l 947 1386 q 1077 1657 947 1535 q 1215 1709 1141 1709 m 1009 1194 l 1009 1191 l 1015 1191 l 1015 1194 l 1009 1194 m 1020 1191 l 1020 1188 q 1126 1128 1063 1181 l 1126 1131 q 1023 1191 1076 1178 l 1020 1191 m 906 1120 q 890 1093 897 1110 l 890 1090 l 892 1090 q 909 1120 892 1095 l 906 1120 m 1134 1120 l 1134 1118 l 1142 1112 l 1142 1115 l 1134 1120 m 892 966 q 749 1050 814 1050 q 581 838 644 1050 q 553 629 553 731 q 583 429 553 536 l 583 426 q 472 274 472 351 q 700 73 472 158 q 781 54 734 60 l 781 73 l 784 73 q 846 22 798 22 q 1017 90 900 22 l 1017 87 q 998 62 1010 75 q 1316 260 1240 134 q 1345 353 1345 309 l 1345 363 q 1245 494 1345 443 q 1248 548 1248 530 l 1248 602 q 1126 1023 1248 826 q 1009 1115 1055 1115 q 892 966 957 1115 m 993 901 q 1074 727 1054 901 l 1074 705 q 1039 526 1074 623 q 1109 496 1087 517 l 1104 496 q 1009 513 1053 513 l 998 513 q 762 439 882 513 l 760 439 l 760 442 q 817 486 760 458 q 754 686 754 555 q 830 849 763 849 q 909 637 889 849 q 911 608 909 608 q 895 518 906 531 l 898 518 q 958 526 943 526 l 958 529 q 928 684 928 599 l 928 732 q 990 901 928 876 l 993 901 m 941 694 q 977 529 941 600 l 1025 529 q 1055 705 1055 623 q 996 887 1042 879 q 944 743 964 887 q 941 694 941 728 m 773 662 q 833 496 773 561 l 836 496 q 884 529 884 509 q 895 616 895 571 l 895 621 q 838 827 895 745 q 827 836 827 833 q 773 716 793 836 l 773 662 m 966 713 l 968 713 q 1004 640 1000 713 l 1004 632 q 985 578 1004 588 l 974 578 q 949 648 949 597 l 949 670 q 966 713 949 705 m 860 694 l 868 694 q 890 624 884 694 q 865 562 890 574 l 863 562 q 836 627 836 562 q 860 694 841 694 m 974 486 l 1004 486 q 1107 410 1107 473 l 1107 401 q 971 285 1107 319 q 925 279 949 279 l 892 279 q 784 345 816 279 l 784 372 q 906 475 784 435 q 974 486 943 486 m 933 122 q 949 114 949 119 l 949 106 q 871 60 949 67 q 846 73 846 60 q 930 122 846 109 l 933 122 z "},"H":{"ha":1611,"x_min":0,"x_max":1581,"o":"m 1166 1644 l 1191 1644 q 1525 1446 1361 1644 q 1581 1291 1581 1352 l 1581 1229 q 1473 1031 1581 1131 q 1291 968 1381 968 l 1242 974 q 1394 597 1394 801 q 1392 548 1392 564 q 1405 477 1402 523 q 1218 187 1405 328 q 1145 146 1185 163 q 1023 22 1108 65 q 944 0 980 0 l 903 0 q 675 122 808 0 q 415 236 551 140 q 288 448 288 348 q 312 526 288 488 q 301 616 301 571 l 301 637 q 412 930 301 800 l 374 930 q 46 1112 166 930 q 0 1280 0 1197 q 165 1530 0 1449 q 304 1557 244 1557 q 543 1457 433 1557 q 667 1183 667 1329 q 654 1109 667 1154 q 879 1147 755 1147 q 998 1131 943 1147 l 998 1134 q 903 1370 903 1249 q 1085 1630 903 1558 q 1166 1644 1126 1644 m 711 968 l 705 968 q 637 1072 693 1072 q 483 963 579 1069 q 407 738 407 855 q 445 578 407 661 l 442 578 q 309 456 309 548 q 491 212 309 338 q 662 146 568 168 l 662 149 q 648 163 659 149 l 648 165 q 735 100 663 165 q 920 19 830 19 q 1147 198 1070 19 q 1156 217 1149 217 l 1156 212 q 1147 168 1156 200 l 1150 168 q 1381 477 1381 320 q 1259 637 1381 593 q 1215 643 1227 643 q 1115 613 1176 643 q 1147 773 1147 687 q 996 1088 1147 962 q 879 1126 932 1126 q 711 968 785 1126 m 846 800 q 879 779 879 794 l 876 779 q 841 784 852 784 q 768 724 810 784 l 768 727 q 803 784 768 751 q 846 800 815 795 m 624 773 l 632 773 q 681 727 681 766 l 675 727 q 635 760 656 760 l 627 760 q 591 738 613 760 l 589 738 l 589 741 q 624 773 601 773 m 849 751 l 857 751 q 906 711 906 751 l 903 711 q 849 730 878 730 q 779 686 809 730 l 773 686 l 773 689 q 849 751 801 751 m 629 716 l 651 716 q 694 678 679 716 l 692 678 q 637 700 657 700 q 600 665 614 700 l 594 665 l 594 684 q 629 716 594 707 m 909 689 l 911 689 q 852 654 899 654 l 838 654 l 825 656 l 825 662 l 830 662 q 909 689 879 662 m 673 656 l 673 648 q 613 621 652 621 l 608 621 q 578 635 587 621 l 578 640 q 613 632 591 632 q 673 656 644 632 m 798 648 q 914 624 854 648 l 914 618 q 798 632 857 629 q 586 553 672 632 l 586 559 q 798 648 646 648 m 781 613 l 792 613 q 920 553 886 613 q 928 526 928 540 l 928 505 q 803 407 928 439 q 751 401 781 401 l 732 401 q 600 486 618 401 l 600 505 q 730 608 600 575 q 781 613 751 613 m 1118 532 l 1128 532 q 1248 472 1200 532 l 1251 458 l 1251 456 q 1196 496 1226 479 q 1131 374 1190 453 q 1088 165 1115 202 q 917 57 1026 57 q 632 290 779 57 q 491 366 578 302 l 467 393 q 426 353 461 393 l 426 358 q 507 442 426 410 q 524 445 522 445 l 540 442 l 540 437 q 477 404 488 421 q 811 274 630 274 q 1118 396 994 274 q 1180 502 1164 451 q 1093 521 1128 521 q 1118 532 1097 532 m 933 155 l 928 155 q 939 190 928 157 l 922 190 q 827 146 878 190 q 808 114 808 130 q 914 79 862 79 q 1085 201 1027 79 q 1093 233 1085 206 q 1055 241 1076 241 q 933 155 995 241 z "},"I":{"ha":1422,"x_min":0,"x_max":1381,"o":"m 374 1495 q 388 1476 388 1491 l 388 1473 q 374 1419 388 1453 q 323 1473 323 1444 l 323 1476 q 336 1487 324 1481 q 355 1478 343 1487 q 374 1495 361 1495 m 355 1468 q 339 1481 355 1472 l 328 1473 q 372 1427 328 1455 q 382 1478 382 1465 q 380 1487 380 1484 l 372 1487 q 355 1468 368 1487 m 564 1432 l 589 1432 q 727 1332 669 1432 q 741 1270 741 1297 l 741 1259 q 656 1158 741 1179 l 656 1153 q 741 1080 676 1153 q 776 987 776 1042 l 776 955 q 770 906 770 913 q 876 803 805 906 l 887 792 q 949 909 949 887 q 985 941 949 941 q 1006 944 996 944 q 1044 868 1044 933 q 1050 787 1044 830 q 1044 670 1044 720 q 1088 589 1088 644 q 1053 537 1088 553 l 1044 526 q 1085 524 1044 524 q 1112 559 1085 543 q 1066 689 1112 566 q 1061 727 1061 709 l 1061 732 q 1156 852 1061 819 q 1191 857 1168 857 l 1202 857 q 1367 719 1299 857 q 1381 659 1381 678 l 1381 575 q 1305 396 1381 493 q 1251 372 1269 372 l 1240 372 q 1166 399 1211 372 q 1164 396 1164 399 q 1104 429 1121 396 q 1015 445 1084 429 l 1015 431 q 1009 366 1015 401 q 1039 228 1039 326 q 898 5 1039 50 q 865 0 879 0 l 798 0 q 675 62 739 0 q 651 125 651 94 l 651 130 q 773 282 651 195 q 838 350 773 290 q 909 385 867 377 q 930 399 930 396 l 930 410 l 917 407 l 890 407 q 822 450 862 407 q 781 385 814 443 q 705 339 750 357 q 597 250 650 250 l 572 250 q 537 285 544 250 q 591 342 537 306 q 613 374 613 364 l 610 374 q 524 361 576 363 q 418 423 439 361 l 418 437 q 472 472 418 469 l 475 472 l 475 486 q 336 553 336 502 q 456 635 336 606 q 399 610 456 631 q 345 553 345 578 q 385 515 350 533 q 475 499 438 499 l 480 499 q 648 532 493 525 q 678 556 678 532 q 686 567 681 556 q 524 673 595 644 q 483 716 483 694 l 477 716 q 401 754 422 716 q 372 806 396 781 q 342 898 342 859 l 339 898 q 282 863 317 863 l 258 863 q 165 920 216 863 q 125 1034 125 976 q 201 1172 125 1143 q 214 1175 205 1175 l 225 1175 q 355 1058 308 1175 l 355 1055 l 361 1055 q 374 1123 366 1072 q 404 1137 390 1137 l 418 1134 l 418 1145 q 453 1177 418 1172 q 488 1169 488 1173 q 543 1180 509 1180 q 475 1308 475 1235 l 475 1316 q 564 1432 475 1412 m 274 1394 q 309 1299 309 1382 l 309 1240 l 307 1213 q 195 1310 195 1257 q 217 1332 195 1332 l 225 1332 l 239 1329 l 239 1345 q 274 1394 239 1394 m 247 1348 l 247 1316 q 217 1326 227 1326 q 203 1308 203 1322 q 301 1223 203 1270 l 301 1280 q 269 1386 298 1386 q 247 1348 247 1376 m 836 1256 l 838 1256 q 863 1229 859 1256 l 863 1199 q 860 1145 863 1181 l 854 1145 q 795 1213 795 1181 q 806 1223 795 1217 l 817 1223 l 822 1221 q 836 1256 822 1253 m 827 1213 q 806 1218 817 1218 l 803 1218 l 800 1207 q 854 1153 800 1193 l 854 1215 q 841 1251 854 1246 l 838 1251 q 827 1213 827 1251 m 510 1166 l 510 1164 l 529 1164 l 529 1166 l 510 1166 m 448 1145 q 442 1112 442 1126 l 442 1080 l 445 1074 l 442 1074 q 399 1107 414 1107 q 382 982 386 1107 q 450 849 382 874 q 401 784 401 819 q 486 722 401 732 q 513 743 486 739 l 529 743 q 586 735 557 743 l 581 746 l 583 746 q 635 722 617 722 l 648 722 q 681 787 681 743 q 684 798 684 787 l 689 798 l 689 789 q 735 846 707 807 l 732 865 q 757 906 732 891 q 768 966 768 936 q 700 1090 768 1074 l 689 1090 q 629 1031 658 1090 q 627 1028 629 1028 q 551 1142 627 1079 q 521 1139 527 1139 q 448 1145 505 1139 m 467 1099 q 540 1047 505 1099 l 540 1039 q 483 1088 489 1088 l 480 1069 q 483 1028 480 1062 l 483 1023 l 480 1023 l 472 1063 q 477 1090 475 1084 l 467 1093 l 467 1099 m 689 1085 l 694 1085 q 724 1074 699 1085 q 722 1072 724 1072 l 735 1034 q 713 1017 735 1017 q 675 1023 684 1023 q 667 1061 667 1059 l 667 1063 q 684 1082 684 1074 l 689 1085 m 689 1082 q 686 1063 686 1079 l 681 1066 l 678 1066 q 673 1061 673 1065 q 700 1025 678 1025 q 722 1023 711 1023 l 727 1031 q 711 1074 720 1074 q 689 1082 694 1082 m 705 1058 l 705 1047 l 694 1047 l 694 1055 l 705 1058 m 363 1042 l 363 1031 l 366 1031 l 366 1042 l 363 1042 m 418 1044 q 423 1036 423 1044 l 431 1036 q 469 1015 456 1036 l 464 1015 q 429 1028 445 1028 l 426 1028 l 426 1025 q 442 947 426 1006 l 437 947 q 418 1031 418 984 l 418 1044 m 347 1034 l 347 1028 l 350 1028 l 350 1034 l 347 1034 m 505 1012 l 521 1012 q 567 998 528 1012 l 564 993 l 564 982 q 597 987 586 987 l 597 982 q 505 917 559 982 q 486 873 486 888 l 480 876 q 486 906 486 903 q 458 925 458 913 q 456 974 458 941 q 469 1004 460 1004 l 480 1004 q 510 944 498 994 q 529 960 529 956 q 496 998 496 976 l 496 1004 q 505 1012 496 1008 m 54 1009 l 65 1009 q 95 920 95 987 l 95 911 q 5 968 59 922 q 0 985 0 977 q 19 1004 0 1004 l 43 996 q 54 1009 49 1008 m 54 1004 q 49 982 49 996 q 16 996 24 996 l 14 996 q 8 990 8 995 l 8 979 q 90 920 35 947 l 90 922 q 54 1004 81 1004 m 526 1004 l 529 998 l 529 993 q 513 985 529 985 l 513 982 q 534 963 513 979 q 559 977 555 977 l 559 990 q 526 1004 559 996 m 694 998 l 716 998 q 722 993 722 998 q 692 990 707 993 q 700 944 700 967 q 673 838 700 913 l 673 789 q 629 741 665 741 l 621 741 q 562 779 609 741 q 458 795 463 795 l 458 792 q 448 770 452 770 l 448 784 q 486 819 448 812 l 488 814 q 467 806 484 814 l 467 800 l 469 800 q 562 789 548 789 q 689 920 650 789 q 692 949 689 935 l 686 987 l 659 968 l 659 971 q 694 998 675 998 m 486 985 q 472 966 486 966 q 464 968 467 968 l 464 928 q 491 911 475 911 l 505 936 q 488 985 505 944 l 486 985 m 589 971 l 591 971 q 618 939 613 971 q 562 860 618 897 q 545 854 553 854 l 534 854 q 507 882 507 860 l 507 895 q 572 968 507 931 l 589 971 m 996 936 q 1034 873 1030 899 l 1036 873 l 1036 882 q 996 936 1036 924 m 960 914 l 960 836 q 947 768 958 768 q 952 852 952 808 l 952 854 l 949 854 q 911 787 949 836 l 909 787 l 909 789 q 944 860 920 806 l 944 863 l 941 863 l 892 781 q 1004 637 989 701 q 1063 605 1017 627 l 1066 589 q 1058 551 1063 565 q 1080 591 1080 562 q 1017 670 1065 670 q 1034 675 1017 675 q 1036 762 1036 734 l 1036 798 q 985 930 1036 883 q 974 933 980 933 l 971 933 q 960 914 960 929 m 1074 735 l 1074 732 q 1123 570 1074 684 q 1150 439 1137 439 q 1234 382 1192 382 l 1245 382 q 1272 393 1272 386 q 1215 534 1242 393 q 1156 735 1156 685 q 1234 830 1156 805 l 1248 833 l 1248 836 q 1188 846 1215 846 q 1077 760 1113 846 q 1074 735 1074 745 m 754 836 l 754 833 l 762 833 l 762 836 l 754 836 m 765 833 l 765 830 q 789 822 774 830 l 792 822 l 792 825 l 768 833 l 765 833 m 1166 732 q 1232 505 1166 690 l 1232 502 l 1234 502 q 1373 583 1301 502 l 1373 627 q 1272 819 1373 745 q 1256 825 1263 825 l 1248 825 q 1175 770 1208 825 q 1166 732 1166 758 m 795 822 l 795 819 q 808 814 800 819 l 811 814 l 811 817 q 798 822 806 817 l 795 822 m 618 789 q 635 779 629 789 q 602 784 616 784 l 597 784 q 581 776 581 783 q 624 749 611 749 l 637 749 q 665 792 665 764 l 665 795 q 640 806 665 802 q 618 789 630 806 m 716 686 q 738 651 719 651 l 773 621 q 817 654 773 647 l 830 651 q 776 722 776 698 l 776 732 q 792 743 776 738 q 887 662 837 743 l 887 648 q 871 637 882 637 q 846 643 867 637 q 871 586 871 614 q 852 534 871 557 l 854 529 l 854 518 q 830 458 854 486 q 868 423 861 423 l 871 423 q 993 524 871 466 q 922 553 993 528 q 892 572 922 558 l 892 578 q 917 567 915 567 l 917 570 q 898 586 898 583 l 898 589 l 901 589 q 936 559 918 580 q 949 553 945 553 q 979 629 968 574 l 982 629 l 982 624 q 958 548 982 584 q 1034 529 1019 529 q 1058 591 1058 562 q 1020 616 1058 604 q 1009 624 1020 618 l 1009 610 l 1006 610 q 887 773 970 715 q 838 792 852 792 q 722 711 756 792 q 716 686 719 705 m 868 773 l 871 773 q 944 705 904 773 l 944 692 l 933 689 q 868 743 909 689 q 863 765 863 753 l 863 768 q 868 773 863 773 m 868 768 l 868 765 q 936 697 898 706 l 939 697 l 939 700 q 868 768 894 768 m 784 730 l 784 727 q 854 648 784 695 l 871 646 l 873 646 q 879 651 879 646 l 879 654 q 800 735 879 684 l 789 735 q 784 730 784 734 m 665 700 l 665 697 l 670 694 l 670 697 l 665 700 m 678 692 l 678 689 l 684 686 l 684 689 l 678 692 m 686 686 l 686 684 l 692 681 l 692 684 l 686 686 m 746 537 l 746 540 l 754 562 q 575 515 677 515 q 483 480 499 515 l 483 477 q 567 429 483 442 l 594 429 q 659 437 625 429 q 594 418 639 418 l 586 418 q 480 458 512 418 l 480 461 l 464 461 q 426 431 433 461 q 529 372 446 372 q 629 385 568 374 q 613 350 621 374 q 548 285 548 299 l 548 282 q 586 258 556 258 q 692 339 644 258 l 678 336 l 673 336 q 667 342 667 336 q 768 391 706 342 q 792 426 792 416 q 749 415 772 415 l 735 415 q 719 423 721 415 q 741 420 734 420 q 838 488 797 420 q 846 515 846 503 l 846 526 q 808 505 823 505 l 803 505 l 803 507 q 860 581 860 538 l 860 597 q 817 646 843 646 q 768 570 781 646 q 746 537 759 548 m 684 540 q 760 581 760 570 l 762 591 q 684 540 684 572 m 1367 567 q 1234 494 1303 494 l 1234 491 q 1283 396 1253 396 q 1364 537 1335 435 q 1370 567 1367 563 l 1367 567 m 1112 551 q 1093 499 1093 528 q 1161 404 1105 404 l 1164 404 q 1118 548 1118 450 l 1112 551 m 925 477 q 879 420 879 440 l 879 418 l 906 418 q 993 450 939 418 l 993 453 q 925 477 984 453 m 882 320 q 933 269 890 269 q 1009 339 1009 287 l 1009 347 q 1004 353 1009 353 q 963 301 990 301 l 947 301 q 914 331 914 309 l 914 334 q 925 382 914 351 l 922 382 q 882 320 882 363 m 789 288 q 808 296 803 296 l 811 296 l 811 293 q 662 130 662 195 q 779 16 662 56 q 817 11 799 11 l 836 11 q 979 73 920 11 q 1028 239 1028 137 q 1017 334 1025 283 l 1015 334 q 949 263 1015 284 q 928 260 939 260 q 873 317 884 260 l 873 320 q 887 366 873 347 l 887 369 l 884 369 q 789 288 853 355 m 844 252 l 871 252 q 985 209 954 252 l 979 209 q 841 244 932 244 q 806 241 818 241 q 844 252 806 250 z "},"J":{"ha":1229,"x_min":0,"x_max":1204,"o":"m 377 1383 q 483 1294 452 1383 l 488 1259 q 477 1196 486 1228 q 545 1229 519 1229 l 553 1229 q 597 1199 578 1229 l 613 1196 q 637 1207 627 1207 l 651 1207 q 681 1194 661 1207 l 681 1215 q 792 1337 681 1304 l 814 1337 q 922 1245 890 1337 q 925 1215 925 1227 l 925 1210 q 827 1080 925 1117 q 806 1077 817 1077 l 795 1077 l 768 1080 q 792 968 792 1029 q 773 879 792 930 q 670 762 773 817 l 670 760 q 836 662 776 680 q 873 678 852 678 l 887 678 q 1028 792 961 792 l 1039 792 q 1080 762 1074 792 l 1080 751 q 993 654 1080 724 l 993 651 l 1012 648 q 1153 711 1044 648 l 1177 716 q 1204 703 1196 716 l 1204 667 q 1123 589 1204 630 q 1061 572 1074 572 l 1061 570 q 1142 526 1073 545 q 1153 505 1153 515 q 1082 453 1153 460 l 1077 453 q 993 491 1028 453 l 990 491 q 928 477 965 477 q 882 494 902 479 q 846 491 880 494 l 827 494 q 776 477 809 481 q 789 431 789 440 q 738 388 772 412 q 705 274 705 290 q 727 250 724 250 q 857 258 839 258 q 1001 155 1001 244 l 1001 146 q 868 22 1001 60 q 784 14 822 14 q 543 81 652 14 q 423 8 519 38 q 372 0 389 0 l 288 0 q 119 79 201 0 q 95 149 95 118 l 95 168 q 198 269 95 245 q 152 431 171 308 q 127 513 152 456 q 182 334 149 513 q 220 269 199 286 l 239 269 q 388 247 264 269 q 434 274 395 262 l 483 377 q 472 399 476 377 q 505 564 505 486 q 491 667 499 650 q 255 594 385 594 q 203 597 212 597 q 168 589 183 589 q 106 610 140 589 q 24 713 24 631 q 33 760 27 749 q 0 833 0 781 l 0 841 q 65 909 14 909 q 117 939 87 939 l 125 939 q 163 922 142 939 q 231 1042 163 981 q 263 1050 255 1050 q 298 1023 292 1050 l 298 1006 q 255 876 298 998 q 239 727 239 826 q 260 697 246 724 q 323 689 298 689 q 453 754 372 689 l 458 762 q 336 901 336 824 q 339 933 336 919 q 336 979 336 954 l 336 985 q 385 1118 336 1059 q 350 1112 373 1112 l 347 1112 q 247 1183 275 1112 q 241 1223 241 1208 q 320 1370 241 1316 q 377 1383 341 1383 m 429 1015 q 437 971 429 1004 l 420 971 q 347 917 360 971 l 347 903 q 461 773 347 831 l 461 776 q 458 784 458 781 q 545 724 503 724 q 629 773 579 724 l 632 773 l 624 760 l 624 757 q 757 852 721 789 l 762 871 l 762 887 q 716 939 762 909 q 732 1020 727 968 q 673 1169 732 1098 q 646 1180 654 1180 q 597 1150 624 1180 q 548 1202 576 1202 q 448 1101 508 1202 q 429 1015 429 1046 m 564 1131 q 591 1066 588 1131 q 575 979 591 1042 l 597 979 q 594 987 594 985 q 632 1112 600 1112 l 637 1112 q 662 1053 662 1099 q 635 966 662 1008 q 651 949 649 959 l 648 949 q 583 968 618 968 l 564 968 q 518 960 551 968 q 537 971 525 971 l 537 974 q 521 1036 521 997 q 564 1131 528 1131 m 559 1123 q 529 1034 529 1086 q 548 977 535 980 l 551 977 l 548 990 q 562 1028 548 1021 l 567 1028 q 575 1017 575 1028 l 578 1017 q 583 1072 583 1044 q 559 1123 580 1123 m 602 1012 l 616 1020 q 627 1001 627 1019 q 618 971 627 986 l 627 971 q 651 1044 651 994 l 651 1069 q 635 1104 646 1104 l 632 1104 q 602 1015 616 1104 l 602 1012 m 168 876 l 168 871 q 203 827 168 848 q 228 760 228 801 q 217 724 225 724 l 220 738 l 220 749 q 174 836 220 814 q 119 876 133 876 l 109 876 q 90 849 90 864 l 90 846 q 155 757 90 783 l 155 754 l 138 754 l 133 757 l 133 754 q 141 746 137 754 l 136 746 l 119 757 q 106 705 106 727 l 106 692 q 138 643 106 660 l 138 640 l 130 640 q 95 705 95 659 q 117 762 95 734 l 117 765 l 114 765 l 87 768 q 52 751 74 751 q 41 754 47 754 q 35 713 35 724 q 109 618 35 646 q 141 616 117 616 q 130 610 141 610 l 130 608 q 163 602 149 602 l 168 602 q 252 678 237 602 l 252 681 q 236 713 243 713 l 233 713 q 184 629 233 673 q 168 624 176 624 q 220 697 220 667 q 233 844 230 697 l 288 1012 l 288 1028 q 266 1042 280 1042 q 184 960 223 1042 q 168 876 168 927 m 581 963 q 646 922 646 955 l 646 911 q 586 873 646 880 l 575 873 q 513 914 513 881 l 513 925 q 578 963 521 963 l 581 963 m 60 852 l 60 849 q 109 773 65 783 q 79 841 79 806 l 79 844 q 111 884 85 884 l 122 884 q 160 865 133 884 l 160 909 q 119 930 154 922 q 60 852 71 930 m 434 928 l 456 928 q 461 922 461 927 q 431 917 435 920 q 567 825 469 825 l 589 825 q 697 884 653 825 l 697 887 q 681 898 681 895 l 692 898 q 724 868 724 890 l 724 852 l 708 879 q 705 882 708 882 q 646 822 700 865 q 540 741 593 741 q 453 860 481 741 q 426 911 431 883 l 426 914 l 423 914 l 393 892 l 393 895 q 434 928 409 928 m 11 836 q 54 762 20 762 l 57 762 q 81 776 81 768 q 49 854 49 804 q 60 898 49 871 l 54 898 q 11 836 11 880 m 477 817 l 477 814 q 534 751 499 751 l 545 751 q 586 768 562 751 q 551 792 572 792 l 540 792 l 540 789 q 545 773 545 781 q 483 817 510 817 l 477 817 m 841 610 q 854 616 850 616 q 738 551 843 602 q 722 526 722 532 q 770 488 722 494 q 863 526 809 488 l 865 526 l 865 524 l 844 502 l 849 502 q 952 534 899 502 l 952 532 q 892 499 952 519 l 892 496 q 930 488 913 488 l 941 488 q 1006 505 963 488 q 1001 499 1006 499 q 1069 467 1023 467 l 1093 467 q 1142 502 1142 474 q 1099 529 1142 521 q 1053 570 1053 549 l 1034 570 l 1034 572 l 1131 605 q 1196 678 1196 648 l 1196 689 q 1180 705 1196 705 q 1039 640 1166 705 q 1015 637 1029 640 q 982 643 987 643 q 963 624 982 639 l 963 627 q 1053 724 968 648 q 1072 760 1068 743 q 1036 784 1072 779 q 901 678 972 784 l 841 610 m 694 727 l 694 724 l 705 716 l 705 719 l 694 727 m 705 713 l 705 711 l 711 708 l 711 711 l 705 713 m 513 600 l 515 575 q 480 399 515 469 q 545 363 498 363 q 643 404 643 378 q 670 461 661 452 l 670 458 l 667 445 l 670 445 q 719 472 715 472 q 662 431 703 452 l 646 382 l 665 382 q 781 437 728 382 q 762 480 766 479 q 713 529 713 487 q 738 564 713 544 q 703 629 709 564 l 703 648 q 713 667 703 663 l 722 667 q 751 594 751 640 l 751 586 q 746 570 751 578 l 749 570 q 762 575 758 575 q 716 678 739 678 q 654 694 694 694 q 513 600 569 694 m 798 591 q 879 670 817 591 l 873 670 q 798 594 837 670 l 798 591 m 618 670 q 659 586 646 670 q 632 545 659 545 l 627 545 q 589 618 589 556 q 618 670 589 670 m 613 662 q 600 629 600 647 l 600 621 q 627 553 600 570 q 648 578 648 553 l 648 591 q 613 662 640 662 m 711 654 l 711 624 q 732 572 722 572 l 741 572 l 743 586 q 719 659 743 635 l 716 659 q 711 654 711 659 m 770 589 l 770 581 q 779 583 776 583 q 773 589 779 589 l 770 589 m 526 263 q 545 233 545 250 l 545 212 q 567 233 567 225 q 610 279 567 256 l 643 374 l 640 374 q 629 377 635 377 q 562 353 612 366 l 526 263 m 697 266 q 637 231 692 231 q 602 263 602 231 q 578 231 578 248 l 578 228 q 637 193 585 193 q 713 244 699 193 q 700 266 713 259 l 697 266 m 388 222 q 458 179 388 187 q 537 228 537 186 l 537 233 q 518 255 530 252 q 475 217 509 217 l 453 217 q 418 241 418 217 q 426 260 418 247 l 420 260 q 388 222 388 244 m 103 155 q 222 27 103 75 q 331 8 273 8 q 515 68 433 8 q 551 130 551 103 l 551 144 q 532 195 551 179 q 458 171 503 171 l 456 171 q 380 212 397 171 q 377 228 377 226 l 382 239 l 233 258 q 109 190 135 258 l 103 155 m 722 239 q 651 184 701 184 l 629 184 q 572 214 586 184 l 567 214 l 545 195 q 562 138 562 165 l 562 130 q 551 90 562 123 l 551 87 q 795 27 667 27 q 987 133 948 27 l 990 157 q 890 244 990 221 q 857 247 876 247 l 854 247 q 722 239 829 247 m 323 225 l 326 225 q 431 144 395 201 l 431 138 q 323 222 370 198 l 323 225 m 787 222 l 787 220 q 651 157 767 220 q 770 222 695 201 l 787 222 z "},"K":{"ha":1209,"x_min":0,"x_max":1158,"o":"m 578 1272 q 643 1177 621 1272 q 689 1147 643 1160 q 754 1169 721 1169 l 765 1169 q 798 1156 781 1169 q 822 1161 815 1161 l 838 1161 q 882 1139 859 1161 q 985 1175 928 1175 q 1126 1088 1084 1175 q 1128 1063 1128 1073 l 1128 1044 q 1036 941 1128 987 q 993 933 1008 933 l 971 933 q 925 944 950 933 l 925 941 q 944 854 944 899 l 944 822 q 1044 860 989 860 q 1153 795 1118 860 q 1158 773 1158 785 l 1158 741 q 1053 613 1158 667 q 996 602 1019 602 l 974 602 q 993 507 987 578 l 990 494 q 1006 445 998 482 q 1077 358 1077 379 l 1077 350 q 1034 312 1077 317 q 933 366 995 312 l 930 366 q 920 263 922 315 q 987 198 987 237 l 987 190 q 884 130 968 130 q 930 144 884 134 q 979 195 979 170 q 914 247 960 247 q 873 209 899 209 l 868 209 q 817 271 829 209 l 817 274 l 713 279 q 743 203 743 248 l 743 201 q 572 11 743 89 q 502 0 530 0 l 472 0 q 288 98 359 0 q 279 127 279 119 q 187 117 240 117 q 3 195 40 117 l 0 222 l 0 231 q 184 372 0 333 q 231 453 184 408 l 231 456 q 217 494 217 480 l 217 502 q 293 556 217 525 q 374 637 309 564 q 507 700 468 700 l 507 722 q 477 833 507 760 q 469 906 469 882 q 491 1004 469 953 q 486 1061 486 1038 l 486 1099 q 559 1272 486 1237 l 578 1272 m 540 1183 l 540 1161 l 543 1161 l 543 1183 l 540 1183 m 629 1112 q 643 1082 640 1097 q 632 1042 637 1049 l 635 1042 q 705 1069 667 1069 l 713 1069 l 713 1099 q 719 1104 714 1104 q 784 998 719 1028 l 792 998 q 808 1023 808 1008 q 779 1156 793 1156 q 762 1161 770 1161 l 760 1161 q 632 1112 735 1161 l 629 1112 m 543 1158 l 543 1147 l 545 1147 l 545 1158 l 543 1158 m 800 1147 l 819 1025 q 800 996 812 996 q 852 955 815 955 q 873 1050 873 955 q 882 1107 878 1050 q 819 1153 882 1146 l 800 1147 m 570 1120 q 594 1126 583 1126 q 618 1118 618 1122 q 675 1145 667 1135 q 635 1150 650 1150 q 570 1120 597 1150 m 892 1118 l 892 1090 l 876 960 l 879 960 q 914 1006 906 960 q 939 1072 939 1057 l 939 1077 q 892 1118 939 1104 m 532 1085 l 529 1080 l 532 1080 l 534 1085 l 532 1085 m 526 1077 l 526 1072 l 529 1072 l 529 1077 l 526 1077 m 635 1034 l 635 1028 q 640 1023 635 1023 q 678 1044 640 1036 l 697 1044 q 700 1039 697 1039 q 659 1004 696 1024 l 654 1004 q 692 1036 654 1008 l 692 1039 l 689 1039 q 646 1025 679 1039 q 654 1012 654 1017 q 648 996 654 1007 q 651 971 651 981 l 651 963 l 648 944 l 646 944 q 627 1023 646 977 q 570 968 592 968 l 564 968 q 518 1017 526 968 l 515 1017 q 483 914 483 972 l 483 879 q 553 700 483 814 q 543 673 543 681 l 543 670 q 602 632 543 650 q 635 618 614 618 q 662 648 644 619 l 662 640 l 665 640 q 727 692 678 692 q 749 689 738 689 q 751 719 751 707 q 711 846 751 772 q 884 928 736 871 q 906 955 906 941 q 903 958 903 955 q 882 952 893 952 l 873 952 l 868 955 q 852 947 865 947 l 838 947 q 792 990 812 947 l 787 990 l 770 993 q 738 979 746 979 l 738 985 q 760 998 747 985 q 732 1025 756 998 q 678 1001 715 1020 l 678 1004 q 727 1031 690 1019 l 727 1034 q 716 1061 716 1054 l 708 1061 q 635 1034 677 1061 m 643 1015 l 643 1009 l 646 1009 l 646 1015 l 643 1015 m 675 996 q 719 985 696 996 l 719 971 q 713 966 719 966 l 711 966 q 667 987 711 987 l 662 987 l 662 993 l 675 996 m 662 971 l 665 971 q 692 958 680 958 l 708 958 l 708 952 l 694 949 q 662 966 675 949 l 662 971 m 562 776 l 564 776 q 643 659 600 776 l 643 648 q 627 635 643 635 q 564 665 622 635 l 559 665 l 559 670 q 567 694 567 680 q 553 765 567 701 q 562 776 557 776 m 846 667 l 887 656 l 887 659 q 882 697 882 668 q 846 667 846 669 m 586 665 q 635 643 620 643 q 621 686 635 674 q 586 665 586 675 m 301 510 l 298 510 l 298 518 q 312 559 299 535 l 309 559 q 236 515 248 515 q 358 385 301 420 l 363 385 l 369 404 q 315 475 315 447 q 372 412 345 434 l 377 412 l 382 415 l 382 412 q 369 369 369 382 q 453 363 441 366 q 499 366 474 366 l 540 366 q 562 361 551 366 l 559 388 l 559 393 q 616 524 559 437 q 540 648 616 586 q 461 673 505 673 q 317 548 373 643 q 301 510 301 517 m 448 659 l 461 659 q 467 654 467 659 l 467 648 q 391 572 467 616 l 374 572 q 369 578 369 572 l 369 583 q 448 659 369 627 m 377 581 l 382 581 q 458 643 418 591 l 458 651 l 453 651 q 377 594 426 650 l 377 581 m 928 640 l 928 637 l 933 635 l 933 637 l 928 640 m 941 632 l 941 629 l 947 627 l 947 629 l 941 632 m 949 627 l 949 624 l 958 618 l 958 621 l 949 627 m 532 627 q 548 613 543 623 l 548 597 q 480 524 548 563 l 464 521 q 442 543 442 522 q 510 624 442 581 q 532 627 525 627 m 450 545 q 464 529 450 534 q 540 597 496 529 q 543 605 540 600 q 534 616 538 616 l 526 616 q 450 545 484 616 m 697 600 l 697 597 l 703 597 l 703 600 l 697 600 m 705 591 l 705 589 q 776 562 762 562 l 779 562 q 844 575 838 562 q 730 597 778 597 q 705 591 723 597 m 648 564 l 648 559 q 713 494 648 516 q 732 491 717 491 l 738 491 l 760 510 l 760 507 q 648 388 760 488 q 637 366 639 366 q 667 345 637 347 q 773 393 692 345 q 798 401 786 393 q 830 296 826 401 q 871 217 830 225 l 873 217 q 906 258 906 233 q 922 380 914 335 l 933 380 q 1028 326 1003 326 l 1042 326 q 1069 355 1064 326 q 996 442 1069 370 l 985 461 l 987 461 l 993 458 l 993 461 q 939 532 986 490 l 939 529 q 947 477 947 513 l 947 467 l 944 467 q 933 532 939 467 q 936 534 936 532 q 857 559 896 559 l 852 559 q 784 551 830 559 q 689 586 758 551 l 670 586 q 648 564 648 586 m 863 572 l 863 570 q 977 513 920 570 q 979 510 977 510 l 979 521 q 898 575 964 575 l 882 575 l 863 572 m 873 545 l 876 545 l 876 543 q 838 507 847 507 l 838 510 q 873 545 838 524 m 903 545 l 909 543 q 890 475 901 475 l 887 475 l 887 477 q 903 545 903 539 m 570 382 q 575 339 575 352 q 548 326 555 326 q 656 307 548 309 q 811 288 688 288 q 817 285 811 285 q 803 391 817 365 q 705 345 789 391 q 659 334 686 334 q 627 366 627 342 q 724 477 627 393 l 727 483 q 643 534 663 483 q 570 382 570 451 m 225 507 l 225 499 q 241 461 225 478 q 255 472 255 469 q 228 507 239 502 l 225 507 m 353 377 q 298 323 353 348 q 258 317 273 317 l 244 317 q 296 298 260 298 l 304 298 q 382 339 352 298 q 355 377 355 361 l 353 377 m 372 361 q 415 339 372 354 q 423 358 423 353 l 420 358 q 372 361 382 361 m 14 236 l 14 225 q 133 133 14 150 l 187 127 q 279 146 279 132 q 347 222 279 189 q 418 241 380 236 l 418 244 q 401 277 401 266 l 401 296 q 412 331 401 310 l 393 336 l 391 336 q 296 288 364 288 q 285 290 290 288 l 282 290 l 282 288 q 320 263 306 280 l 320 260 q 163 320 199 320 l 163 323 l 182 323 q 241 307 193 323 q 195 342 241 311 q 184 358 195 350 q 41 293 83 338 q 14 236 14 258 m 518 358 q 510 331 518 357 l 513 331 q 567 347 567 336 q 548 358 563 358 l 518 358 m 507 317 l 507 315 q 526 309 515 315 q 534 312 532 312 q 526 320 534 316 q 507 317 515 317 m 556 307 l 553 301 q 572 277 572 301 l 572 263 q 472 228 559 228 l 472 225 q 529 214 513 214 q 616 260 602 214 l 616 263 q 559 307 616 300 l 556 307 m 608 301 q 627 263 627 283 l 627 258 q 540 206 627 214 l 526 206 l 526 203 q 591 171 551 203 l 586 171 q 423 220 535 198 l 420 220 l 420 222 l 445 222 l 461 220 l 464 220 l 464 222 l 434 239 q 293 149 293 200 l 293 130 q 399 27 293 75 q 486 11 430 16 q 713 141 624 11 q 730 206 730 177 l 730 209 q 667 290 730 267 q 608 301 635 298 z "},"L":{"ha":1048,"x_min":0,"x_max":1031,"o":"m 429 1476 l 431 1476 q 570 1378 541 1476 q 572 1354 570 1369 q 502 1237 572 1292 q 618 1183 573 1221 q 624 1177 619 1177 q 757 1324 640 1324 q 865 1232 832 1324 q 871 1194 871 1211 l 871 1177 q 773 1047 871 1084 q 751 1044 763 1044 l 735 1044 q 684 1058 713 1044 l 684 1055 l 686 1039 l 686 996 q 635 857 686 933 l 635 854 q 697 844 664 844 l 700 844 q 806 925 728 895 q 838 930 825 930 q 933 854 897 930 q 1031 798 1007 854 l 1031 765 q 985 681 1012 681 q 906 646 964 646 q 865 618 892 618 l 852 618 q 822 627 840 618 q 814 578 814 587 l 825 483 q 741 431 825 459 l 694 331 l 713 317 q 854 353 822 353 q 971 277 929 353 q 977 244 977 251 q 844 92 977 158 q 722 68 778 68 l 700 68 q 532 106 623 68 q 345 0 440 0 l 290 0 q 136 79 222 0 q 98 168 98 119 q 103 193 98 180 q 0 293 0 213 q 33 353 7 353 q 8 293 8 321 q 100 203 8 232 l 109 203 q 193 269 132 248 q 363 296 233 279 q 410 326 374 299 q 453 355 453 342 q 491 420 475 382 l 488 420 q 483 426 483 420 q 540 534 483 454 q 545 594 545 581 q 499 722 545 684 q 347 613 430 693 l 347 610 q 361 572 355 596 q 439 491 439 550 q 396 420 439 448 q 309 317 382 317 l 301 317 q 241 334 285 317 q 212 347 224 334 l 206 345 l 184 345 q 114 445 125 345 l 114 448 q 182 581 114 520 q 241 640 182 613 q 404 765 340 734 l 404 768 l 401 768 q 345 760 359 760 q 201 838 244 760 q 133 914 133 868 l 133 922 q 187 977 146 977 q 244 936 211 977 l 250 936 l 250 939 q 231 1020 231 978 q 363 1215 231 1148 q 391 1223 385 1223 l 391 1226 q 304 1283 344 1226 q 290 1332 290 1307 l 290 1343 q 391 1470 290 1430 q 429 1476 411 1476 m 279 1090 l 266 1104 l 263 1104 q 241 1015 241 1075 q 258 941 241 982 l 260 941 q 266 947 266 941 q 247 1006 247 965 q 260 1031 253 1031 q 298 968 282 1031 q 312 947 307 947 q 331 936 331 941 l 298 941 q 252 925 252 934 l 252 922 q 269 882 269 898 q 222 836 262 836 l 217 836 q 336 773 256 773 l 350 773 q 534 895 464 773 q 556 979 556 939 q 526 963 541 974 l 524 963 l 524 966 q 564 987 538 987 l 572 987 q 591 977 587 987 l 572 979 l 564 979 q 562 939 562 952 l 562 933 l 575 844 l 575 836 q 510 779 566 779 l 507 779 q 453 792 488 779 q 415 776 422 776 l 415 773 l 439 773 l 458 779 q 507 770 488 770 l 524 770 q 597 871 587 770 q 600 892 597 873 l 605 892 q 602 846 602 861 l 602 841 l 600 836 l 602 836 q 673 974 667 908 q 618 1047 673 1021 q 581 1053 598 1053 q 464 985 519 1053 l 464 1001 q 388 1188 464 1134 q 366 1194 378 1194 l 355 1194 q 285 1123 323 1194 q 279 1090 279 1096 m 315 1096 l 326 1096 q 366 971 366 1053 l 366 968 q 350 944 366 944 q 296 1050 296 964 q 315 1096 296 1084 m 317 1090 q 307 1055 307 1080 l 307 1036 q 342 955 307 982 q 334 985 334 975 q 345 1006 337 1006 l 350 1006 l 355 1004 q 317 1090 336 1090 m 260 1025 q 255 1009 255 1017 l 255 1001 q 271 947 255 976 l 285 947 q 279 974 279 959 q 288 979 288 977 q 260 1025 271 1025 m 694 800 l 694 792 q 730 749 694 768 q 789 838 730 767 l 789 836 q 743 760 785 822 q 738 735 738 742 l 738 730 q 792 678 749 678 l 792 681 q 838 770 833 768 q 803 675 838 765 l 803 673 q 860 627 803 637 q 898 648 882 627 l 898 651 q 882 656 890 651 l 871 651 l 871 654 q 892 675 871 662 l 901 675 q 887 665 895 665 l 887 659 l 914 656 q 990 716 972 656 l 990 735 q 939 787 990 764 l 939 789 l 944 789 q 963 784 962 784 q 917 833 939 825 l 917 838 l 930 833 l 930 836 q 846 920 886 920 l 844 920 q 708 838 779 920 q 694 800 694 814 m 534 822 q 526 841 528 822 q 494 795 494 827 q 510 787 494 789 q 567 838 567 794 l 567 846 q 559 887 567 863 q 534 822 534 873 m 659 827 l 659 825 l 667 819 l 667 822 l 659 827 m 670 819 l 670 817 l 675 814 l 675 817 l 670 819 m 955 814 q 1001 716 1001 755 l 998 705 l 998 703 l 1001 703 q 1012 738 1012 728 l 1012 743 q 958 814 1012 789 l 955 814 m 667 773 q 692 670 680 670 l 711 665 l 716 665 q 754 684 741 665 q 724 741 734 684 q 684 798 684 762 q 667 773 667 788 m 553 651 l 556 618 l 556 591 q 526 496 551 508 q 494 429 494 448 q 578 407 524 407 q 665 434 665 412 q 692 502 678 463 l 694 502 l 694 494 q 689 467 689 469 l 692 467 q 722 483 717 483 q 684 450 713 470 l 678 439 q 811 488 791 488 l 814 488 l 806 564 l 803 564 q 773 515 803 545 l 770 515 q 814 632 814 603 l 808 635 q 803 629 808 629 l 798 629 q 765 675 776 629 l 765 678 l 760 678 q 711 651 760 663 q 670 591 704 591 l 665 591 q 618 675 618 602 q 654 732 618 725 l 662 732 l 662 746 q 553 651 587 718 m 515 730 l 515 727 l 521 727 l 521 730 l 515 730 m 629 667 q 662 600 629 619 l 667 600 q 703 656 696 600 q 665 713 671 656 q 659 724 665 724 l 656 724 q 629 686 634 724 l 629 667 m 773 673 l 773 670 q 798 635 781 644 q 806 637 803 637 q 787 667 792 667 l 773 673 m 195 583 l 198 583 q 125 442 125 514 q 187 353 125 374 l 201 353 q 179 391 179 378 l 184 391 q 225 350 184 375 q 247 345 243 345 l 247 347 q 241 372 241 357 q 244 380 244 377 l 247 380 q 298 328 256 328 l 301 328 q 385 418 372 328 l 374 418 l 374 410 q 366 380 374 380 l 366 391 l 363 391 q 353 369 359 369 l 353 374 q 388 450 353 406 l 388 448 l 380 426 l 382 426 q 426 483 426 448 l 426 499 q 323 572 426 549 l 323 575 l 334 575 l 334 578 q 271 600 293 600 q 203 581 245 600 l 203 583 q 269 608 203 599 q 339 575 332 601 l 350 575 q 271 629 334 629 l 269 629 q 195 583 195 618 m 241 570 l 241 567 l 217 483 l 214 483 q 209 488 209 483 q 241 570 219 545 m 271 564 l 277 564 l 274 545 l 274 494 q 269 488 274 488 l 266 488 l 263 505 q 271 564 263 518 m 206 551 l 206 545 q 179 480 184 483 q 174 486 174 480 q 206 551 174 514 m 746 445 l 749 445 q 811 480 802 464 l 806 480 q 746 445 746 471 m 537 312 l 543 309 q 605 345 551 326 q 635 401 635 395 l 632 401 q 600 380 607 401 q 537 315 600 370 l 537 312 m 578 396 l 559 353 q 594 396 583 375 l 578 396 m 713 309 l 713 296 q 597 239 713 249 q 556 247 583 239 l 556 244 q 564 201 564 227 l 564 195 q 540 119 564 155 q 637 87 540 111 q 692 81 665 81 l 719 81 q 936 176 848 81 q 963 244 963 210 l 963 247 q 865 339 963 316 l 841 339 q 724 309 819 339 l 713 309 m 545 304 q 551 282 551 294 l 551 263 q 594 250 554 252 l 613 250 q 705 301 705 264 q 692 323 705 316 q 616 288 668 288 q 581 301 593 288 q 594 328 584 313 l 594 331 q 545 304 564 320 m 380 271 l 380 266 q 442 228 380 234 l 461 228 q 543 285 543 237 q 532 301 536 301 q 458 260 497 260 q 410 285 410 267 l 434 326 q 380 271 380 301 m 757 304 q 665 212 685 239 l 665 217 q 746 301 665 247 q 757 304 747 301 m 111 165 l 111 157 q 247 22 111 87 q 326 11 296 11 q 513 106 427 11 q 551 198 551 155 l 551 217 q 545 252 551 228 q 445 214 509 214 q 412 222 424 217 l 412 220 q 439 201 439 207 l 434 201 q 269 252 321 252 q 274 258 269 258 l 277 258 q 391 231 326 258 l 391 233 q 369 263 377 233 l 369 274 q 374 290 369 281 l 372 290 q 209 260 330 277 q 111 165 111 220 z "},"M":{"ha":945,"x_min":0,"x_max":911,"o":"m 469 1386 l 496 1386 q 629 1289 592 1386 q 632 1261 632 1274 l 632 1256 q 556 1156 632 1186 l 556 1153 q 665 1074 587 1153 q 751 1191 665 1149 q 800 1202 764 1199 q 909 1112 872 1202 q 911 1099 911 1107 l 911 1031 q 852 928 911 989 q 784 906 812 906 q 700 944 746 906 q 629 798 700 865 l 621 792 q 629 765 629 777 q 518 537 629 703 q 499 434 509 461 q 486 407 486 418 l 486 404 l 507 374 l 507 372 q 475 350 507 366 q 586 309 516 309 l 589 309 q 621 366 591 309 q 735 437 683 437 q 827 494 775 494 q 849 486 849 491 l 846 486 l 836 488 q 751 442 792 488 l 751 439 l 754 439 q 871 345 838 439 q 879 285 879 312 q 684 14 879 132 q 629 0 648 0 l 591 0 q 526 52 562 0 q 513 111 513 79 l 513 127 q 494 182 494 149 q 496 184 496 182 q 393 331 418 271 l 350 331 q 382 274 376 274 q 437 241 422 263 q 464 203 437 214 q 491 144 491 167 q 290 24 491 55 q 255 22 255 24 q 244 24 250 24 l 236 24 q 27 119 112 24 q 0 195 0 154 q 71 274 0 253 q 125 282 79 279 q 252 258 149 282 l 258 258 q 279 279 258 265 l 279 282 l 241 374 q 146 442 191 395 l 146 445 q 179 510 146 450 q 203 610 190 575 q 285 694 235 671 q 320 711 315 711 q 274 730 320 714 q 198 817 218 759 q 144 887 144 846 l 144 898 q 193 944 144 937 q 252 887 227 944 l 269 892 q 258 947 258 920 l 258 955 q 369 1142 258 1074 q 423 1161 386 1153 l 423 1164 q 361 1259 361 1197 l 361 1280 q 445 1383 361 1354 q 469 1386 460 1386 m 307 1039 l 304 1063 l 298 1063 q 266 947 266 1000 q 277 892 266 922 l 282 892 q 271 941 271 911 q 282 977 273 977 l 288 977 q 315 890 298 977 q 345 873 345 880 l 339 873 q 288 884 317 884 q 258 879 272 884 q 263 852 263 859 q 214 808 263 808 l 212 808 q 372 719 264 719 q 534 814 473 719 q 548 873 548 846 l 548 882 q 513 868 543 882 q 570 895 531 895 l 583 895 q 600 887 600 894 l 586 887 q 575 890 580 887 q 556 882 562 887 q 570 806 570 815 l 570 795 q 502 716 570 728 l 488 716 q 448 724 469 716 q 410 713 423 713 l 410 711 l 431 711 q 456 713 441 711 q 507 705 480 705 q 589 800 578 705 l 589 811 l 594 811 l 594 803 l 600 803 l 618 800 q 670 884 670 845 q 608 960 670 935 q 583 963 593 963 l 578 963 q 467 895 524 963 q 475 974 472 930 q 396 1137 464 1137 q 309 1039 349 1137 l 307 1039 m 339 1025 l 347 1025 q 374 920 374 1008 q 353 887 374 887 q 312 977 321 887 q 339 1025 312 1025 m 320 979 q 350 895 330 895 l 353 895 q 347 917 347 905 l 347 925 q 358 949 347 946 l 361 949 l 366 947 l 366 949 q 339 1020 357 1020 q 320 979 326 1020 m 282 971 q 277 941 277 948 q 290 892 282 892 l 296 892 q 290 917 290 905 q 298 933 298 930 q 285 971 292 971 l 282 971 m 529 754 l 529 751 l 524 751 l 524 762 l 518 762 q 496 724 496 749 l 499 724 q 564 792 549 724 q 562 814 564 814 q 529 754 529 798 m 247 654 q 258 659 258 656 q 269 651 269 655 l 269 643 q 212 559 252 587 l 209 559 q 201 567 201 559 l 198 567 q 157 448 198 507 l 157 442 q 288 369 222 384 q 263 426 281 426 q 209 486 209 469 q 301 415 267 428 l 301 412 l 290 412 q 301 355 297 361 q 385 342 351 342 q 496 377 456 342 q 480 391 481 391 l 477 391 q 467 377 477 382 l 467 380 l 477 401 l 475 401 q 458 388 475 397 l 453 388 q 486 431 469 407 l 472 429 q 420 540 431 429 l 420 551 q 437 618 423 613 l 437 616 l 434 600 l 434 597 l 437 597 q 461 616 455 604 q 415 670 449 649 q 331 694 371 694 l 317 694 q 247 654 283 694 m 507 670 l 505 665 l 507 665 l 510 670 l 507 670 m 502 662 l 494 651 l 496 651 l 505 662 l 502 662 m 350 662 l 361 662 q 377 637 377 651 q 317 543 377 589 q 290 534 306 534 q 271 559 271 543 l 271 567 q 336 659 271 610 l 350 662 m 279 570 l 279 553 q 293 543 281 548 q 366 627 330 543 q 369 637 366 633 q 358 654 363 654 l 353 654 q 285 586 321 654 q 279 570 279 577 m 203 575 q 209 567 206 567 q 263 648 241 584 l 263 651 l 260 651 q 203 575 232 651 m 491 648 l 483 637 l 486 637 l 494 648 l 491 648 m 396 605 q 366 581 396 602 l 363 581 q 396 605 377 605 m 437 586 l 437 583 q 488 532 463 583 q 496 494 496 501 l 499 494 q 507 524 507 515 l 507 534 q 453 594 496 594 q 437 586 437 591 m 431 578 q 429 543 429 544 q 469 437 429 469 q 488 488 488 460 q 431 578 488 554 m 342 559 l 347 559 q 320 469 320 512 q 369 380 320 412 l 366 380 q 315 456 326 380 l 315 483 q 342 559 315 515 m 458 556 l 458 553 q 431 534 441 534 l 431 537 q 458 556 440 550 m 467 540 l 469 540 q 437 505 450 505 l 437 507 q 467 540 463 540 m 477 521 l 480 521 l 480 515 q 458 477 470 482 l 456 477 l 456 483 q 477 521 477 516 m 496 483 q 480 434 496 460 l 488 434 q 502 483 502 466 l 496 483 m 586 206 l 583 206 l 581 225 q 567 187 574 225 l 564 187 l 562 201 l 564 206 l 562 206 q 524 119 524 162 l 524 111 q 575 19 524 47 l 575 22 q 648 146 575 47 q 844 331 758 331 q 860 326 851 331 l 860 328 q 803 415 860 368 q 765 426 775 426 l 746 426 q 600 301 662 426 q 586 206 586 260 m 608 71 q 659 62 629 62 q 808 136 764 62 q 865 285 865 206 q 841 323 865 323 q 662 149 769 323 q 608 71 630 98 m 507 309 l 548 266 q 583 282 583 275 q 589 298 583 287 l 570 298 q 507 309 549 298 m 14 201 l 14 182 q 111 68 14 128 q 263 35 183 35 q 426 73 340 35 q 480 144 480 108 q 437 209 480 176 l 434 209 q 377 182 434 188 l 374 182 q 312 195 344 182 l 312 193 q 339 168 319 193 l 339 165 q 209 247 255 230 l 209 250 l 217 250 q 260 231 247 241 q 225 252 257 252 q 127 271 155 271 q 14 201 14 261 m 266 247 l 266 241 q 334 198 277 219 q 369 193 346 193 l 380 193 q 431 225 431 193 q 382 266 431 247 q 393 250 389 250 q 396 252 393 252 l 396 247 q 366 233 396 237 l 353 233 q 285 269 311 233 q 266 247 266 262 m 505 168 q 515 141 508 141 q 562 217 532 195 q 581 266 581 237 l 578 266 q 505 182 536 266 l 505 168 m 654 54 l 651 54 q 602 62 631 54 q 583 19 583 39 l 583 16 q 605 8 585 8 l 613 8 q 732 65 665 8 q 654 54 691 54 z "},"N":{"ha":1269,"x_min":0,"x_max":1223,"o":"m 1169 1519 l 1180 1519 q 1223 1492 1208 1519 l 1223 1473 q 1120 1381 1223 1444 l 1099 1362 q 1123 1291 1123 1338 l 1120 1278 q 1145 1221 1145 1255 q 1080 1109 1145 1162 q 1025 1082 1062 1096 q 987 1053 1007 1053 q 811 854 962 995 q 773 817 807 854 q 792 708 792 759 q 670 415 792 563 q 629 388 644 388 q 562 420 607 388 q 545 415 545 418 q 570 391 545 391 q 648 323 648 328 q 686 217 686 272 l 686 198 q 551 8 686 66 q 502 0 522 0 l 456 0 q 290 76 372 0 q 269 138 269 109 q 396 263 269 212 q 450 347 450 316 q 469 372 465 371 q 461 407 461 395 q 423 412 444 407 q 160 328 224 372 q 87 244 87 265 l 81 244 l 81 247 q 168 345 106 307 q 404 423 218 382 l 404 426 q 363 461 399 426 q 353 464 353 461 q 233 439 304 439 l 209 439 q 8 559 58 439 q 0 600 0 583 l 0 618 q 65 700 0 677 q 106 705 91 705 l 136 705 q 401 675 401 689 q 461 621 433 665 q 562 757 562 735 l 562 765 q 548 773 562 770 q 502 768 526 768 l 494 768 q 345 841 386 768 l 342 857 l 342 873 q 328 898 328 890 q 309 887 309 895 q 317 846 317 863 l 317 838 q 244 749 317 769 l 231 746 q 209 749 220 749 q 146 713 180 713 q 90 754 119 713 q 0 871 0 786 q 109 1001 0 970 q 133 1004 119 1004 l 149 1004 q 179 1001 161 1004 q 214 1009 193 1009 q 260 998 227 1009 l 296 998 l 309 996 l 317 1044 q 252 1031 277 1031 l 231 1031 q 103 1120 152 1031 q 98 1156 98 1145 l 98 1172 q 201 1283 98 1248 l 233 1286 q 374 1202 317 1286 q 385 1161 385 1184 l 385 1158 l 388 1158 q 510 1215 463 1215 l 510 1218 q 434 1340 434 1269 l 434 1343 q 534 1454 434 1426 l 572 1454 q 719 1375 659 1454 q 735 1313 735 1346 q 646 1194 735 1228 l 640 1194 l 640 1191 q 749 1085 709 1161 q 784 996 784 1006 l 784 982 q 779 944 784 968 q 882 1096 849 1019 q 863 1145 863 1122 q 871 1169 863 1147 q 857 1240 857 1199 l 857 1253 q 914 1359 857 1343 l 933 1359 q 960 1351 947 1359 q 1118 1508 1019 1466 q 1169 1519 1142 1519 m 968 1343 q 985 1326 970 1343 q 1055 1373 1022 1373 l 1066 1373 q 1088 1367 1078 1373 q 1202 1454 1112 1393 q 1213 1484 1213 1472 q 1175 1508 1202 1508 l 1161 1508 q 998 1397 1100 1508 l 968 1343 m 990 1316 q 1006 1261 1001 1293 q 1080 1297 1053 1297 q 1112 1286 1095 1297 l 1112 1289 q 1066 1362 1106 1362 l 1061 1362 q 990 1316 1029 1362 m 868 1242 q 917 1128 868 1160 l 917 1126 l 909 1126 q 879 1156 899 1126 l 876 1156 l 873 1142 q 974 1063 873 1088 l 979 1063 q 1015 1082 1003 1063 l 1012 1082 l 998 1080 q 917 1145 936 1080 l 917 1172 q 933 1215 917 1185 q 906 1256 913 1231 q 892 1278 892 1258 l 903 1267 l 903 1291 l 909 1291 q 958 1218 918 1218 l 960 1218 q 996 1248 987 1218 l 996 1251 q 944 1345 996 1315 l 928 1348 l 925 1348 q 868 1256 877 1348 l 868 1242 m 993 1215 l 993 1207 q 1031 1175 993 1181 q 1099 1213 1061 1175 l 1101 1213 l 1101 1210 l 1093 1194 l 1099 1194 l 1104 1196 l 1104 1194 q 1039 1166 1059 1166 l 1020 1166 q 982 1215 987 1166 q 939 1204 971 1208 q 925 1156 925 1183 q 987 1090 938 1090 l 998 1090 q 1126 1183 1074 1090 q 1134 1221 1134 1213 q 1090 1283 1120 1283 l 1077 1283 q 998 1232 1040 1283 q 993 1215 993 1223 m 431 1109 l 429 1109 q 391 1139 409 1139 q 336 1028 336 1101 q 388 914 336 969 q 350 863 350 895 q 461 781 350 810 q 486 779 471 779 l 521 779 l 534 781 l 532 787 l 537 787 q 629 765 597 765 q 719 857 697 765 l 719 882 l 722 882 l 724 865 l 727 865 q 773 990 773 936 q 708 1063 761 1063 l 697 1063 q 643 1034 673 1063 q 532 1196 643 1145 q 502 1202 505 1202 q 431 1109 431 1202 m 521 1066 q 526 1061 526 1065 q 491 1023 500 1061 l 488 1023 l 488 1031 q 515 1066 488 1060 l 521 1066 m 529 1050 l 537 1050 q 545 1042 541 1050 l 545 1036 l 540 1039 l 534 1039 q 502 1009 502 1031 l 496 1009 q 529 1050 502 1050 m 548 1031 l 553 1031 q 532 1006 549 1006 l 532 1004 l 551 1006 l 564 1006 q 515 990 564 1002 q 445 928 484 981 l 445 933 q 510 998 445 964 l 526 1001 l 526 1004 l 521 1004 l 521 1009 q 548 1031 538 1009 m 437 1023 q 456 1012 452 1023 l 456 1009 l 453 1009 q 437 1015 444 1015 l 431 1015 q 420 998 420 1009 l 418 998 l 418 1006 q 437 1023 418 1023 m 670 1006 l 697 1006 q 722 993 722 1001 l 722 990 q 694 998 703 998 l 694 996 q 686 944 694 960 q 703 857 703 892 q 624 779 688 779 q 502 830 582 779 q 423 846 454 830 q 418 825 418 832 l 412 825 l 412 841 q 442 876 420 876 l 448 876 q 429 852 429 861 l 431 852 q 496 841 463 841 l 502 841 q 662 922 601 841 q 684 985 684 954 l 684 998 q 648 993 673 998 l 648 996 q 670 1006 648 1002 m 450 1004 q 469 993 469 999 q 434 977 434 993 l 434 971 q 429 977 429 971 l 429 990 q 450 1004 437 1004 m 190 993 q 301 901 260 969 l 301 898 l 304 898 l 304 909 q 222 998 304 972 l 195 998 q 190 993 190 998 m 14 868 q 92 762 14 794 q 109 806 94 806 l 109 803 q 103 781 103 793 l 103 773 q 152 724 109 724 q 241 808 182 724 q 255 814 250 814 l 233 784 l 247 792 l 247 789 q 220 768 247 785 q 214 757 220 764 q 222 754 217 757 q 307 844 294 754 q 193 985 307 920 q 163 993 174 993 l 160 993 q 90 955 96 955 q 141 990 112 983 l 144 990 l 144 993 l 136 993 q 16 903 54 993 q 14 868 14 880 m 548 990 q 589 949 589 987 q 529 890 589 920 q 488 884 509 884 q 456 922 456 891 q 486 968 456 941 q 548 990 520 990 m 193 982 l 195 982 l 195 979 q 133 936 190 979 l 127 936 l 127 939 q 193 982 163 977 m 461 982 l 467 982 q 431 955 467 958 l 429 960 q 461 982 461 966 m 214 971 l 214 968 q 184 906 190 909 l 182 906 l 182 911 q 214 971 199 971 m 309 968 l 309 958 l 312 958 l 312 968 l 309 968 m 312 949 l 312 941 l 315 941 l 315 949 l 312 949 m 315 939 l 315 933 l 317 933 l 317 939 l 315 939 m 643 825 l 640 825 l 640 838 q 602 803 620 838 q 600 792 600 798 l 605 789 l 627 789 q 694 863 679 789 l 694 873 q 689 882 692 882 q 643 825 658 882 m 567 746 q 464 608 567 720 q 437 537 437 569 q 483 502 451 502 l 483 510 q 469 545 469 529 l 469 553 l 472 553 q 502 513 482 513 q 602 502 587 502 q 575 494 602 494 l 510 502 q 589 412 562 435 l 629 396 q 716 502 684 433 q 757 589 736 528 q 779 703 779 651 l 779 732 l 776 732 q 684 675 744 675 l 673 675 q 567 746 612 675 m 14 613 q 79 491 14 544 q 231 450 143 450 q 336 467 275 450 l 336 469 q 298 524 298 486 q 366 597 298 573 l 380 597 q 434 575 412 597 q 450 610 450 606 q 407 659 437 645 q 233 684 368 684 q 119 694 172 694 q 16 637 37 694 q 14 613 14 623 m 621 684 q 643 659 643 679 l 643 656 q 594 567 643 604 q 578 562 585 562 l 575 562 q 548 589 548 565 l 548 605 q 591 673 548 635 q 621 684 611 684 m 556 591 q 570 570 556 576 l 572 570 q 635 654 611 570 l 635 665 q 621 675 633 670 q 556 602 587 675 l 556 591 m 727 665 q 741 637 741 659 q 675 548 720 548 q 654 581 654 548 q 705 665 654 625 l 727 665 m 662 572 q 673 559 667 560 l 678 559 q 732 640 711 559 q 722 656 727 656 l 716 656 q 662 575 682 656 l 662 572 m 244 597 l 247 597 q 279 477 247 534 q 241 572 241 511 l 241 578 l 244 597 m 309 532 l 309 521 q 355 469 309 487 l 358 469 l 358 472 q 339 513 339 502 l 339 515 q 388 564 347 564 l 396 564 q 426 545 426 561 l 429 545 q 431 559 429 554 q 388 586 417 586 l 374 586 q 309 532 309 570 m 556 382 q 567 355 567 363 q 515 312 567 321 q 472 361 488 312 l 469 361 q 456 326 456 341 q 510 279 456 290 l 524 279 q 597 331 584 279 l 597 336 q 556 385 597 370 l 556 382 m 605 347 l 605 326 q 521 269 588 269 q 450 309 469 269 q 423 274 448 309 l 429 277 l 431 277 q 331 217 417 261 q 279 136 279 180 q 401 24 279 72 q 472 14 441 14 l 488 14 q 665 149 621 14 q 675 206 672 168 q 608 347 675 290 l 605 347 m 437 233 l 467 233 q 556 206 532 233 l 591 195 l 591 193 l 586 193 q 407 220 475 220 l 393 220 l 393 225 l 412 228 l 437 228 l 437 233 m 448 228 l 448 225 q 537 212 477 225 l 540 212 l 540 214 q 467 228 488 228 l 448 228 m 543 212 l 543 209 l 548 209 l 548 212 l 543 212 z "},"O":{"ha":1647,"x_min":0,"x_max":1576,"o":"m 616 1419 q 694 1383 657 1419 q 730 1297 730 1346 q 689 1199 730 1246 l 716 1202 l 730 1202 q 901 1128 829 1202 q 898 1137 898 1134 q 971 1259 898 1230 q 1006 1264 998 1264 q 1137 1156 1097 1264 q 1139 1126 1139 1137 l 1139 1112 q 1034 987 1139 1018 l 1020 987 q 947 1015 985 987 q 952 966 952 979 q 911 841 952 902 q 743 746 866 746 q 732 722 738 746 q 863 621 732 673 q 884 608 863 618 l 884 610 l 882 621 q 1012 776 882 718 q 1107 792 1059 792 l 1109 792 q 1324 675 1272 792 q 1337 640 1335 641 q 1576 562 1480 640 l 1576 559 l 1573 559 q 1362 627 1463 627 l 1337 627 l 1337 602 q 1245 491 1337 522 q 1202 486 1234 486 l 1188 486 q 1080 499 1141 486 q 1025 480 1060 480 l 1023 480 q 947 418 1000 418 q 849 431 925 418 q 784 401 784 420 q 741 345 745 345 q 730 342 736 342 l 713 342 q 670 347 701 342 q 594 260 623 304 l 597 241 l 597 225 q 559 171 597 195 q 505 103 535 112 q 461 95 487 95 l 458 95 q 258 258 347 95 q 228 380 228 317 l 228 382 q 307 537 228 480 q 369 556 338 555 q 513 412 475 556 q 515 377 513 395 l 510 334 l 515 334 l 570 385 q 537 423 537 407 q 605 467 537 441 l 605 472 q 537 618 537 559 q 450 600 498 600 l 442 600 q 399 608 412 600 q 372 600 389 602 l 366 602 q 304 583 332 583 q 168 659 222 583 q 155 705 155 681 l 155 711 q 163 746 156 741 l 160 765 q 193 849 160 821 q 220 898 193 883 q 258 909 235 906 q 347 852 315 909 q 437 779 411 852 q 439 757 439 764 q 426 708 439 735 l 429 692 l 467 689 q 540 735 540 704 q 545 746 545 742 q 382 993 508 821 q 312 1053 338 1053 l 309 1058 q 298 1055 300 1055 q 43 1112 263 1055 q 0 1150 0 1116 q 30 1191 0 1167 q 255 1278 30 1238 q 345 1316 322 1298 l 342 1332 q 410 1405 359 1405 l 429 1405 q 461 1386 452 1405 l 461 1370 q 423 1286 461 1356 l 420 1259 l 420 1256 q 426 1204 426 1210 q 418 1164 423 1164 q 431 1099 431 1142 q 491 990 460 1038 l 496 990 q 515 1053 507 1010 q 591 1153 542 1109 q 480 1242 512 1153 q 477 1267 477 1257 l 477 1280 q 575 1413 477 1365 q 616 1419 595 1419 m 353 1335 l 353 1316 l 355 1302 l 350 1305 q 103 1232 280 1267 q 41 1196 41 1206 l 46 1196 q 203 1229 63 1209 q 220 1245 203 1237 l 220 1242 q 179 1142 179 1181 l 174 1142 l 174 1166 l 141 1169 l 119 1169 q 49 1134 49 1164 q 160 1099 49 1115 q 293 1069 250 1069 l 301 1069 q 382 1112 343 1069 l 385 1112 q 320 1061 353 1061 l 320 1058 q 345 1053 338 1053 l 350 1053 q 418 1120 397 1053 l 420 1131 q 415 1150 415 1145 l 410 1150 q 396 1131 403 1131 l 393 1131 q 415 1210 415 1171 q 401 1264 415 1241 l 404 1264 l 412 1259 q 450 1359 412 1304 l 453 1375 q 418 1397 453 1397 q 353 1335 353 1383 m 317 1232 q 391 1169 391 1217 l 391 1153 l 388 1134 l 382 1134 l 385 1147 q 331 1221 385 1204 q 274 1223 313 1223 l 274 1226 q 317 1232 298 1232 m 11 1145 q 43 1120 11 1128 l 43 1123 q 41 1134 41 1128 l 41 1139 q 125 1180 41 1173 q 174 1172 157 1177 l 193 1218 l 190 1218 q 11 1145 11 1200 m 597 1055 q 605 1006 597 1050 q 559 1020 578 1019 q 499 966 499 1010 l 499 955 q 581 811 499 878 l 578 817 l 578 827 l 581 827 q 662 743 612 743 q 743 773 688 743 l 743 770 q 730 757 743 768 l 757 757 q 898 836 842 757 l 901 854 l 901 865 q 838 928 886 928 l 838 933 q 906 1050 906 970 l 906 1058 q 846 1156 906 1128 q 830 1158 844 1156 q 792 1139 814 1158 l 789 1139 q 732 1194 789 1191 q 602 1088 644 1194 q 597 1055 599 1060 m 738 1126 q 754 1099 751 1126 q 719 993 754 1055 l 719 987 q 741 982 730 987 q 814 1099 775 1099 q 830 1085 826 1096 l 830 1055 q 776 960 830 1013 q 789 936 789 946 l 784 936 q 719 979 784 954 q 678 985 684 982 l 662 982 l 646 982 q 678 993 646 988 l 675 998 l 675 1025 q 722 1120 675 1080 q 738 1126 732 1126 m 684 993 l 689 993 l 689 1006 q 711 1039 698 1039 l 719 1039 q 724 1023 724 1039 l 727 1023 q 746 1101 746 1075 q 738 1118 743 1118 q 684 1025 703 1118 l 684 993 m 757 1012 q 773 1017 766 1017 l 776 1017 q 781 1012 781 1017 l 781 998 q 768 966 781 992 q 822 1066 822 1009 l 822 1082 q 814 1090 822 1086 q 757 1012 785 1078 m 581 977 q 591 974 585 974 l 591 968 q 564 963 564 968 q 640 854 564 907 q 732 830 682 830 q 849 871 795 830 q 825 892 825 890 l 827 892 q 871 844 871 880 q 865 838 871 838 q 854 863 865 845 q 760 808 766 816 q 665 757 707 757 l 659 757 q 581 895 597 757 q 556 960 563 916 q 529 947 533 947 l 529 949 q 581 977 543 977 m 689 974 q 770 922 770 962 l 770 906 q 724 882 760 882 q 722 879 724 879 q 643 917 678 879 l 640 936 l 640 939 q 689 974 640 974 m 201 846 l 212 792 q 193 830 205 792 l 190 830 q 171 760 171 795 q 179 711 171 749 q 165 724 177 711 l 165 703 q 260 602 165 646 q 304 594 294 594 q 353 608 349 598 q 315 670 324 608 l 315 681 q 366 741 329 741 l 380 741 q 420 719 400 741 l 423 719 q 429 760 429 745 q 336 844 429 828 l 350 830 l 345 830 q 304 868 332 830 l 307 868 q 331 849 311 868 l 336 849 l 336 852 q 269 895 307 895 l 252 895 q 201 846 201 886 m 610 814 q 665 765 610 777 l 667 765 q 713 781 684 765 l 713 784 q 678 795 688 795 q 646 787 668 795 q 665 800 654 800 q 629 819 653 819 q 610 814 628 819 m 567 784 l 562 776 l 564 776 l 570 784 l 567 784 m 895 621 l 895 600 q 925 578 905 583 q 952 600 952 578 q 1020 640 973 640 q 1107 575 1107 624 l 1107 570 q 1101 556 1107 556 l 1104 537 q 1093 507 1104 524 q 1188 496 1138 499 q 1313 562 1278 496 q 1324 616 1324 585 q 1196 768 1324 718 q 1118 779 1152 779 l 1107 779 q 911 678 979 779 q 895 621 895 648 m 255 776 l 258 776 l 309 713 l 309 711 l 307 711 q 255 768 278 728 l 255 776 m 578 743 l 575 738 l 578 738 l 581 743 l 578 743 m 570 738 l 567 732 l 570 732 l 572 738 l 570 738 m 323 678 l 323 667 q 369 610 335 610 l 385 610 l 385 613 q 355 659 355 629 l 355 662 q 382 697 355 691 l 385 697 q 420 694 419 694 q 374 732 408 732 q 323 678 332 732 m 212 719 l 217 719 q 304 678 281 678 l 304 675 l 298 675 q 212 713 254 675 l 212 719 m 1104 694 l 1107 694 q 1126 597 1126 648 l 1126 570 q 1118 548 1126 550 l 1118 591 q 1104 692 1118 640 l 1104 694 m 643 689 l 640 684 l 643 684 l 646 689 l 643 689 m 732 684 q 597 578 667 578 l 594 578 q 553 594 575 578 l 553 591 q 578 529 553 580 l 581 529 q 589 543 581 543 q 646 469 646 506 l 646 464 q 637 461 643 464 q 627 464 633 464 l 643 445 l 640 445 l 613 461 q 553 429 553 435 q 741 361 574 429 l 746 361 q 776 412 757 385 q 727 401 735 401 q 814 434 733 410 l 825 434 l 825 437 l 811 439 l 811 442 l 830 442 l 955 429 q 1015 502 1015 452 l 1015 515 q 958 575 1005 575 l 941 575 l 941 572 q 955 564 955 570 l 952 564 q 917 572 937 564 l 917 562 q 784 646 897 595 q 735 684 764 655 l 732 684 m 629 681 l 627 675 l 629 675 l 632 681 l 629 681 m 600 656 l 602 656 q 635 667 602 667 l 635 670 q 624 675 624 670 q 600 656 600 661 m 640 673 l 640 670 l 648 670 l 648 673 l 640 673 m 228 662 l 231 662 q 301 646 267 646 l 301 643 l 288 640 l 274 640 q 228 662 228 640 m 594 656 l 591 651 l 594 651 l 597 656 l 594 656 m 586 651 l 583 646 l 586 646 l 589 651 l 586 651 m 960 583 q 982 578 968 583 q 1020 602 995 602 l 1028 602 q 1099 564 1060 602 l 1099 570 q 1031 629 1099 616 l 1012 629 q 958 583 958 619 l 960 583 m 681 572 l 684 572 q 768 499 728 572 q 770 483 770 485 q 757 464 765 466 l 741 464 q 670 518 711 464 q 659 551 659 534 q 681 572 661 572 m 667 548 q 741 472 667 513 l 754 472 q 760 477 760 472 l 760 488 q 703 559 760 515 q 686 564 694 564 l 675 564 q 667 548 667 562 m 279 494 q 307 502 294 502 l 326 502 q 410 418 382 502 q 480 193 439 285 q 499 141 494 174 q 486 109 497 124 l 488 109 q 534 144 522 119 q 559 209 559 190 q 515 290 559 252 q 507 279 511 279 l 507 312 l 505 312 q 494 293 501 293 q 505 366 505 336 q 399 540 505 496 q 366 543 380 543 q 279 494 313 543 m 586 537 q 635 469 586 496 l 640 469 l 640 472 q 589 537 631 503 l 586 537 m 241 374 q 279 244 241 313 q 410 206 347 206 l 415 206 q 461 214 436 206 q 393 437 437 267 q 315 494 364 494 l 309 494 q 241 407 256 494 l 241 374 m 548 423 q 545 420 548 420 q 583 391 545 408 l 602 407 q 548 423 558 423 m 692 369 q 681 355 681 357 q 730 350 708 350 l 738 350 l 738 353 l 692 369 m 513 323 q 532 288 513 296 q 567 201 567 248 l 564 187 q 586 225 586 201 l 586 231 q 515 323 586 296 l 513 323 m 290 225 q 450 109 374 109 l 458 109 q 488 138 488 113 l 488 146 q 461 209 488 166 q 418 198 441 198 l 410 198 q 290 225 357 198 m 675 43 q 1077 16 1068 43 l 1077 14 q 1023 0 1077 0 l 722 0 q 624 11 624 0 l 624 16 l 608 16 q 540 24 563 16 l 540 27 q 675 43 540 41 m 548 30 l 548 27 q 629 22 581 22 l 643 22 l 632 11 q 735 5 668 5 l 996 5 q 1069 16 1069 5 q 770 35 1027 35 l 646 35 q 548 30 588 35 z "},"P":{"ha":1107,"x_min":0,"x_max":1055,"o":"m 450 1438 l 467 1438 q 597 1359 543 1438 q 610 1308 610 1334 l 610 1291 q 540 1183 610 1230 q 648 1101 595 1169 q 686 1012 673 1069 q 727 960 718 1012 q 635 806 727 890 l 632 806 l 632 803 l 640 803 q 746 838 713 838 l 749 838 q 814 906 765 906 q 879 939 814 924 q 901 941 894 941 q 993 895 958 941 q 1034 841 1019 884 q 1055 800 1055 825 l 1055 776 q 998 713 1055 734 l 987 711 q 963 719 966 719 q 876 697 924 697 q 800 713 854 697 q 770 722 791 713 l 770 719 q 814 583 814 672 q 830 507 825 574 q 762 439 830 476 q 724 363 748 439 q 738 350 738 351 q 909 388 863 388 q 1023 326 990 388 q 1028 301 1028 308 l 1028 279 q 941 165 1028 229 q 762 119 859 119 l 724 119 q 581 146 642 119 q 420 14 541 59 q 353 0 376 0 l 288 0 q 141 103 201 0 q 133 138 133 123 q 290 258 133 218 q 401 285 372 273 q 469 331 401 306 l 475 342 l 469 339 l 456 339 q 309 355 434 339 l 304 355 q 168 293 227 355 l 165 293 l 165 296 q 309 366 222 366 q 445 350 312 366 q 499 374 490 350 q 540 448 520 406 q 472 486 500 448 q 448 507 455 507 q 388 567 388 519 l 388 570 q 448 711 388 608 q 453 732 453 728 q 439 746 439 740 l 412 746 q 301 817 334 746 q 236 958 236 884 q 136 920 189 920 q 8 1023 54 920 q 0 1077 0 1055 q 81 1213 0 1175 l 100 1215 l 122 1215 q 233 1128 180 1215 q 255 1061 247 1105 l 258 1061 q 353 1166 282 1122 q 418 1188 393 1188 q 336 1316 336 1241 q 426 1435 336 1395 q 450 1438 441 1438 m 350 1069 q 434 911 350 955 l 434 909 q 315 844 332 909 q 312 833 312 839 q 404 757 312 779 q 429 754 419 754 l 420 768 l 423 768 q 494 724 475 724 q 575 776 528 724 q 678 865 614 789 q 716 963 716 924 q 670 1004 716 1004 q 640 1001 646 1001 l 643 1020 q 572 1156 643 1098 q 548 1164 555 1164 q 515 1101 525 1164 q 518 1093 518 1096 l 515 1093 q 407 1169 455 1169 q 350 1085 359 1169 l 350 1069 m 477 1074 q 537 944 526 1058 l 537 933 q 597 974 595 968 q 610 993 608 993 l 610 987 q 600 963 610 977 q 616 960 602 963 l 616 958 q 518 895 570 958 q 505 920 518 913 q 453 1039 453 976 l 453 1044 q 477 1074 453 1074 m 461 1044 l 461 1042 q 488 949 461 1002 l 491 949 q 502 971 491 971 q 526 939 526 957 l 529 939 l 529 947 q 486 1061 529 1001 l 477 1066 l 472 1066 q 461 1044 465 1066 m 586 1039 q 594 1036 591 1036 l 594 1028 l 589 1031 l 583 1031 q 564 990 564 1013 l 562 990 l 562 1006 q 586 1039 562 1039 m 600 1009 q 610 998 608 1006 q 570 968 582 998 q 564 960 570 960 l 564 966 q 600 1009 576 1009 m 689 960 q 700 952 700 956 l 686 952 q 692 925 690 948 q 586 792 692 848 q 537 749 579 792 q 494 735 511 735 q 420 817 453 735 q 412 830 412 823 l 410 830 l 391 811 l 391 814 q 445 857 391 846 l 450 857 l 450 852 q 420 838 433 852 l 420 836 q 510 789 458 789 l 532 789 q 678 895 618 789 l 681 922 l 681 930 q 675 952 681 942 l 670 949 l 665 949 l 665 952 q 689 960 665 960 m 627 941 l 632 941 q 659 922 659 934 l 659 903 q 594 838 659 870 q 572 833 577 833 q 537 868 537 838 q 605 939 537 907 q 627 941 616 941 m 800 887 q 798 892 800 892 q 760 838 760 869 q 768 836 765 836 q 800 841 773 836 q 873 776 873 828 l 873 768 q 833 713 873 737 q 882 708 860 708 q 1017 765 943 708 l 1017 760 l 1009 749 l 1015 751 l 1025 751 q 990 738 1025 743 q 974 727 990 732 l 974 724 l 987 722 q 1050 787 1033 722 q 1012 852 1050 812 q 1015 863 1015 857 q 949 906 987 895 l 949 909 l 952 909 l 968 906 q 898 930 944 930 q 800 887 848 930 m 841 884 l 846 884 l 846 882 q 817 841 817 850 l 814 841 l 814 854 q 841 884 820 868 m 903 876 q 836 838 903 874 q 833 836 836 836 l 830 836 l 830 838 q 903 876 867 876 m 789 830 l 789 827 q 836 779 836 808 q 792 741 820 741 l 789 741 q 760 746 770 741 l 760 743 q 811 722 779 722 q 863 765 863 730 l 863 773 q 800 833 863 817 q 789 830 795 830 m 903 836 l 909 836 l 909 830 l 863 814 l 863 817 q 903 836 880 836 m 445 792 q 494 743 466 743 q 540 765 520 743 q 510 779 540 774 l 496 776 l 502 768 l 502 760 q 445 792 471 792 m 743 749 q 749 743 744 743 l 749 749 l 743 749 m 694 743 l 694 741 l 697 741 q 705 743 703 743 l 705 746 l 703 746 q 694 743 697 743 m 665 730 l 665 727 l 667 727 q 692 738 687 738 l 692 741 l 689 741 q 665 730 669 730 m 732 741 q 640 624 713 669 q 600 613 608 613 l 570 613 l 564 616 l 564 613 q 578 548 578 581 q 524 391 578 486 l 567 385 q 705 423 636 385 q 722 480 713 480 l 722 469 q 770 524 735 479 l 770 521 q 719 453 768 502 q 716 439 719 444 l 722 439 q 819 499 781 454 l 819 510 q 811 572 819 534 l 808 572 q 803 564 808 564 l 803 589 q 732 741 803 694 m 515 713 l 515 694 l 518 694 l 518 713 l 515 713 m 741 711 l 749 711 q 795 629 780 711 q 789 624 795 624 l 787 624 q 741 700 759 624 l 741 711 m 749 705 l 749 700 q 787 629 769 629 q 789 632 787 632 q 751 705 768 705 l 749 705 m 494 703 l 494 700 l 505 692 l 505 694 l 494 703 m 507 686 l 507 684 l 513 681 l 513 684 l 507 686 m 488 597 q 496 594 494 594 q 553 613 511 602 l 532 656 l 529 656 q 488 597 505 632 m 700 648 l 711 648 q 757 567 745 648 l 757 553 q 743 532 757 538 l 741 532 q 689 621 705 532 l 689 627 q 700 648 694 648 m 703 643 q 697 627 697 634 q 735 540 697 578 q 743 537 741 537 q 749 562 749 547 q 703 643 735 643 m 551 605 l 551 602 l 556 602 l 556 605 l 551 605 m 513 594 l 513 591 q 551 559 551 588 l 551 548 q 469 505 551 505 l 469 499 q 507 486 494 486 q 564 526 564 490 q 567 548 564 529 q 551 597 567 597 l 532 597 l 513 594 m 556 494 q 510 477 543 477 l 496 477 q 545 456 515 456 l 559 494 l 556 494 m 567 323 l 572 320 q 624 355 586 334 q 637 380 635 376 l 637 382 q 583 363 583 376 q 567 323 583 357 m 743 342 q 746 331 743 336 q 724 290 743 309 l 727 290 q 825 353 789 347 q 678 236 775 323 l 678 239 q 716 285 691 259 l 713 285 q 635 260 682 260 l 624 260 q 586 269 604 260 l 586 266 q 597 217 597 247 l 597 214 q 586 157 597 191 q 743 130 652 130 q 998 236 913 130 q 1017 293 1017 262 q 949 369 1017 347 q 903 374 928 374 l 901 374 q 743 342 866 374 m 716 353 q 656 309 716 322 l 640 309 q 616 320 619 309 l 616 334 l 618 339 q 578 309 590 326 q 583 288 583 299 l 583 279 q 624 271 608 271 l 643 271 q 738 331 714 271 q 722 353 738 341 l 716 353 m 412 285 l 412 274 q 483 236 422 236 q 572 290 572 247 q 562 309 566 309 l 556 309 q 491 269 556 285 l 475 269 q 445 285 454 269 l 445 290 q 456 315 445 300 l 453 315 q 412 285 412 296 m 146 138 q 241 24 146 81 q 315 11 279 11 l 323 11 q 551 122 457 11 q 586 209 586 171 l 586 222 q 572 263 583 263 q 491 228 545 228 l 480 228 q 401 271 401 236 q 190 206 235 238 q 146 138 146 172 m 326 225 q 483 179 465 210 l 480 179 q 301 220 380 220 l 301 222 l 326 225 z "},"Q":{"ha":1095,"x_min":0,"x_max":1104,"o":"m 827 1430 q 968 1348 912 1430 q 985 1286 979 1329 q 909 1164 985 1208 q 865 1156 888 1156 l 860 1156 l 833 1158 q 863 1050 863 1104 l 863 1044 q 990 1115 915 1115 q 1101 1028 1069 1115 q 1104 998 1104 1010 l 1104 985 q 1006 838 1104 882 q 974 833 987 833 l 958 833 q 844 933 876 833 l 844 941 q 773 860 807 882 q 659 814 715 814 q 773 705 691 761 l 806 708 l 811 708 q 841 689 841 705 l 868 689 q 901 684 901 688 q 985 760 913 684 l 998 762 l 1004 762 q 1044 694 1038 762 q 968 613 1044 632 l 968 608 q 947 458 968 556 q 898 326 947 360 q 871 293 894 326 q 852 285 861 285 l 841 285 q 792 315 828 285 q 751 439 776 338 q 722 562 722 497 l 722 572 l 724 578 q 708 608 716 578 l 708 627 q 594 743 670 638 q 553 621 553 703 q 624 350 553 516 q 686 293 663 350 q 822 233 723 271 q 911 201 865 201 q 1066 285 1004 201 q 1088 347 1088 326 l 1090 347 l 1090 334 q 990 206 1090 260 q 906 187 951 187 l 887 187 q 917 117 917 146 q 817 11 917 45 q 751 0 785 0 l 711 0 q 488 136 583 0 q 475 174 475 169 q 334 138 414 138 q 103 231 191 138 q 76 290 76 265 l 76 315 q 160 399 76 372 q 198 401 183 401 l 206 401 q 334 372 243 401 q 345 393 338 384 q 323 480 328 467 q 255 545 269 509 q 290 629 267 554 l 288 635 l 288 654 q 312 749 288 707 l 312 751 l 309 751 q 277 732 291 751 q 244 689 258 727 q 152 597 229 656 q 73 505 82 506 l 57 505 q 3 586 26 505 q 0 684 3 612 q 46 784 0 703 q 109 887 61 846 q 122 960 114 887 q 195 1020 148 1020 q 239 977 239 1012 q 217 911 239 970 q 214 890 217 901 q 274 830 274 839 l 290 830 q 453 868 397 830 q 399 901 438 887 q 334 1009 334 950 q 336 1044 336 1043 q 317 1099 317 1064 l 317 1107 q 372 1164 328 1164 q 418 1101 411 1164 l 418 1085 l 429 1085 q 499 1204 429 1136 q 635 1256 562 1256 q 716 1240 667 1256 q 703 1297 703 1266 l 703 1299 q 806 1427 703 1395 q 827 1430 825 1430 m 545 1207 l 548 1213 l 548 1226 q 442 1104 471 1185 q 437 1080 437 1084 l 442 1077 q 491 1153 459 1153 q 496 1139 496 1144 q 467 1058 496 1112 q 480 1034 480 1047 q 418 1077 441 1077 q 377 1020 418 1027 l 372 1020 q 345 1028 369 1020 l 345 1004 q 448 892 345 943 q 505 882 481 882 l 524 882 q 667 958 604 882 l 662 960 l 635 960 q 656 968 637 968 l 667 968 q 727 936 720 968 q 686 955 698 954 q 643 846 671 942 q 578 808 614 808 q 496 863 549 808 q 456 879 487 873 q 483 852 456 876 l 488 854 q 556 800 549 800 q 594 792 577 792 q 670 854 631 792 q 659 822 670 849 l 662 822 q 776 879 724 833 q 795 928 795 911 l 795 939 q 727 1020 795 998 q 697 1023 709 1023 l 678 1023 q 600 1001 642 1023 l 600 1004 q 675 1196 675 1124 q 629 1245 675 1238 l 624 1245 q 548 1207 599 1245 l 545 1207 m 556 1166 q 567 1145 567 1162 q 521 1042 553 1078 l 510 1036 q 488 1061 488 1036 l 488 1063 q 543 1166 488 1123 l 556 1166 m 496 1055 q 499 1047 499 1050 l 505 1047 l 505 1058 q 526 1090 505 1075 l 537 1090 l 537 1085 l 540 1085 q 559 1145 559 1134 l 559 1153 q 553 1158 559 1158 q 496 1069 519 1158 l 496 1055 m 448 1074 l 453 1072 q 469 1096 460 1096 l 477 1096 q 488 1145 488 1128 l 483 1145 q 448 1074 469 1145 m 125 901 q 127 898 127 901 l 133 901 l 136 901 q 60 795 71 841 l 65 798 l 65 795 q 8 665 8 704 l 8 659 l 11 659 q 46 732 11 680 q 54 757 49 757 l 54 732 q 76 627 54 681 l 73 627 l 57 648 q 33 567 33 603 l 33 562 q 65 513 35 513 q 122 583 79 513 l 225 678 q 247 722 247 713 l 239 722 q 165 787 188 722 l 165 795 l 157 795 q 87 708 111 795 l 84 708 l 84 724 q 163 803 103 803 l 165 803 q 225 860 165 854 l 228 865 q 176 898 194 898 l 176 901 l 190 901 q 206 895 197 901 l 228 985 q 198 1009 214 1009 q 125 901 125 995 m 581 838 l 578 838 l 578 846 l 586 863 l 581 863 q 534 841 550 863 q 578 819 554 819 l 589 819 q 646 884 625 819 l 643 884 q 581 838 614 884 m 174 800 q 239 730 174 748 l 241 730 q 274 746 261 730 q 212 798 212 746 l 212 803 q 228 827 212 819 l 258 827 q 263 833 263 827 q 225 852 242 852 q 174 806 189 852 l 174 800 m 388 827 l 382 819 l 385 819 l 391 827 l 388 827 m 377 819 q 361 800 361 802 l 363 800 l 380 819 l 377 819 m 298 656 l 298 654 q 307 591 298 616 l 301 591 l 296 610 l 293 610 q 266 540 290 584 q 391 475 323 475 l 401 475 q 388 513 394 489 q 347 537 353 527 l 347 540 q 388 524 377 524 l 385 529 l 385 548 l 388 548 q 404 496 396 518 q 420 502 413 502 q 572 456 459 502 q 543 602 543 542 l 543 629 q 551 700 543 654 q 412 792 494 792 l 399 792 q 307 713 334 792 q 298 656 298 685 m 583 762 l 583 760 l 589 757 l 589 760 l 583 762 m 361 762 q 369 754 365 762 l 369 743 q 328 656 369 694 q 309 678 309 656 q 353 762 324 762 l 361 762 m 317 675 l 317 670 q 323 665 318 665 l 326 665 q 363 751 363 707 l 355 757 q 317 675 317 726 m 439 757 q 464 722 464 757 q 418 640 452 640 q 396 675 396 648 q 439 757 396 743 m 952 711 q 955 703 955 705 q 920 684 924 684 l 920 678 q 930 673 930 678 l 928 673 q 863 681 892 678 q 732 575 756 681 l 732 548 q 776 401 732 513 q 811 315 795 315 l 822 315 q 854 399 854 337 q 846 445 854 418 q 838 442 841 442 q 830 445 833 445 l 830 448 q 922 477 849 448 l 922 475 l 917 467 l 917 458 q 898 336 917 409 q 944 502 922 336 q 960 610 952 520 l 939 610 l 939 613 q 958 616 949 616 l 952 624 q 1034 700 1034 631 q 1001 751 1028 751 q 952 711 982 751 m 404 681 q 418 648 404 661 l 420 648 q 456 727 456 679 q 445 749 451 749 l 437 749 q 404 681 404 721 m 14 608 l 14 605 q 19 564 14 590 l 22 564 q 57 656 22 617 q 46 713 49 690 q 14 608 14 669 m 716 613 q 727 591 721 591 q 800 678 727 640 q 833 686 818 686 q 808 700 826 700 q 719 632 755 700 q 716 613 716 621 m 822 662 l 827 662 q 876 570 876 635 q 854 515 876 536 l 854 518 q 865 564 865 543 l 865 578 q 822 662 865 623 m 410 491 q 494 439 410 459 l 494 442 q 461 486 484 486 q 420 494 448 491 q 410 491 416 491 m 854 445 q 863 410 863 432 l 863 382 q 825 301 863 330 q 846 293 842 293 q 909 464 892 293 q 854 445 896 455 m 412 461 q 458 382 434 382 q 494 339 479 373 l 505 334 q 529 350 516 350 q 496 429 518 370 q 412 461 460 429 m 87 301 q 250 160 87 219 q 328 152 300 152 q 469 187 416 152 q 467 228 469 194 q 502 301 467 281 l 499 307 l 499 317 l 502 323 l 488 331 q 434 296 488 301 l 429 296 q 334 353 363 296 q 296 372 334 368 q 198 391 260 385 q 90 315 112 391 l 87 301 m 345 366 l 345 361 q 429 307 345 319 l 442 307 q 483 336 472 307 q 445 377 483 355 l 445 374 l 450 361 q 415 339 450 342 q 353 382 353 351 q 345 366 345 380 m 301 355 l 307 355 q 391 266 391 298 q 307 347 359 304 l 301 355 m 507 312 q 600 260 530 260 q 670 301 670 266 q 627 339 670 326 q 632 317 632 329 l 632 315 q 608 301 632 307 l 600 301 q 532 342 551 301 q 507 312 507 329 m 502 293 q 477 231 477 265 q 618 38 477 113 q 730 14 669 14 q 901 98 876 24 q 903 119 903 109 q 730 258 903 199 l 675 288 q 602 250 659 250 q 502 293 543 250 m 694 247 q 757 239 736 243 l 757 236 l 719 239 q 543 203 630 239 l 543 206 q 694 247 596 247 z "},"R":{"ha":993,"x_min":0,"x_max":955,"o":"m 494 1337 l 499 1337 q 637 1253 583 1337 q 651 1191 651 1221 q 572 1063 651 1105 q 545 1058 564 1058 l 545 1055 q 640 920 606 1022 q 646 873 646 886 q 629 798 646 839 q 684 673 661 751 q 705 540 697 612 q 722 510 722 524 l 722 499 q 681 363 703 395 q 643 328 667 349 q 618 274 618 277 l 621 274 q 665 239 640 269 q 887 206 699 220 q 955 165 945 189 l 955 149 q 898 109 955 120 l 898 114 q 949 155 931 114 q 849 201 939 192 q 711 209 753 203 q 743 144 743 168 l 743 130 q 632 16 743 72 q 556 0 583 0 l 483 0 q 309 71 382 0 l 277 71 q 100 149 172 71 q 90 195 90 176 q 255 301 90 286 q 285 304 270 301 q 255 353 255 327 q 309 431 255 385 l 309 445 q 339 524 309 475 q 377 583 339 551 l 385 608 q 363 605 370 605 q 258 651 285 605 l 258 681 l 260 686 q 182 846 182 743 q 187 892 182 858 q 125 865 147 865 l 109 865 q 5 960 37 865 q 0 996 0 972 l 0 1017 q 81 1142 0 1105 l 98 1145 l 117 1145 q 225 1006 206 1145 l 225 996 q 353 1080 299 1071 l 377 1096 l 385 1096 l 410 1093 q 420 1096 414 1096 q 372 1204 372 1145 q 437 1321 372 1279 q 494 1337 465 1337 m 385 1058 q 361 971 361 1029 l 361 955 q 410 895 410 916 q 434 803 434 849 q 431 800 431 803 q 456 792 456 798 l 448 792 q 320 743 380 792 l 320 746 q 339 765 320 756 l 339 768 q 282 852 311 768 q 255 909 282 881 q 231 955 241 926 l 228 955 q 217 887 217 911 q 298 724 217 809 q 266 667 269 692 q 361 618 276 618 l 363 618 q 496 654 440 618 l 491 654 l 491 656 q 578 694 578 675 l 578 703 q 562 719 570 719 l 562 722 l 570 722 l 575 719 l 575 722 q 567 770 567 751 l 567 773 q 594 808 570 808 l 610 808 l 616 806 l 616 808 q 564 830 609 829 q 499 817 533 830 l 502 854 q 404 1053 502 975 l 385 1058 m 363 903 q 385 819 369 844 l 404 795 l 410 798 l 426 798 l 426 800 q 407 887 426 832 l 404 887 q 393 884 398 887 q 363 903 382 887 m 285 876 q 334 776 285 838 q 342 770 342 776 q 358 784 358 776 q 345 833 358 798 l 331 830 q 285 876 326 830 m 347 841 q 369 784 360 819 q 393 792 384 792 q 366 841 366 830 l 347 841 m 423 770 q 461 738 461 767 q 407 684 461 711 q 372 678 382 678 l 355 678 q 323 705 323 684 l 323 708 q 404 770 323 754 l 423 770 m 526 694 l 543 694 q 548 689 548 694 l 548 684 q 499 670 548 673 l 496 675 l 496 681 q 526 694 506 694 m 597 670 l 597 665 q 600 656 600 659 l 602 656 l 602 659 q 600 670 600 664 l 597 670 m 602 654 l 602 648 l 605 648 l 605 654 l 602 654 m 608 618 q 499 570 556 570 l 494 570 q 431 591 463 570 q 423 562 431 580 q 439 567 432 567 q 445 562 445 566 l 445 551 q 401 461 445 504 l 396 461 q 388 491 388 461 q 290 396 359 455 l 288 391 q 391 339 300 391 q 448 326 428 326 l 450 331 q 382 374 422 331 q 374 393 374 388 q 458 339 425 339 q 515 374 498 374 q 458 323 479 349 q 505 309 458 318 q 605 274 572 274 l 629 323 l 627 323 q 600 317 614 317 l 597 323 q 689 401 645 323 l 686 401 q 643 372 663 372 l 635 372 q 589 483 589 406 l 589 510 q 602 548 589 526 q 540 496 572 540 q 510 423 510 446 q 505 429 505 423 l 505 442 q 486 472 491 442 q 540 564 503 564 l 548 564 q 562 537 557 564 q 613 559 579 553 l 618 564 q 608 618 615 618 m 347 526 q 410 559 373 549 l 418 578 l 412 578 q 347 526 367 578 m 434 562 q 393 477 393 511 q 396 469 396 472 l 399 469 q 439 559 439 511 l 434 562 m 494 472 q 507 448 494 455 q 553 532 509 471 l 553 540 q 540 559 553 555 q 494 472 514 559 m 605 526 q 662 464 616 464 l 667 464 q 716 502 703 464 q 703 529 716 517 q 686 496 703 506 l 670 496 q 618 556 627 496 q 605 526 606 547 m 317 445 l 317 437 q 407 551 387 494 q 331 488 357 534 q 317 445 317 458 m 597 507 l 597 491 q 637 380 597 420 q 697 437 667 380 q 708 469 703 445 q 670 456 684 456 l 659 456 q 600 507 618 456 l 597 507 m 635 458 l 637 458 l 637 450 q 621 420 627 420 l 616 420 l 616 423 q 635 458 635 455 m 656 448 l 659 448 l 659 439 q 648 399 659 433 l 640 399 l 640 401 q 656 448 640 406 m 678 448 q 684 442 684 447 q 675 412 684 412 l 673 412 q 678 448 678 439 m 429 320 l 429 312 q 388 279 429 286 l 374 279 q 312 293 349 279 l 312 290 q 391 258 334 258 q 393 255 391 255 q 442 266 423 258 l 439 285 l 439 293 l 442 320 l 429 320 m 100 195 q 206 95 100 135 q 304 84 235 84 q 290 133 290 108 q 363 228 290 196 l 363 231 q 266 282 321 262 l 266 285 l 274 285 q 317 269 284 285 l 317 271 q 298 298 300 284 l 176 277 q 109 220 125 256 q 100 195 100 200 m 605 263 q 613 244 613 253 l 613 233 q 575 212 600 212 l 545 212 q 496 222 526 212 q 583 182 534 182 l 591 182 q 654 217 638 182 l 654 228 q 613 266 654 254 q 605 263 608 263 m 396 247 l 391 247 q 350 252 376 247 l 372 233 q 434 239 401 239 l 469 239 q 448 258 454 258 q 396 247 426 247 m 304 138 l 304 133 q 450 16 304 47 q 510 11 473 11 l 521 11 q 724 109 654 11 q 732 144 732 130 q 662 228 732 180 q 589 171 662 171 q 545 179 556 174 l 543 179 l 543 176 q 600 133 573 163 l 600 130 l 597 130 q 448 217 519 184 l 448 220 l 453 220 q 502 201 482 212 l 502 203 q 483 231 483 218 q 334 195 368 231 q 304 138 304 167 z "},"S":{"ha":1245,"x_min":0,"x_max":1213,"o":"m 928 1310 q 1039 1215 1010 1310 l 1044 1180 q 1039 1142 1041 1145 q 1147 1058 1108 1120 q 1172 960 1172 1007 l 1172 930 q 1169 906 1172 921 q 1180 873 1180 888 l 1180 852 l 1177 838 q 1213 789 1213 792 l 1213 754 q 993 629 1213 713 q 876 556 921 594 l 876 553 q 819 374 876 470 l 822 374 q 884 317 868 350 q 903 285 898 317 l 903 282 q 887 247 903 265 q 1009 239 887 243 q 1115 119 1115 203 q 960 0 1115 33 l 903 0 q 675 81 817 0 q 624 146 627 124 q 415 87 509 87 q 195 187 262 87 q 187 225 187 210 q 193 255 187 232 l 179 255 q 5 290 50 255 q 0 307 0 299 q 76 339 0 339 l 84 339 l 84 334 l 79 334 q 11 309 26 334 l 11 301 q 146 269 39 269 l 203 269 q 336 334 248 334 l 345 334 q 401 328 368 334 l 401 342 q 456 388 401 369 q 472 407 456 407 q 627 524 564 436 q 659 583 657 566 l 656 583 q 496 545 594 583 l 496 532 q 562 488 551 532 l 562 475 q 488 429 545 429 l 467 429 q 412 445 440 429 q 312 429 379 429 q 296 426 312 426 l 277 426 q 168 350 200 350 q 146 342 168 345 q 106 401 106 351 l 106 412 l 109 445 q 65 426 84 426 l 57 426 q 30 458 35 426 q 141 570 30 523 q 293 591 201 591 l 331 591 q 412 613 348 606 q 643 667 570 667 q 618 724 639 695 q 597 836 597 768 l 597 860 l 600 865 q 534 846 562 846 q 429 979 450 846 l 429 1017 q 534 1153 429 1117 l 553 1153 q 648 1074 620 1153 q 656 1020 654 1048 q 654 1009 654 1015 l 654 985 l 651 979 l 654 979 q 800 1061 728 1061 q 819 1080 813 1065 q 830 1085 826 1085 q 814 1164 814 1127 l 814 1177 q 901 1308 814 1267 l 928 1310 m 857 1047 q 901 1012 857 1022 q 996 1066 941 1012 l 996 1061 q 993 1047 993 1057 q 1001 1044 998 1044 q 1015 1069 1015 1065 l 1020 1069 l 968 958 q 963 928 963 943 q 985 898 963 909 q 1074 979 1016 950 q 1006 914 1074 975 q 993 882 993 899 l 993 876 q 1034 833 993 850 l 1042 833 l 1042 836 l 1025 838 l 1025 841 q 1090 854 1056 841 l 1090 852 q 1055 836 1090 844 l 1055 833 q 1090 827 1080 827 l 1099 827 q 1161 925 1147 827 q 1164 949 1161 939 q 1006 1145 1164 1096 q 979 1156 994 1156 q 914 1099 956 1156 q 857 1047 873 1072 m 800 987 q 749 1017 774 1017 l 743 1017 q 678 925 696 1017 q 673 876 673 911 l 673 849 q 692 754 673 795 q 648 686 648 720 q 757 608 648 638 q 781 605 767 605 l 781 610 l 787 610 q 808 591 787 595 q 879 624 834 593 l 882 624 l 879 618 l 879 616 q 1006 713 972 648 q 1012 743 1012 742 q 963 800 1012 780 q 966 803 963 803 q 906 1001 966 936 q 854 1031 854 1014 q 846 1053 853 1031 q 803 987 830 1053 l 800 987 m 982 1042 q 949 1017 969 1026 q 971 996 949 1014 l 996 1039 l 982 1042 m 844 963 l 854 963 q 887 884 887 939 l 887 857 q 879 808 887 838 q 909 798 909 804 l 876 800 l 868 800 q 762 762 820 800 l 762 765 q 784 784 774 784 q 754 865 754 819 l 754 890 q 781 939 754 933 q 822 833 810 939 l 822 808 l 819 803 l 822 803 l 841 806 q 825 890 825 852 l 825 909 q 844 963 825 953 m 833 903 l 833 860 l 836 860 q 838 884 836 874 l 846 884 q 860 854 856 884 l 860 841 l 857 827 l 849 827 l 841 833 l 841 830 q 854 808 850 808 l 868 808 q 879 865 877 808 l 879 868 q 849 958 879 936 q 833 903 833 945 m 762 884 l 762 871 q 792 789 762 821 q 814 817 814 794 l 814 830 l 811 830 q 803 817 811 817 l 800 817 q 789 841 789 820 l 789 857 q 798 873 791 873 l 803 873 q 808 863 808 873 l 811 863 l 811 868 q 781 930 798 922 q 762 884 762 921 m 1164 887 q 1107 819 1164 847 l 1080 819 q 1050 827 1068 819 l 1050 825 q 1088 795 1050 799 l 1104 795 q 1172 857 1172 808 l 1172 860 l 1169 887 l 1164 887 m 811 860 l 811 849 l 814 849 l 814 860 l 811 860 m 1028 825 l 1028 800 q 1020 760 1028 781 q 1023 749 1023 755 l 1023 741 l 1025 741 q 1085 776 1060 756 q 1055 795 1085 785 q 1039 822 1044 806 q 1028 825 1034 825 m 865 792 q 911 757 911 787 q 825 700 911 709 l 817 700 q 776 730 776 705 l 776 741 q 863 792 776 777 l 865 792 m 1096 757 l 1096 754 l 1101 751 l 1101 754 l 1096 757 m 849 637 l 854 629 q 825 608 844 608 l 811 608 l 811 618 q 849 637 811 630 m 350 591 l 350 589 q 456 534 456 561 l 461 532 l 488 532 q 399 600 488 584 l 391 600 q 350 591 379 600 m 871 594 l 871 575 l 873 575 l 873 594 l 871 594 m 670 586 l 670 583 l 692 583 l 692 586 l 670 586 m 244 559 l 244 562 q 274 578 260 578 l 274 581 l 263 581 q 52 491 124 581 q 41 453 41 465 q 52 437 46 437 l 62 437 q 133 502 109 437 q 182 543 168 543 q 117 404 117 483 q 138 353 117 366 l 160 353 l 160 355 q 141 388 141 375 l 141 404 q 241 526 141 488 l 258 529 l 260 529 l 260 526 q 184 483 230 525 q 149 393 149 439 q 174 363 152 363 q 285 448 195 363 q 317 461 310 461 l 288 434 l 298 434 l 312 437 l 312 439 q 304 445 304 439 q 345 439 338 439 q 401 450 358 439 l 401 453 q 393 469 393 464 q 464 439 430 439 l 480 439 q 553 486 553 448 q 448 524 553 524 q 431 532 447 529 l 431 537 l 450 534 q 372 572 408 572 q 298 556 356 572 q 353 578 298 568 l 353 581 q 323 583 347 581 q 244 559 302 583 m 659 559 q 477 396 612 451 l 467 396 l 467 393 q 548 312 467 354 q 594 301 573 301 l 602 301 q 624 309 623 301 q 567 323 616 309 l 567 326 l 572 326 q 643 317 615 317 l 673 317 q 730 326 701 317 q 697 312 730 317 l 697 307 l 703 307 l 703 304 l 692 304 q 651 307 685 304 q 681 288 666 288 q 838 336 715 288 q 854 345 854 340 q 808 366 817 366 q 795 353 808 363 l 792 353 q 865 532 857 450 l 863 532 q 770 499 817 499 l 768 499 q 667 551 703 499 q 665 559 665 556 l 659 559 m 703 502 q 724 469 724 492 q 667 382 707 382 l 665 382 q 637 420 637 382 q 684 499 637 462 q 703 502 694 502 m 646 412 q 667 391 650 391 l 670 391 q 713 475 713 422 l 713 483 q 703 494 713 487 q 646 412 665 494 m 819 491 q 830 480 823 491 l 830 467 q 779 385 817 385 q 760 410 760 391 q 808 491 760 465 l 819 491 m 768 412 l 768 404 q 781 393 773 393 q 822 464 822 423 q 825 467 825 464 q 817 483 821 483 q 768 412 785 483 m 857 336 l 857 334 q 865 331 860 334 l 865 334 l 860 336 l 857 336 m 198 222 q 350 106 198 147 q 418 100 391 100 q 624 163 521 100 q 665 214 624 186 l 665 217 q 605 285 665 251 q 537 250 587 250 l 524 250 q 472 258 488 250 l 469 258 l 469 255 q 507 220 477 255 l 507 217 q 388 298 474 245 l 393 298 q 445 274 407 293 q 404 315 445 292 q 350 326 395 320 q 206 255 258 326 q 198 222 198 233 m 613 290 q 667 244 644 280 l 675 225 q 713 258 682 225 q 781 285 781 275 q 751 293 772 285 q 692 279 712 279 l 678 279 q 640 307 655 279 l 632 307 q 613 290 613 293 m 567 296 q 515 277 555 277 q 445 290 487 277 q 526 258 445 264 q 600 293 587 258 q 567 296 575 293 m 700 231 l 700 225 q 773 190 700 196 l 789 190 q 860 225 835 190 l 857 225 q 795 209 828 209 l 789 209 q 738 231 753 209 l 738 244 l 751 260 q 700 231 700 245 m 876 239 q 781 179 848 179 q 689 220 718 179 q 635 157 635 187 q 830 24 635 93 q 909 11 876 11 l 936 11 q 1096 92 1044 11 q 1104 122 1101 105 q 1004 228 1104 191 q 876 239 913 234 m 933 217 l 936 217 l 936 214 q 787 144 846 191 l 784 144 q 892 212 796 174 q 933 217 918 217 z "},"T":{"ha":1021,"x_min":0,"x_max":982,"o":"m 665 1343 q 803 1245 754 1343 q 811 1191 811 1212 q 724 1080 811 1099 q 700 1077 714 1077 l 684 1077 l 678 1080 l 678 1077 q 751 909 751 1004 q 762 882 759 909 l 762 876 q 675 732 762 811 q 784 697 703 720 q 830 618 830 678 l 830 605 q 849 578 842 593 q 968 521 935 559 q 982 491 982 500 l 982 450 q 887 363 982 398 l 879 363 q 814 372 840 363 l 814 369 q 806 350 806 359 q 825 298 817 350 q 920 203 839 278 q 963 100 963 159 q 857 0 963 15 l 795 0 q 724 16 764 0 q 654 0 684 0 l 605 0 q 439 117 517 0 q 404 239 404 186 q 442 320 404 295 q 450 347 442 332 l 399 347 q 282 426 310 347 l 282 429 q 133 353 181 429 q 127 323 127 330 q 130 258 130 262 q 57 138 130 189 q 11 127 30 127 l 0 127 l 0 130 q 114 222 76 130 q 119 252 119 241 q 117 331 117 322 q 179 418 117 374 q 279 448 213 431 q 393 602 279 513 q 464 686 442 654 l 464 689 q 355 741 422 689 q 336 792 336 770 q 304 903 304 840 l 304 944 l 307 958 l 304 958 q 247 941 273 941 l 236 941 q 136 1034 163 941 q 133 1063 133 1057 q 231 1221 133 1162 q 274 1229 260 1229 l 282 1229 q 372 1164 347 1229 q 377 1134 377 1153 l 377 1104 l 374 1085 q 526 1142 448 1142 q 564 1137 541 1142 l 564 1139 q 540 1215 540 1175 q 640 1340 540 1303 q 665 1343 654 1340 m 469 1072 q 426 1088 441 1088 l 420 1088 q 355 982 355 1074 l 355 966 q 393 830 355 907 q 347 784 347 814 q 418 713 347 746 q 505 694 467 694 l 488 711 l 494 711 q 586 673 551 673 q 670 757 637 673 l 675 760 l 675 757 l 670 743 l 673 743 q 754 882 754 822 q 681 933 738 933 q 656 928 677 933 l 656 933 q 562 1123 656 1056 q 537 1128 544 1128 l 529 1128 q 469 1072 494 1128 m 518 1047 l 529 1047 q 572 936 566 1047 l 570 911 q 594 901 594 907 l 575 903 q 461 846 514 903 l 461 852 q 477 876 466 863 q 431 979 431 905 q 448 1015 437 1015 l 458 1015 q 507 895 479 1015 q 532 909 532 905 q 502 1006 502 956 q 518 1047 505 1042 m 510 1006 q 543 909 510 952 q 534 936 534 923 l 534 939 q 543 955 536 955 q 562 941 562 955 l 564 941 l 564 949 q 524 1042 554 1042 q 510 1006 513 1042 m 439 977 q 486 879 439 910 l 488 884 q 472 917 472 894 q 483 933 472 933 q 491 930 488 930 l 491 933 q 453 1009 469 1003 q 439 977 443 1009 m 562 892 q 605 852 605 892 q 575 817 595 825 q 524 798 543 798 l 502 798 q 469 825 469 800 l 469 833 q 562 892 469 875 m 667 873 l 678 873 q 711 857 701 873 l 708 857 q 681 865 703 857 q 656 798 673 829 q 616 697 642 697 q 578 686 612 690 q 472 746 541 686 q 410 773 442 757 q 391 754 410 769 l 391 765 q 437 795 408 795 q 418 781 437 788 l 418 779 q 507 751 467 751 l 534 751 q 673 860 635 751 l 673 865 l 670 865 q 643 863 667 865 q 667 873 646 873 m 583 713 l 583 716 l 589 735 l 583 735 q 543 711 557 735 l 543 708 q 581 694 543 701 q 640 757 629 694 l 640 760 q 583 713 613 754 m 659 678 l 659 662 l 662 662 l 662 678 l 659 678 m 735 646 l 735 637 l 738 637 l 738 646 l 735 646 m 662 640 q 635 540 662 606 l 673 540 q 700 575 691 540 q 735 608 704 581 l 735 618 q 662 640 692 636 m 524 632 l 521 627 l 524 627 l 526 632 l 524 632 m 507 605 l 496 589 l 502 591 l 515 591 q 581 578 564 578 q 627 545 610 562 q 643 591 643 585 l 640 591 q 602 583 623 583 l 581 583 q 507 605 546 583 m 700 556 q 811 581 736 581 q 838 578 835 578 q 792 605 838 595 l 773 605 q 700 556 728 605 m 477 564 l 499 564 q 502 570 499 570 q 537 529 530 570 q 521 494 537 515 l 529 469 l 532 469 q 564 518 564 489 l 564 534 q 513 586 554 586 q 477 564 492 586 m 556 575 l 556 572 q 572 532 572 551 l 572 521 q 540 467 572 487 q 570 396 540 437 l 570 393 q 540 434 556 393 l 540 437 l 537 437 l 537 434 q 562 372 553 372 l 586 358 q 594 407 586 378 l 597 407 l 597 404 q 594 350 594 368 q 632 312 619 312 q 651 298 632 309 l 654 298 q 667 385 667 332 q 572 572 667 529 q 556 575 570 572 m 684 510 l 684 499 q 762 458 684 471 q 798 445 779 445 q 825 464 815 445 l 825 477 q 757 537 825 529 q 773 543 757 543 l 768 551 l 770 551 q 814 524 775 549 q 836 534 825 534 q 819 515 819 517 q 833 477 833 492 l 833 469 q 787 431 833 441 q 814 401 792 401 q 903 488 849 401 q 909 518 909 499 q 892 548 909 530 l 892 551 l 895 551 q 917 510 917 536 l 917 507 q 836 396 917 466 q 811 393 825 393 q 841 374 821 374 q 936 445 881 374 q 949 491 949 467 q 863 564 949 551 q 795 572 840 570 q 686 529 717 572 l 684 510 m 290 445 q 388 358 290 376 q 418 355 398 355 l 423 355 q 401 412 401 378 l 401 426 q 420 475 402 447 l 393 477 q 345 461 389 477 l 345 467 q 377 477 372 477 l 377 480 l 372 480 l 355 477 q 374 486 355 484 q 350 532 350 509 q 358 559 350 543 l 355 559 q 290 445 290 498 m 467 556 l 461 548 l 464 548 l 469 556 l 467 556 m 654 529 l 640 529 l 640 526 q 673 412 673 473 l 678 412 l 703 467 l 700 467 q 675 502 675 476 l 675 507 q 681 532 675 514 l 678 532 q 654 529 663 529 m 944 529 q 958 488 952 516 q 868 374 958 425 l 868 372 l 873 372 q 963 426 917 372 q 977 464 977 446 l 977 475 q 947 529 977 505 l 944 529 m 477 513 l 477 510 q 502 507 500 510 l 505 507 l 505 510 l 494 513 l 477 513 m 445 496 q 475 507 465 507 l 475 510 l 469 510 q 445 496 445 502 m 439 496 l 437 491 l 439 491 l 442 496 l 439 496 m 380 483 l 380 480 l 385 480 l 385 483 l 380 483 m 532 461 l 532 456 l 534 439 l 537 439 l 537 448 l 534 461 l 532 461 m 445 434 l 445 423 l 448 423 l 448 434 l 445 434 m 675 385 l 675 380 q 711 410 711 394 q 719 423 713 410 l 694 423 q 675 385 687 423 m 724 420 q 713 396 724 410 l 713 393 q 732 420 718 394 l 724 420 m 448 415 l 448 407 l 450 407 l 450 415 l 448 415 m 675 366 l 675 353 q 673 328 675 343 q 768 269 707 269 q 814 309 814 269 l 814 312 q 798 345 814 334 q 787 320 790 320 l 789 315 q 773 307 787 307 l 765 307 q 703 363 703 322 l 711 382 l 705 382 q 675 366 675 374 m 420 374 q 448 355 429 355 l 461 355 q 456 380 456 368 l 453 380 q 420 374 420 379 m 562 361 q 578 320 578 326 l 581 320 l 581 326 l 583 326 l 583 317 q 543 296 583 304 l 529 296 q 461 347 495 296 q 453 328 453 337 l 453 323 q 537 252 453 271 l 548 252 q 610 293 610 258 l 610 298 q 562 361 610 336 m 667 312 l 662 293 l 781 233 q 838 222 838 233 q 787 228 809 228 q 830 146 830 187 l 830 136 q 746 27 830 68 l 743 27 l 743 22 q 830 8 789 8 q 947 73 920 8 q 952 109 952 100 q 844 258 952 175 q 822 290 822 286 q 773 260 800 260 l 762 260 q 667 312 712 260 m 415 247 l 415 244 q 534 35 415 124 q 632 11 585 11 q 781 65 707 11 q 817 138 817 101 l 817 146 q 659 282 817 222 q 618 307 658 285 l 621 293 q 559 244 607 244 l 537 244 q 445 309 475 244 q 415 247 415 292 m 675 250 l 686 250 l 686 247 q 518 157 614 239 l 518 160 q 618 236 567 216 q 675 250 654 250 z "},"U":{"ha":3869,"x_min":0,"x_max":3792,"o":"m 1161 1061 q 1215 1044 1215 1057 q 1221 1020 1221 1027 l 1221 985 q 1223 955 1221 973 q 1090 567 1147 631 q 1077 502 1077 543 l 1077 499 l 1080 499 q 1109 553 1095 553 q 1196 643 1139 619 q 1245 656 1217 654 q 1299 610 1284 656 l 1299 578 q 1215 410 1299 507 q 1183 391 1194 404 q 1264 339 1230 339 l 1272 339 q 1332 374 1299 339 l 1329 393 l 1329 396 q 1424 667 1329 549 q 1473 694 1452 691 q 1538 646 1538 684 l 1538 629 q 1427 380 1538 501 q 1397 358 1412 374 q 1454 331 1408 334 l 1459 331 q 1568 442 1526 331 q 1590 681 1575 681 q 1603 694 1590 684 l 1609 694 q 1633 665 1626 683 q 1606 396 1606 469 q 1619 328 1609 330 q 1668 426 1629 328 q 1723 621 1701 500 q 1769 716 1723 659 l 1782 716 q 1799 692 1799 708 l 1799 689 q 1790 637 1799 680 q 1793 591 1793 609 q 1769 412 1783 591 q 1747 157 1756 355 l 1750 152 l 1747 136 l 1747 111 q 1755 43 1748 57 q 1744 0 1752 0 l 1723 0 q 1709 60 1712 0 l 1709 133 q 1739 507 1709 232 l 1739 510 l 1736 510 q 1638 269 1670 269 q 1614 260 1638 262 l 1598 260 q 1568 350 1568 284 l 1565 350 q 1435 269 1519 269 q 1354 317 1378 269 l 1351 317 q 1280 266 1333 283 l 1264 266 q 1101 415 1176 266 l 1099 415 q 1082 334 1088 384 q 1090 307 1085 307 q 1072 255 1090 264 l 1055 255 q 1034 312 1048 255 q 1028 317 1028 312 q 1034 336 1030 336 l 1028 374 q 895 282 954 282 l 884 282 q 800 347 827 282 l 798 347 q 722 266 777 297 l 689 260 q 586 317 637 260 q 494 206 556 206 q 388 665 388 206 q 391 792 391 730 l 391 798 l 388 798 q 293 358 323 568 q 260 247 280 247 l 247 247 q 214 488 224 247 q 209 502 212 488 q 212 510 209 505 q 198 773 203 749 q 106 431 161 718 q 92 301 92 338 l 92 290 q 65 269 79 269 l 60 269 q 41 423 41 269 q 33 621 38 549 q 35 659 33 625 q 8 678 8 666 q 11 760 8 690 l 0 887 q 30 914 0 914 q 68 884 68 906 q 71 860 71 874 l 71 803 q 76 524 71 617 l 79 524 q 157 814 113 696 q 209 871 180 871 q 241 817 237 871 l 241 700 q 255 426 241 600 l 258 426 q 372 879 320 758 q 404 925 378 925 q 429 892 429 917 q 431 871 429 886 l 426 621 q 475 282 426 387 q 496 271 486 271 q 553 350 524 271 l 562 377 q 543 483 548 409 q 586 662 550 662 q 608 640 601 657 q 589 510 608 592 q 586 469 586 476 q 700 328 618 328 q 784 399 747 328 q 779 458 779 422 q 873 713 779 618 q 917 730 889 725 l 928 727 q 949 730 943 730 q 1001 643 969 730 l 1001 640 q 982 583 1001 611 l 968 583 q 949 637 958 583 q 914 667 929 667 q 827 551 865 667 q 819 510 825 545 l 825 442 q 822 434 822 437 q 895 345 839 345 q 1017 439 954 345 q 1025 456 1021 456 l 1023 480 q 1107 968 1023 720 q 1161 1061 1133 1027 m 1069 627 l 1069 624 l 1072 624 q 1147 811 1118 711 q 1180 985 1180 940 l 1177 998 q 1090 779 1151 998 q 1069 627 1082 734 m 2390 906 q 2417 873 2417 896 q 2414 591 2417 812 q 2466 258 2414 349 q 2477 252 2470 258 l 2482 252 q 2550 369 2523 252 l 2550 372 q 2531 475 2531 418 q 2637 662 2531 635 q 2667 665 2655 665 q 2702 656 2675 665 q 2753 673 2729 673 q 2862 515 2844 673 l 2862 472 l 2865 472 q 2900 513 2900 509 l 2900 521 q 2924 662 2903 662 l 2935 662 q 2960 632 2952 650 q 2935 393 2935 449 l 2935 391 q 2951 323 2938 328 q 3027 483 2983 346 q 3068 646 3060 591 q 3095 670 3079 670 q 3114 643 3114 663 q 3090 426 3090 541 q 3149 315 3090 315 q 3242 415 3210 340 l 3244 426 l 3252 426 q 3255 415 3252 420 l 3252 388 q 3255 355 3252 384 q 3252 353 3252 355 q 3288 334 3277 353 l 3288 307 q 3318 301 3307 301 q 3440 347 3393 308 q 3456 380 3456 368 l 3456 382 q 3296 437 3456 422 q 3196 507 3196 460 l 3196 510 q 3358 632 3196 573 q 3475 651 3417 651 l 3488 651 q 3548 610 3548 646 l 3548 591 q 3516 562 3548 569 l 3507 562 q 3483 581 3491 562 l 3486 597 q 3470 605 3483 605 l 3437 605 q 3271 548 3351 605 q 3258 526 3259 534 q 3440 464 3258 492 q 3518 396 3518 444 l 3521 396 q 3600 629 3521 513 q 3665 673 3638 673 q 3727 621 3727 665 l 3727 600 q 3684 448 3727 534 q 3589 339 3661 396 l 3589 334 q 3646 309 3605 309 q 3781 472 3725 309 l 3792 472 l 3792 458 q 3754 323 3792 413 q 3627 247 3699 247 q 3524 336 3552 247 l 3518 377 l 3516 377 q 3429 293 3516 339 q 3290 255 3351 255 l 3280 255 q 3217 288 3240 255 q 3133 250 3175 250 q 3049 418 3049 250 l 3046 418 q 2946 255 2998 255 l 2943 255 q 2897 342 2897 265 l 2897 372 q 2900 431 2897 391 q 2848 385 2891 420 q 2694 252 2808 252 q 2580 315 2633 252 l 2580 317 l 2577 317 q 2528 206 2577 272 q 2474 187 2499 187 q 2401 307 2431 187 q 2376 654 2376 400 l 2376 773 l 2374 773 q 2279 315 2279 410 q 2241 225 2265 225 q 2211 312 2217 225 l 2200 456 l 2203 461 q 2197 477 2197 470 l 2197 496 q 2200 499 2197 499 l 2197 505 q 2186 751 2192 704 l 2184 751 q 2100 448 2155 713 q 2078 266 2078 326 l 2059 250 l 2053 250 q 2029 320 2029 250 q 2018 583 2026 567 q 2021 608 2021 598 l 2021 643 q 1997 662 1997 643 l 1997 708 q 1999 743 1997 726 q 1988 876 1988 828 q 2013 895 1997 895 q 2056 865 2056 888 l 2056 863 q 2062 507 2056 768 l 2062 505 l 2064 505 q 2151 811 2100 673 q 2195 852 2172 852 q 2230 760 2230 852 l 2230 635 q 2243 410 2230 549 l 2246 410 q 2352 849 2292 669 l 2368 892 q 2390 906 2381 906 m 572 781 q 613 746 613 775 l 613 741 q 583 703 609 703 l 575 703 q 548 738 551 703 l 548 743 q 572 781 548 771 m 1386 518 q 1402 499 1399 518 l 1397 429 q 1489 562 1457 463 q 1495 591 1495 572 l 1495 610 q 1470 637 1491 637 q 1402 559 1445 637 q 1386 518 1402 554 m 2686 510 q 2762 437 2686 456 l 2783 437 q 2824 461 2824 437 l 2824 505 q 2770 616 2824 583 l 2756 616 q 2726 591 2740 616 q 2686 510 2686 568 m 3567 423 l 3567 401 q 3573 396 3568 396 q 3678 534 3643 436 l 3687 578 q 3668 616 3687 604 l 3665 616 q 3575 491 3619 616 q 3567 423 3567 472 m 2572 475 l 2572 469 q 2661 320 2572 378 q 2691 312 2682 312 l 2713 312 q 2794 374 2757 312 l 2794 377 l 2778 377 q 2748 374 2766 377 q 2639 526 2639 404 q 2664 594 2639 549 l 2664 597 q 2653 600 2658 597 q 2585 543 2608 600 q 2572 475 2572 517 m 1120 483 q 1164 456 1147 456 q 1259 567 1207 456 l 1259 572 q 1232 586 1252 586 q 1134 505 1161 559 l 1120 483 m 1074 496 l 1074 491 l 1077 491 l 1077 496 l 1074 496 z "},"V":{"ha":2167,"x_min":0,"x_max":2132,"o":"m 1137 1248 l 1139 1248 q 1256 1237 1256 1240 q 1232 1034 1256 1208 l 1234 1034 q 1316 1126 1255 1059 l 1318 1126 q 1383 1080 1383 1082 l 1383 1077 l 1286 955 l 1286 952 q 1400 920 1400 926 q 1411 722 1408 747 l 1408 722 q 1321 738 1321 735 q 1294 868 1297 863 q 1226 884 1266 876 q 1223 768 1223 792 q 1207 743 1223 743 l 1112 722 q 1137 1248 1137 1219 m 198 1240 l 285 1050 q 401 1234 294 1056 l 526 1218 l 537 833 l 589 833 q 594 732 589 787 l 372 708 q 361 817 372 718 q 423 822 405 822 l 423 1053 l 420 1053 l 320 876 l 317 876 q 182 1047 307 884 l 168 1061 l 168 1058 q 195 868 190 917 l 198 868 q 247 863 204 868 l 247 760 q 212 757 245 760 q 41 754 182 757 q 35 849 38 840 q 92 863 42 849 l 71 1099 q 19 1088 24 1090 l 0 1194 l 198 1240 m 1047 1177 q 1053 1006 1053 1033 l 977 996 l 977 998 q 968 1047 977 1047 l 925 1047 q 920 879 925 992 l 949 879 l 955 876 l 955 928 q 1053 944 955 934 q 1058 798 1055 928 q 868 738 917 751 l 868 741 q 830 1131 830 1101 l 1047 1177 m 1484 1169 q 1492 1166 1489 1166 q 1725 1161 1662 1166 q 1793 939 1793 947 l 1790 939 q 1609 909 1662 920 l 1609 906 q 1619 846 1613 846 q 1674 857 1674 850 l 1674 890 l 1771 906 l 1771 903 l 1785 817 l 1782 817 q 1573 722 1600 732 l 1573 724 q 1470 947 1475 931 l 1481 1161 q 1484 1169 1484 1166 m 746 1164 l 746 1161 q 749 1088 746 1138 l 675 1093 l 651 1158 l 654 1158 q 746 1164 715 1164 m 1595 1101 q 1584 1058 1595 1095 l 1598 971 q 1660 982 1605 971 l 1660 1099 l 1647 1101 l 1595 1101 m 670 1042 q 754 998 754 1002 q 730 749 754 978 l 651 768 q 665 1039 665 1008 l 670 1042 m 2005 1036 q 2132 1020 2013 1034 q 2097 659 2132 960 l 1847 581 l 1790 684 l 2029 741 l 2029 795 q 1836 814 2009 795 l 1847 985 q 1948 1004 1939 1004 q 1931 887 1945 994 l 2016 868 q 2005 1036 2013 887 m 282 548 q 372 355 372 361 l 374 355 q 488 543 387 378 l 613 526 q 624 141 621 199 l 670 141 q 675 133 675 141 l 675 41 q 458 16 473 16 l 458 19 q 448 125 456 31 l 510 130 l 510 361 l 507 361 l 407 184 l 399 184 q 252 372 399 191 q 285 176 279 198 q 334 171 321 171 l 334 65 l 331 65 q 127 62 159 62 l 127 65 l 122 155 l 179 171 q 157 407 165 294 l 155 407 q 103 396 150 404 l 87 502 q 282 548 96 502 m 827 524 q 947 507 921 515 l 1023 331 l 966 119 q 849 106 864 106 l 749 193 l 749 469 l 827 524 m 1720 475 q 1948 472 1900 472 q 1969 437 1969 470 q 2029 247 2029 262 q 1845 217 1990 241 q 1855 155 1849 155 q 1910 160 1902 160 l 1910 198 q 2007 214 1924 198 l 2021 125 q 1809 30 1814 30 l 1809 33 q 1706 255 1711 239 q 1720 475 1709 334 m 1058 469 l 1177 456 l 1177 453 q 1169 163 1169 208 q 1166 141 1166 148 l 1169 141 q 1215 155 1171 141 q 1232 363 1229 349 q 1335 382 1327 382 l 1335 380 q 1329 5 1335 302 l 1326 5 q 1251 35 1251 27 l 1245 71 q 1088 24 1223 62 l 1058 469 m 1449 461 l 1541 461 q 1641 401 1550 461 l 1641 399 l 1622 271 q 1554 279 1554 274 q 1557 374 1554 300 q 1511 377 1543 374 l 1511 263 l 1647 214 q 1636 68 1639 68 q 1538 22 1541 22 q 1400 87 1407 87 q 1424 182 1424 174 l 1481 182 q 1495 122 1487 182 l 1549 122 l 1549 182 q 1430 252 1538 191 q 1416 391 1430 266 q 1449 461 1444 459 m 849 420 l 854 182 l 857 182 q 903 203 899 203 l 901 214 q 892 429 901 245 l 890 429 q 849 420 883 429 m 1831 410 q 1820 363 1831 406 q 1834 279 1834 290 q 1896 293 1896 286 l 1896 407 l 1872 407 q 1831 410 1858 407 m 765 57 q 963 43 935 49 l 979 0 l 806 0 q 765 54 801 1 l 765 57 z "},"W":{"ha":2340,"x_min":0,"x_max":2295,"o":"m 608 1139 l 659 1134 q 762 1139 736 1137 l 762 1137 q 743 1006 744 1049 q 746 1004 746 1006 q 705 1006 719 1006 l 686 1006 q 684 1009 684 1006 l 678 1006 l 667 1006 q 621 1004 653 1006 l 621 1020 q 608 1139 621 1086 m 1465 1137 q 1492 1034 1492 1067 l 1492 1015 q 1413 895 1492 950 q 1373 860 1413 892 q 1432 727 1407 727 q 1440 751 1437 733 q 1430 822 1438 777 q 1565 892 1532 878 l 1565 890 q 1584 784 1584 832 l 1584 751 q 1535 624 1584 671 q 1492 605 1512 605 l 1481 605 q 1326 819 1383 605 l 1308 803 l 1324 640 l 1321 640 q 1196 637 1246 637 l 1183 637 q 1194 960 1194 855 q 1191 1072 1191 1044 l 1270 1080 q 1261 925 1261 983 l 1261 914 q 1264 841 1261 891 q 1337 990 1337 896 l 1337 1012 q 1313 1115 1337 1059 l 1316 1115 l 1465 1137 m 187 1131 l 195 1131 q 296 971 249 1131 l 301 971 q 391 1101 336 1101 l 404 1101 q 515 911 464 1101 q 545 646 545 769 q 391 627 418 627 l 391 629 q 393 640 393 634 l 393 743 q 369 960 393 960 l 358 960 q 328 817 334 960 q 336 673 331 724 l 334 673 l 195 656 l 195 773 q 174 996 195 937 l 160 1009 l 157 1009 q 127 914 127 1009 q 125 871 125 914 q 144 627 125 803 l 141 627 l 0 613 l 0 616 q 24 960 24 776 l 24 1031 l 81 1036 l 90 982 l 92 982 q 187 1131 127 1131 m 1931 1112 q 1926 998 1926 1070 q 1929 949 1926 987 q 1761 960 1857 960 q 1728 958 1756 960 l 1728 911 q 1836 901 1728 901 q 1845 898 1842 898 l 1845 865 q 1731 852 1845 857 l 1728 846 l 1728 798 l 1755 798 q 1923 808 1853 798 l 1923 806 q 1921 727 1923 771 q 1923 646 1923 684 l 1921 646 q 1660 662 1679 662 q 1668 920 1666 779 q 1666 955 1666 937 l 1638 952 q 1641 998 1641 984 l 1641 1063 q 1638 1104 1641 1077 q 1736 1101 1643 1104 q 1931 1112 1864 1101 m 2108 1107 q 2233 890 2157 999 q 2243 876 2240 876 q 2246 936 2246 917 l 2246 1055 l 2243 1061 l 2295 1061 l 2295 1004 q 2127 616 2295 616 l 2108 616 q 1997 724 2043 616 q 1986 770 1986 757 l 1988 770 l 2127 781 l 2127 779 q 2176 670 2136 670 q 2214 724 2214 696 q 1975 1036 2182 794 l 1975 1042 l 2108 1107 m 971 1099 q 1137 906 1097 1099 l 1134 906 q 1126 903 1128 903 q 1006 898 1069 903 q 1004 906 1004 903 q 963 1055 994 1055 q 925 901 925 1004 l 925 879 q 971 692 937 707 l 977 692 q 998 784 994 697 l 998 825 q 1137 811 1020 825 q 987 643 1104 643 q 833 741 895 643 q 800 873 800 807 l 800 892 q 933 1093 800 1042 q 971 1099 954 1099 m 635 971 q 727 966 720 966 l 757 635 l 754 635 q 670 632 704 632 l 594 632 q 635 971 635 903 m 326 518 q 429 361 381 518 q 434 355 429 355 q 526 488 469 488 l 529 488 q 681 65 641 488 l 681 30 l 678 30 l 526 11 l 526 157 q 502 347 526 347 q 472 312 480 347 q 461 201 464 269 q 469 60 461 191 l 328 41 l 328 179 q 285 396 328 396 q 258 252 262 396 q 279 14 263 113 q 138 0 162 0 l 133 0 q 157 336 157 153 l 157 418 l 160 418 q 214 423 191 418 l 222 366 l 225 366 q 326 518 260 518 m 1652 496 l 1668 496 q 1807 363 1758 496 q 1815 317 1815 325 l 1687 293 l 1687 345 q 1663 442 1683 442 l 1660 442 q 1619 323 1638 442 q 1690 266 1619 266 q 1836 209 1809 266 q 1842 193 1842 200 l 1842 171 q 1804 92 1842 144 q 1682 16 1729 16 q 1516 160 1565 16 q 1508 209 1508 187 l 1647 193 l 1647 190 q 1676 54 1647 81 l 1679 54 q 1714 160 1714 80 q 1663 228 1706 228 q 1519 263 1541 242 q 1506 298 1506 283 l 1506 312 q 1592 475 1506 397 q 1652 496 1624 496 m 2165 496 q 2159 393 2159 418 q 2162 336 2162 358 q 2035 345 2090 345 l 1961 345 l 1961 342 q 1964 290 1964 298 l 1967 290 q 2078 285 1986 290 l 2078 244 q 1967 239 1976 239 q 1961 209 1961 228 l 1961 182 l 1964 182 q 2159 193 2038 182 l 2157 179 l 2157 33 q 1893 49 2117 33 q 1902 331 1902 180 l 1902 342 l 1896 339 l 1872 339 l 1877 415 l 1872 491 q 1912 488 1899 488 l 2013 488 q 2165 496 2091 488 m 1446 488 q 1443 339 1443 390 l 1443 271 q 1316 14 1443 77 q 1261 3 1284 3 q 1134 163 1162 3 q 1126 252 1126 203 l 1088 252 l 1088 307 q 1085 429 1088 346 l 1090 426 l 1112 426 q 1194 423 1139 426 q 1188 304 1188 330 q 1248 57 1200 73 l 1251 57 q 1291 203 1291 83 q 1278 480 1291 313 q 1446 488 1311 480 m 884 475 q 1036 317 995 475 q 1039 279 1039 294 l 1039 255 q 920 41 1039 114 q 865 30 888 30 q 719 165 763 30 q 711 222 711 194 l 711 255 q 808 450 711 372 q 884 475 847 475 m 836 317 l 836 279 q 882 76 845 96 l 887 76 q 911 201 911 96 q 868 426 911 359 l 860 426 q 836 317 836 403 z "},"X":{"ha":4105,"x_min":0,"x_max":4061,"o":"m 543 836 l 556 836 q 567 825 559 836 q 524 806 567 811 l 518 798 q 521 391 521 497 q 532 269 521 269 q 562 258 562 269 l 562 252 q 377 231 562 240 q 363 239 363 234 l 363 241 q 407 255 363 250 q 418 285 414 262 q 415 288 418 288 q 418 407 418 375 q 415 735 418 492 l 415 741 l 412 741 q 279 231 296 262 l 269 231 q 106 719 157 559 l 103 719 q 100 681 100 685 l 92 266 q 117 252 92 252 l 144 252 q 152 244 148 252 l 152 239 q 24 222 152 222 q 0 231 0 225 l 0 236 q 52 252 0 243 q 65 269 65 264 q 76 770 76 674 q 19 789 76 789 l 19 798 q 146 814 19 814 q 203 776 203 814 q 304 464 228 684 l 307 464 l 401 817 q 543 836 401 827 m 2737 836 q 2753 827 2753 834 l 2753 819 q 2710 803 2753 814 l 2707 798 q 2710 358 2710 428 q 2724 269 2710 269 q 2751 258 2751 267 l 2751 252 q 2563 231 2751 240 q 2553 239 2553 235 l 2553 241 q 2596 255 2553 250 q 2604 263 2596 259 q 2607 404 2604 307 q 2604 732 2604 648 l 2604 741 l 2601 741 q 2469 231 2485 264 l 2458 231 l 2295 716 l 2292 716 q 2289 700 2289 702 l 2281 266 q 2306 252 2281 252 l 2333 252 q 2341 241 2341 252 q 2214 222 2341 222 q 2189 231 2189 225 l 2189 236 q 2241 252 2189 243 q 2254 269 2254 264 q 2265 765 2265 692 q 2227 787 2265 787 q 2208 789 2219 787 l 2208 798 q 2336 814 2208 814 q 2398 768 2387 814 q 2493 467 2422 658 l 2493 464 l 2496 464 q 2585 808 2572 734 q 2726 836 2585 829 l 2737 836 m 1180 762 q 1194 705 1191 762 l 1183 407 l 1188 404 l 1313 556 l 1313 564 q 1305 567 1310 564 q 1272 564 1286 564 q 1256 572 1256 567 l 1256 578 q 1381 594 1256 590 q 1402 597 1381 597 q 1430 586 1430 594 l 1430 583 q 1370 570 1430 572 q 1294 488 1348 570 q 1291 477 1291 484 q 1405 269 1305 407 q 1462 252 1410 260 l 1465 247 l 1465 241 q 1272 225 1465 230 l 1267 225 q 1261 231 1261 225 l 1261 239 q 1302 252 1261 248 l 1302 255 q 1218 382 1262 302 l 1207 388 q 1180 326 1180 363 q 1183 252 1183 275 q 1199 247 1192 247 l 1229 247 q 1245 239 1245 245 l 1245 236 q 1066 214 1245 221 q 1031 212 1066 212 l 1028 217 l 1028 222 q 1077 239 1028 233 q 1093 266 1093 251 q 1099 458 1096 437 q 1096 570 1096 510 l 1096 675 q 1085 727 1096 727 l 1080 727 q 1042 724 1065 727 q 1028 735 1029 728 q 1156 762 1028 755 l 1180 762 m 659 716 q 743 662 743 716 q 684 621 743 627 l 673 621 q 616 662 616 621 q 659 716 627 716 m 1581 613 q 1709 521 1677 613 q 1714 480 1709 515 q 1685 429 1714 429 q 1522 393 1522 418 q 1519 372 1519 378 q 1584 290 1519 313 l 1611 290 q 1693 347 1648 290 l 1701 347 l 1701 336 q 1625 258 1701 303 q 1560 241 1608 247 q 1432 336 1470 241 q 1427 377 1427 362 l 1427 407 q 1519 602 1427 538 q 1581 613 1550 613 m 3931 613 q 4058 524 4027 613 q 4061 499 4061 509 l 4061 456 q 4028 429 4061 429 q 3871 393 3871 417 q 3868 374 3871 385 q 3936 290 3868 311 l 3955 290 q 4042 347 4002 290 l 4047 347 q 4053 339 4053 347 q 3971 255 4053 304 q 3912 241 3930 241 q 3781 339 3819 241 q 3776 393 3776 366 q 3866 600 3776 538 q 3931 613 3892 613 m 2897 608 q 3041 548 2974 608 q 3076 437 3076 496 l 3076 423 q 2992 252 3076 317 q 2900 233 2959 233 q 2759 347 2793 233 q 2751 399 2753 360 q 2848 594 2751 531 q 2897 608 2869 605 m 925 600 q 1044 537 1015 600 q 1047 515 1044 535 q 979 456 1047 456 q 928 486 937 456 q 925 496 925 490 l 925 518 q 987 556 925 556 l 1001 553 q 960 570 992 570 q 887 502 922 570 q 868 401 868 452 l 868 377 q 925 282 868 308 q 947 279 940 279 q 1028 339 981 279 q 1047 355 1038 355 l 1050 350 l 1050 345 q 971 252 1050 307 q 898 236 930 236 q 770 345 807 236 q 765 391 765 366 q 884 594 765 532 q 925 600 910 600 m 3651 594 q 3743 540 3743 594 l 3743 529 q 3689 477 3743 489 l 3678 477 q 3630 515 3630 486 l 3630 526 q 3668 562 3630 555 q 3643 570 3668 566 q 3559 515 3559 563 q 3687 450 3559 487 q 3746 377 3746 416 l 3746 363 q 3651 236 3746 293 q 3589 225 3619 228 q 3467 290 3484 225 l 3467 298 q 3507 347 3467 340 l 3535 347 q 3578 312 3578 342 l 3578 290 q 3548 263 3578 269 l 3548 260 q 3583 250 3548 252 l 3586 250 q 3657 290 3637 250 l 3659 307 l 3659 317 q 3548 374 3659 349 q 3478 467 3478 401 q 3597 589 3478 554 q 3651 594 3640 594 m 3396 589 l 3407 583 q 3402 277 3402 389 q 3456 258 3402 258 l 3456 244 q 3328 233 3358 233 q 3315 274 3315 236 q 3247 228 3277 228 l 3228 228 q 3139 347 3160 228 q 3136 396 3136 373 q 3144 543 3136 434 l 3139 545 l 3106 545 l 3092 548 l 3092 564 q 3220 581 3092 574 q 3239 567 3235 581 q 3231 423 3231 522 l 3231 391 q 3271 269 3235 269 q 3315 380 3315 288 l 3315 450 q 3296 556 3315 556 q 3252 567 3252 556 l 3252 572 q 3396 589 3252 579 m 1522 439 q 1525 431 1525 434 q 1628 475 1628 442 l 1628 502 q 1592 581 1628 581 q 1522 439 1543 581 m 2067 583 q 2086 575 2086 581 l 2086 570 q 2045 559 2086 562 q 1972 380 2026 538 q 1801 38 1858 68 q 1717 0 1765 0 l 1685 0 q 1636 49 1636 7 q 1714 98 1636 98 q 1752 65 1752 94 q 1744 33 1750 43 l 1747 33 q 1815 90 1777 40 q 1872 203 1872 180 l 1872 206 q 1812 363 1872 214 q 1747 534 1766 493 q 1714 545 1747 540 l 1714 551 q 1839 567 1714 567 q 1874 556 1874 566 l 1874 553 q 1845 543 1874 547 l 1845 540 l 1921 336 l 1926 336 q 2007 553 1983 475 l 2002 556 q 1945 553 1967 553 q 1940 564 1940 560 q 2067 583 1940 583 m 3874 448 l 3874 437 l 3876 431 q 3977 475 3977 442 q 3979 491 3977 477 q 3950 581 3979 565 l 3942 581 q 3874 448 3895 581 m 722 581 q 776 578 741 578 l 779 578 q 784 572 784 577 l 784 564 q 732 551 784 557 q 708 271 715 524 q 719 258 713 259 l 743 258 q 760 250 760 256 l 760 244 q 572 220 760 233 l 570 220 q 562 233 564 220 q 610 252 571 244 q 618 277 618 262 l 618 434 q 608 545 618 545 l 570 551 l 570 562 q 722 581 570 573 m 2854 391 l 2854 358 q 2908 260 2854 260 q 2976 372 2955 260 q 2981 429 2981 414 q 2927 575 2981 546 q 2854 391 2868 575 z "},"Y":{"ha":2364,"x_min":0,"x_max":2349,"o":"m 1226 1267 l 1324 1267 l 1324 928 q 1470 1085 1468 1085 q 1557 1034 1557 1037 l 1557 1031 q 1400 887 1551 1031 q 1579 719 1577 723 l 1579 716 q 1492 667 1573 716 l 1489 667 l 1324 844 l 1324 681 l 1226 681 l 1226 1267 m 694 1253 q 751 1199 751 1242 l 751 1183 q 703 1134 735 1134 l 686 1134 q 632 1196 641 1134 q 689 1253 646 1253 l 694 1253 m 98 1191 l 193 1191 l 290 833 l 293 833 l 393 1191 l 483 1191 q 521 1006 490 1191 q 583 686 526 991 l 480 670 q 437 1009 437 998 q 391 854 431 1009 q 339 681 385 843 l 244 681 q 152 1012 152 1007 l 149 1012 q 103 670 109 701 l 0 686 q 98 1191 8 721 m 1020 1085 q 1166 1012 1115 1085 l 1166 1009 l 1085 952 q 1017 985 1054 985 l 1009 985 q 933 887 951 985 l 933 873 q 1004 768 933 789 l 1025 768 q 1085 800 1053 768 q 1166 741 1158 749 l 1166 738 q 1023 667 1112 667 l 1017 667 q 838 817 888 667 q 833 868 833 849 l 833 884 q 909 1047 833 979 q 1020 1085 956 1085 m 1771 1085 q 1921 987 1876 1085 q 1929 958 1929 975 q 1717 822 1858 822 l 1698 822 q 1752 765 1698 789 l 1777 765 q 1853 795 1822 765 l 1855 795 q 1907 741 1859 795 l 1907 738 q 1769 667 1858 667 l 1761 667 q 1598 808 1648 667 q 1590 873 1590 843 l 1590 876 q 1717 1077 1590 1023 q 1771 1085 1737 1085 m 2059 1077 q 2154 825 2132 888 l 2157 825 q 2252 1080 2252 1075 l 2254 1080 l 2349 1055 l 2349 1047 q 2110 480 2336 1008 q 2024 507 2029 507 l 2102 708 l 1959 1053 q 2059 1080 2045 1080 l 2059 1077 m 643 1072 l 743 1072 l 743 681 l 643 681 l 643 1072 m 1693 901 l 1693 898 q 1826 963 1786 898 q 1769 987 1807 987 l 1766 987 q 1693 901 1711 987 m 203 524 l 298 524 l 396 163 l 399 163 l 496 524 l 589 524 q 608 434 595 524 q 689 19 621 377 q 586 8 636 8 q 543 339 543 321 l 537 339 q 445 14 537 335 l 350 14 q 258 342 258 336 l 255 342 l 209 5 l 206 5 q 106 19 187 5 l 203 524 m 898 418 q 1082 263 1032 418 q 1088 209 1088 223 q 974 16 1088 79 q 901 0 942 0 q 770 60 824 0 q 716 201 716 123 l 716 217 q 838 407 716 342 q 898 418 877 418 m 1712 418 q 1839 374 1772 418 l 1839 372 q 1782 296 1792 305 q 1720 317 1756 317 l 1712 317 q 1674 288 1685 317 q 1782 241 1674 269 q 1847 146 1847 210 l 1847 119 q 1750 5 1847 43 q 1712 0 1729 0 l 1709 0 q 1576 43 1620 0 q 1617 133 1613 117 l 1619 133 q 1695 100 1653 100 l 1712 100 q 1750 138 1750 109 q 1655 182 1750 156 q 1584 239 1603 201 q 1576 296 1576 268 l 1576 301 q 1676 412 1576 378 q 1712 418 1689 418 m 2078 418 q 2233 315 2189 418 l 2241 296 q 2026 155 2170 155 l 2007 155 q 2062 98 2007 121 l 2086 98 q 2162 127 2134 98 l 2165 127 q 2216 68 2216 83 q 2078 0 2163 0 l 2070 0 q 1907 144 1956 0 q 1899 212 1899 176 q 2010 404 1899 340 q 2078 418 2044 418 m 1158 404 l 1259 404 l 1259 157 q 1294 103 1261 103 l 1299 103 q 1378 168 1356 103 l 1378 404 l 1478 404 l 1478 184 q 1544 52 1478 104 q 1457 3 1470 7 q 1413 57 1413 50 q 1305 0 1350 5 l 1267 0 q 1169 71 1213 0 q 1158 125 1158 100 l 1158 404 m 2002 231 l 2005 231 q 2135 296 2096 231 q 2078 320 2120 320 l 2075 320 q 2002 231 2019 320 m 817 209 q 890 100 817 124 l 909 100 q 979 168 955 100 q 987 209 985 182 q 925 315 987 281 q 901 317 910 317 l 895 317 q 817 209 831 317 z "},"Z":{"ha":1725,"x_min":0,"x_max":1685,"o":"m 534 1725 q 675 1687 612 1725 q 827 1430 827 1580 l 827 1421 q 659 1142 827 1274 l 662 1142 q 784 1120 711 1142 q 1088 868 965 1059 q 1142 1096 1088 985 q 1413 1286 1257 1286 l 1481 1275 q 1685 928 1685 1183 l 1685 922 q 1633 741 1685 827 q 1364 575 1523 575 q 1150 651 1258 575 l 1153 632 l 1153 613 q 1028 282 1153 424 q 996 209 1013 237 q 735 90 900 90 l 732 90 q 605 0 664 0 l 567 0 q 418 81 507 0 q 326 136 417 96 q 125 285 251 163 q 0 513 0 428 l 0 570 q 11 605 0 584 q 81 659 50 659 l 81 662 q 144 873 81 766 q 385 1099 241 1042 l 385 1101 q 179 1389 179 1198 q 212 1530 179 1458 q 534 1725 349 1725 m 863 822 q 852 922 860 884 q 713 1099 816 1099 q 559 1023 629 1099 q 456 887 507 972 l 456 892 q 450 936 456 924 q 366 1050 421 1050 l 363 1050 q 282 1006 334 1050 q 174 735 174 869 l 174 703 q 187 640 174 673 q 141 643 173 640 q 106 640 140 643 q 14 540 14 623 q 46 431 16 498 q 190 252 77 362 q 401 119 307 153 q 404 122 401 122 q 578 24 503 24 l 597 24 q 675 60 637 24 q 760 141 753 140 l 762 141 l 762 138 q 749 111 762 129 q 844 133 788 111 q 1006 315 1006 201 l 1006 320 q 979 393 1006 355 q 773 480 903 480 q 694 472 733 480 q 713 486 696 479 q 863 822 863 601 m 572 854 q 621 751 621 840 q 567 545 621 650 q 537 502 537 506 q 491 456 507 456 q 499 434 499 442 l 499 423 q 279 545 392 545 l 258 545 q 312 559 258 557 l 312 562 q 260 624 260 581 l 260 627 l 266 627 q 323 562 279 594 l 323 559 l 317 559 l 317 556 q 448 499 370 556 l 450 499 q 445 559 445 540 l 445 583 q 564 854 475 854 l 572 854 m 602 773 q 564 838 595 838 q 529 817 551 838 q 461 556 461 692 q 464 510 464 539 l 467 510 q 524 602 491 602 l 526 602 q 551 548 551 602 l 553 548 q 602 746 602 650 l 602 773 m 312 743 q 374 643 365 743 l 374 635 l 372 635 q 309 732 338 732 q 288 719 289 719 q 312 743 288 740 m 309 665 q 374 564 374 610 l 369 564 q 285 651 326 651 l 260 646 l 260 648 q 279 667 267 661 l 296 667 l 309 665 m 109 532 q 138 518 129 532 l 138 515 l 130 515 l 111 518 q 103 469 103 492 q 231 255 103 359 q 472 163 345 163 l 480 163 q 757 315 669 163 q 722 331 724 326 q 673 345 673 339 l 686 347 l 705 347 q 746 339 722 347 q 825 258 825 298 l 825 255 l 822 255 q 773 301 780 301 q 713 165 750 257 q 583 49 675 49 q 404 149 500 49 q 258 214 321 174 q 84 469 84 331 q 90 518 84 477 q 60 510 64 510 l 60 513 q 95 532 71 532 l 109 532 m 244 505 q 342 480 295 505 q 461 342 461 414 l 461 336 q 377 263 461 272 q 298 282 344 263 q 163 431 163 348 l 163 437 q 244 505 163 494 m 703 195 q 578 103 638 195 l 572 106 q 583 141 572 121 q 564 146 583 146 l 559 146 q 480 106 505 146 q 581 68 526 68 l 589 68 q 624 73 600 68 q 703 193 664 87 l 703 195 z "},"[":{"ha":514,"x_min":0,"x_max":0,"o":""},"\\":{"ha":386,"x_min":0,"x_max":0,"o":""},"]":{"ha":514,"x_min":0,"x_max":0,"o":""},"^":{"ha":688,"x_min":0,"x_max":0,"o":""},"_":{"ha":694,"x_min":0,"x_max":0,"o":""},"`":{"ha":694,"x_min":0,"x_max":0,"o":""},"a":{"ha":1725,"x_min":0,"x_max":1685,"o":"m 1150 1725 q 1473 1530 1336 1725 q 1506 1389 1506 1458 q 1299 1101 1506 1198 l 1299 1099 q 1541 873 1443 1042 q 1603 662 1603 766 l 1603 659 q 1674 605 1634 659 q 1685 570 1685 584 l 1685 513 q 1560 285 1685 428 q 1359 136 1434 163 q 1267 81 1267 96 q 1118 0 1178 0 l 1080 0 q 952 90 1021 0 l 949 90 q 689 209 785 90 q 656 282 672 237 q 532 613 532 424 l 532 632 l 534 651 q 320 575 427 575 q 52 741 161 575 q 0 922 0 827 l 0 928 q 203 1275 0 1183 l 271 1286 q 543 1096 428 1286 q 597 868 597 985 q 901 1120 720 1059 q 1023 1142 973 1142 l 1025 1142 q 857 1421 857 1274 l 857 1430 q 1009 1687 857 1580 q 1150 1725 1072 1725 m 822 822 q 971 486 822 601 q 990 472 989 479 q 911 480 951 480 q 705 393 781 480 q 678 320 678 355 l 678 315 q 841 133 678 201 q 936 111 897 111 q 922 138 922 129 l 922 141 l 925 141 q 1009 60 932 140 q 1088 24 1047 24 l 1107 24 q 1280 122 1181 24 q 1283 119 1283 122 q 1495 252 1377 153 q 1638 431 1608 362 q 1671 540 1669 498 q 1579 640 1671 623 q 1544 643 1545 643 q 1497 640 1512 640 q 1511 703 1511 673 l 1511 735 q 1402 1006 1511 869 q 1321 1050 1350 1050 l 1318 1050 q 1234 936 1263 1050 q 1229 892 1229 924 l 1229 887 q 1126 1023 1178 972 q 971 1099 1055 1099 q 833 922 869 1099 q 822 822 825 884 m 1120 854 q 1240 583 1210 854 l 1240 559 q 1234 499 1240 540 l 1237 499 q 1367 556 1314 556 l 1367 559 l 1362 559 l 1362 562 q 1419 627 1405 594 l 1424 627 l 1424 624 q 1373 562 1424 581 l 1373 559 q 1427 545 1427 557 l 1405 545 q 1185 423 1293 545 l 1185 434 q 1194 456 1185 442 q 1147 502 1177 456 q 1118 545 1147 506 q 1063 751 1063 650 q 1112 854 1063 840 l 1120 854 m 1082 746 q 1131 548 1082 650 l 1134 548 q 1158 602 1134 602 l 1161 602 q 1218 510 1194 602 l 1221 510 q 1223 556 1221 539 q 1156 817 1223 692 q 1120 838 1134 838 q 1082 773 1089 838 l 1082 746 m 1373 743 q 1397 719 1397 740 q 1375 732 1396 719 q 1313 635 1346 732 l 1310 635 l 1310 643 q 1373 743 1320 743 m 1389 667 l 1405 667 q 1424 648 1418 661 l 1424 646 l 1400 651 q 1316 564 1358 651 l 1310 564 q 1375 665 1310 610 l 1389 667 m 1576 532 l 1590 532 q 1625 513 1613 532 l 1625 510 q 1595 518 1621 510 q 1600 469 1600 477 q 1427 214 1600 331 q 1280 149 1364 174 q 1101 49 1184 49 q 971 165 1009 49 q 911 301 935 257 q 863 255 905 301 l 860 255 l 860 258 q 939 339 860 298 q 979 347 963 347 l 998 347 l 1012 345 q 963 331 1012 339 q 928 315 960 326 q 1204 163 1015 163 l 1213 163 q 1454 255 1339 163 q 1581 469 1581 359 q 1573 518 1581 492 l 1554 515 l 1546 515 l 1546 518 q 1576 532 1556 532 m 1440 505 q 1522 437 1522 494 l 1522 431 q 1386 282 1522 348 q 1308 263 1341 263 q 1223 336 1223 272 l 1223 342 q 1343 480 1223 414 q 1440 505 1390 505 m 982 195 l 982 193 q 1061 73 1021 87 q 1096 68 1085 68 l 1104 68 q 1204 106 1159 68 q 1126 146 1180 146 l 1120 146 q 1101 141 1101 146 q 1112 106 1112 121 l 1107 103 q 982 195 1046 195 z "},"b":{"ha":2013,"x_min":0,"x_max":1950,"o":"m 863 1633 q 1153 1492 1031 1633 q 1221 1291 1221 1403 l 1221 1280 q 1158 1096 1221 1183 l 1164 1096 q 1519 928 1342 1096 q 1660 610 1660 763 l 1660 570 l 1657 537 l 1679 537 q 1701 613 1684 537 q 1826 719 1742 719 q 1940 651 1901 719 q 1950 605 1950 624 l 1950 553 q 1850 374 1950 463 q 1809 244 1839 300 q 1579 41 1735 104 q 1435 16 1497 16 l 1397 16 q 1316 24 1348 16 q 1251 0 1289 0 l 1202 0 q 1093 38 1162 0 q 914 73 994 49 q 751 182 781 128 q 648 407 686 248 l 646 407 q 401 255 537 255 l 374 255 q 68 448 211 255 q 0 667 0 561 q 155 936 0 846 q 301 968 225 968 q 556 830 423 968 q 635 703 617 753 l 637 703 q 722 882 647 759 q 860 1015 810 996 l 860 1017 q 632 1134 747 1017 q 564 1299 564 1225 q 562 1332 562 1299 l 562 1348 q 713 1598 562 1508 q 863 1633 781 1633 m 1072 800 q 1161 472 1072 654 l 1185 434 l 1183 434 q 914 540 1030 540 q 730 410 784 540 q 716 336 716 372 q 987 68 716 157 q 1082 52 1065 52 q 1055 92 1055 78 l 1055 95 q 1229 11 1137 11 q 1294 24 1262 11 l 1294 27 q 1082 119 1155 52 q 987 315 987 214 l 987 320 l 990 347 q 887 323 967 347 l 887 326 q 1023 369 924 369 q 1126 336 1095 369 l 1123 336 q 1004 347 1055 347 l 1004 317 q 1185 76 1004 167 q 1427 33 1290 33 q 1758 193 1616 33 q 1823 350 1823 290 l 1823 361 q 1774 347 1805 351 q 1674 431 1699 347 l 1674 472 q 1679 515 1674 485 l 1676 515 q 1522 456 1628 514 l 1522 458 q 1544 483 1534 483 q 1535 654 1539 531 q 1560 708 1548 708 l 1568 708 q 1622 564 1614 708 q 1619 526 1619 541 l 1622 526 q 1638 551 1638 526 q 1641 589 1641 574 q 1549 860 1641 726 q 1503 909 1508 909 q 1484 833 1490 835 q 1291 1050 1414 996 q 1248 1055 1261 1055 q 1085 898 1135 1055 q 1072 800 1074 857 m 1400 787 q 1503 602 1474 787 q 1506 559 1503 580 q 1462 439 1506 465 l 1443 439 q 1362 613 1384 439 q 1356 705 1356 692 q 1400 787 1364 787 m 1421 760 q 1432 705 1432 732 l 1432 703 q 1400 643 1432 643 l 1397 643 q 1378 651 1388 643 l 1378 646 q 1451 453 1395 453 q 1487 556 1482 453 l 1487 559 q 1427 760 1487 689 l 1421 760 m 1587 670 q 1554 616 1587 616 l 1554 583 q 1557 496 1554 555 q 1603 529 1603 516 q 1606 578 1606 555 l 1606 581 q 1590 670 1606 624 l 1587 670 z "},"c":{"ha":1718,"x_min":0,"x_max":1704,"o":"m 697 1649 q 990 1478 898 1649 q 1012 1378 1012 1423 l 1012 1367 q 841 1099 1012 1208 l 841 1096 q 1101 987 1006 1065 q 1139 947 1139 954 l 1142 947 l 1142 955 q 1139 963 1142 963 l 1142 977 l 1142 985 q 1275 1245 1142 1136 q 1435 1297 1349 1297 q 1652 1175 1572 1297 q 1704 1015 1704 1090 l 1704 936 q 1595 719 1704 831 q 1411 651 1506 651 l 1405 651 q 1272 692 1337 651 l 1270 692 q 1280 594 1280 645 l 1280 570 q 1139 198 1280 370 q 1077 136 1077 140 q 1017 33 1060 62 q 920 0 966 0 l 863 0 q 754 22 809 0 q 689 5 720 5 l 665 5 q 613 16 637 5 q 526 0 566 0 l 448 0 q 225 87 340 0 q 160 179 174 141 q 38 260 115 179 q 0 363 0 317 l 0 366 q 111 491 0 452 l 127 491 q 255 393 192 491 l 258 393 q 274 407 274 404 q 231 578 231 488 l 231 608 q 415 977 231 815 q 608 1069 536 1057 l 608 1072 q 439 1150 491 1095 q 366 1318 366 1224 l 366 1340 q 505 1592 366 1485 q 697 1649 589 1649 m 336 760 l 334 760 q 298 798 334 777 q 250 594 250 701 q 290 412 250 498 q 309 423 309 419 q 266 548 266 475 l 266 556 q 293 621 266 603 l 309 621 q 372 510 330 621 q 407 426 402 429 q 461 401 433 426 l 461 399 q 377 412 426 412 q 269 374 311 412 q 312 274 312 328 q 201 168 312 183 l 193 168 q 334 52 227 94 q 496 22 411 22 q 909 269 743 22 q 982 502 982 395 q 901 461 965 502 l 901 464 q 998 521 939 521 l 1017 521 q 1061 499 1040 521 l 1061 496 q 1009 505 1026 505 l 998 505 l 987 393 q 1020 220 987 384 q 1023 190 1023 220 l 1023 176 q 920 46 1023 79 q 873 41 898 41 l 857 41 q 741 71 808 41 q 648 30 661 30 l 648 27 l 662 24 l 708 24 q 743 30 719 24 l 743 33 l 741 38 l 743 38 q 873 16 833 16 l 884 16 q 1050 122 1002 16 q 1080 290 1061 165 q 1090 304 1086 304 l 1090 301 q 1080 165 1085 194 q 1204 339 1173 258 q 1251 483 1251 444 q 1161 643 1251 572 q 1066 670 1112 670 l 1036 670 q 770 518 884 670 l 770 513 l 765 513 l 768 526 q 613 974 768 835 q 532 1001 571 1001 l 529 1001 q 374 882 453 1001 q 336 760 347 833 m 434 773 q 532 564 486 773 q 540 483 540 505 q 515 426 540 441 l 496 426 q 385 597 425 426 q 380 659 380 626 l 380 670 q 434 773 387 773 m 399 673 l 399 640 q 488 439 399 508 l 491 439 l 491 442 q 467 513 476 442 q 488 567 467 548 l 491 567 q 515 556 501 567 q 429 757 475 757 q 399 673 404 757 m 296 608 q 279 559 279 591 q 326 423 279 487 l 345 426 l 353 426 l 353 429 q 342 472 342 448 l 342 486 q 361 496 342 494 q 296 608 321 608 m 982 290 q 928 157 928 249 l 930 138 q 911 182 918 138 q 865 155 895 181 q 836 92 836 119 l 836 68 q 876 57 836 57 q 1001 141 965 57 q 1006 182 1006 167 l 1006 190 q 985 290 1006 233 l 982 290 z "},"d":{"ha":1663,"x_min":0,"x_max":1625,"o":"m 304 1587 l 320 1587 q 553 1432 466 1587 q 583 1286 583 1362 q 551 1126 583 1211 l 553 1126 q 738 1221 651 1221 q 841 1147 803 1221 q 887 1137 870 1142 q 958 1169 915 1169 l 960 1169 q 1050 1128 1000 1169 l 1050 1131 q 1047 1169 1050 1135 q 1240 1454 1047 1360 q 1340 1476 1297 1476 l 1370 1476 q 1609 1297 1525 1476 q 1625 1218 1625 1242 l 1625 1145 q 1544 958 1625 1063 q 1335 857 1446 857 q 1248 873 1295 857 q 1310 613 1310 745 l 1310 597 q 1264 391 1310 498 q 1025 117 1264 251 q 890 76 972 90 q 749 0 801 5 l 689 0 q 540 103 630 0 q 467 136 537 111 q 225 453 225 279 q 236 521 225 465 q 225 610 225 566 l 225 621 q 350 958 225 819 l 347 958 q 258 944 298 944 l 247 944 q 11 1128 70 944 q 0 1207 3 1164 q 84 1462 0 1331 q 304 1587 180 1587 m 445 711 q 467 608 445 663 l 423 608 q 255 502 301 608 q 247 450 247 463 q 453 168 247 302 q 526 130 486 147 l 526 133 q 513 165 513 158 l 513 168 l 515 168 q 719 16 612 16 q 928 136 809 16 l 930 136 l 930 133 q 906 95 925 122 l 909 95 q 1115 193 975 102 q 1245 388 1245 298 q 1131 526 1245 469 l 1131 529 q 1169 722 1169 635 q 1055 1050 1169 889 q 960 1104 1008 1104 l 958 1104 q 849 1034 906 1104 q 738 1156 795 1156 l 735 1156 q 537 996 652 1156 q 445 711 445 848 m 852 1118 l 852 1112 l 854 1112 l 854 1118 l 852 1118 m 865 1115 l 857 1101 l 860 1101 l 868 1115 l 865 1115 m 1082 1088 q 1123 1023 1120 1023 q 1082 1088 1104 1065 m 760 985 l 762 985 q 827 882 817 985 q 830 844 830 873 l 830 841 q 787 621 830 739 l 846 621 l 844 648 l 844 659 q 922 939 848 890 l 939 939 q 996 838 979 939 q 998 800 996 823 q 933 594 998 682 l 933 591 q 974 556 958 583 l 971 556 q 795 605 892 605 q 662 581 736 605 q 708 608 671 597 l 708 613 q 667 760 667 667 q 732 974 667 892 q 760 985 751 985 m 686 749 q 727 616 686 661 l 732 616 q 738 621 738 616 q 732 654 732 640 l 732 673 q 768 741 732 725 l 779 741 q 798 711 798 727 q 814 825 811 718 l 814 846 q 765 966 807 966 l 762 966 q 686 776 712 966 l 686 749 m 860 694 l 863 694 q 890 719 863 713 l 898 719 q 917 675 913 719 q 901 608 917 657 q 922 602 911 602 q 979 800 979 680 l 979 803 q 936 925 979 907 l 933 925 q 860 700 882 911 l 860 694 m 795 583 l 798 583 q 960 502 923 583 l 963 486 l 963 477 q 876 382 963 409 q 822 374 857 374 l 800 374 q 651 453 691 374 q 646 480 646 476 q 722 572 646 545 q 795 583 758 583 m 472 502 l 491 502 q 518 496 496 502 l 518 491 q 450 480 488 488 q 526 350 454 427 q 789 252 642 252 l 803 252 q 1093 401 989 252 l 1093 404 q 1047 426 1057 426 q 1053 431 1048 431 l 1066 431 q 1150 355 1150 410 l 1150 342 l 1147 323 l 1145 323 q 1109 393 1145 357 l 1104 396 q 1004 288 1085 350 q 939 217 968 267 q 724 60 819 60 l 713 60 q 521 296 576 60 q 491 358 505 351 q 437 472 458 390 q 369 423 419 472 l 363 423 q 472 502 399 502 m 559 233 q 719 79 609 79 q 822 119 764 79 l 822 122 q 716 182 791 182 q 708 179 711 179 q 722 136 722 152 q 572 241 635 241 q 559 233 559 238 z "},"e":{"ha":2175,"x_min":0,"x_max":2129,"o":"m 1012 1698 l 1116 1698 q 1919 1361 1569 1698 q 2129 890 2129 1124 l 2129 808 q 1925 343 2129 578 q 1337 23 1746 130 q 1116 0 1210 0 l 1012 0 q 210 337 560 0 q 0 808 0 574 l 0 890 q 203 1355 0 1120 q 791 1675 383 1569 q 1012 1698 919 1698 m 203 843 q 564 267 203 503 q 1041 134 797 134 l 1088 134 q 1803 477 1509 134 q 1925 855 1925 667 q 1565 1431 1925 1196 q 1088 1565 1331 1565 l 1041 1565 q 326 1221 620 1565 q 203 843 203 1031 m 983 1343 l 1041 1343 q 1204 1239 1162 1343 q 1419 1343 1312 1343 l 1477 1343 q 1664 1122 1664 1343 l 1664 727 q 1518 610 1664 610 l 1361 610 l 1355 640 l 1355 1047 q 1291 1116 1352 1116 q 1221 1053 1221 1101 l 1221 623 q 1210 610 1221 610 l 930 610 q 919 623 919 610 l 919 1041 q 849 1116 919 1116 q 785 1070 807 1105 l 785 623 q 774 610 785 610 l 483 610 l 477 640 l 477 1140 q 587 1314 477 1314 q 628 1320 587 1320 l 768 1320 q 779 1308 779 1318 l 779 1251 q 983 1343 878 1343 m 488 570 l 494 570 l 593 494 q 686 570 640 541 l 692 570 l 704 366 l 634 366 l 628 436 q 576 407 598 407 q 547 436 576 415 l 547 366 l 483 366 l 483 483 q 488 570 483 512 m 930 570 l 954 570 q 1035 500 1035 562 q 971 483 996 483 q 954 500 971 491 l 930 500 q 907 459 907 491 q 948 431 916 431 q 971 454 971 436 q 1041 436 1028 436 q 948 361 1041 378 l 937 361 q 838 454 838 372 l 838 477 q 930 570 849 570 m 732 564 l 808 564 l 808 366 l 732 366 l 732 564 m 1064 564 l 1134 564 l 1134 506 l 1140 506 q 1181 564 1140 519 l 1256 564 l 1256 558 l 1198 483 l 1198 477 l 1262 378 l 1262 366 l 1175 366 q 1145 418 1159 418 l 1134 401 l 1134 366 l 1064 366 l 1064 564 m 1280 564 l 1436 564 l 1436 517 l 1349 517 l 1349 494 l 1431 494 l 1431 436 l 1349 436 l 1349 418 l 1436 418 l 1436 366 l 1280 366 l 1280 564 m 1442 564 l 1524 564 q 1553 506 1534 564 l 1565 506 l 1581 564 l 1664 564 q 1594 413 1594 431 l 1594 366 l 1524 366 l 1524 407 q 1442 564 1524 422 z "},"f":{"ha":1702,"x_min":0,"x_max":1652,"o":"m 1316 1568 q 1630 1337 1509 1568 q 1652 1245 1652 1280 l 1652 1191 q 1516 941 1652 1063 q 1343 879 1430 879 q 1283 890 1310 879 q 1389 556 1389 731 q 1291 271 1389 392 q 1253 209 1253 239 q 1150 111 1219 152 q 1090 84 1105 84 l 1093 71 l 1093 60 q 979 3 1093 3 q 871 14 939 3 q 803 0 829 0 l 713 0 q 418 71 579 0 q 315 195 315 128 l 315 206 q 347 288 315 239 q 274 510 274 402 l 274 524 q 271 534 274 530 q 274 545 274 539 l 274 553 q 358 817 274 677 l 355 817 q 260 798 298 798 l 225 798 q 43 911 122 798 q 0 1085 0 988 q 138 1389 0 1250 q 309 1454 224 1454 q 529 1297 458 1454 q 548 1194 548 1240 l 548 1164 q 515 998 548 1088 l 518 998 q 765 1088 583 1057 q 846 1093 825 1093 q 887 1090 880 1090 q 930 1107 913 1107 l 936 1107 q 1004 1082 963 1107 q 1050 1069 1036 1072 q 1004 1245 1004 1154 q 1093 1470 1004 1373 q 1316 1568 1189 1568 m 860 1063 q 827 1015 837 1040 l 830 1015 q 863 1063 836 1028 l 860 1063 m 1015 1063 l 1015 1061 q 1044 1015 1038 1039 l 1047 1015 l 1047 1017 q 1015 1063 1042 1042 m 789 795 q 852 629 852 741 q 857 570 857 629 q 825 399 857 478 l 827 399 q 873 369 861 387 l 871 369 q 703 401 784 401 q 526 366 619 401 q 586 404 526 382 q 529 600 529 477 q 548 716 529 659 q 499 914 499 825 l 499 917 q 391 635 391 793 l 391 627 q 461 339 391 511 q 339 212 339 287 q 570 35 339 111 q 743 11 669 11 l 779 11 q 854 16 808 11 l 854 19 q 836 30 836 24 l 838 30 q 955 19 904 19 l 977 19 q 1072 71 1072 19 q 1053 122 1072 81 q 1082 98 1071 115 q 1251 274 1251 177 l 1251 282 q 1096 382 1251 355 q 1017 388 1059 388 l 1009 388 l 990 385 l 990 388 q 1063 684 1063 526 q 960 1001 1063 871 q 928 1017 935 1017 q 822 887 892 1017 q 789 795 803 844 m 559 694 q 548 610 548 657 l 548 597 q 605 410 548 469 l 608 410 q 651 431 651 410 q 656 494 656 477 l 656 507 q 654 553 656 522 l 640 551 l 637 551 q 583 651 599 551 q 562 694 572 669 l 559 694 m 757 692 q 727 570 737 593 q 770 412 736 412 q 808 404 783 412 q 841 581 841 492 q 838 613 838 595 l 838 627 l 819 624 q 768 675 793 624 q 757 692 762 692 m 654 656 l 651 629 q 656 600 651 626 l 659 600 q 656 656 656 608 l 654 656 m 667 567 q 673 502 673 532 l 673 475 q 665 418 673 443 l 735 418 q 711 537 711 484 l 711 553 l 703 553 q 667 567 686 553 m 673 366 q 838 285 812 358 q 841 271 841 280 l 841 263 q 711 171 841 197 q 675 168 698 168 l 667 168 q 521 220 575 168 q 502 269 502 239 l 502 271 q 613 358 502 331 q 673 366 625 363 m 914 92 l 922 92 q 993 57 993 87 l 993 54 q 955 41 993 43 q 868 73 868 46 q 914 92 879 92 z "},"g":{"ha":1560,"x_min":0,"x_max":1500,"o":"m 1215 1709 l 1234 1709 q 1476 1541 1382 1709 q 1500 1430 1500 1473 l 1500 1373 q 1408 1126 1500 1258 q 1251 1012 1314 1031 q 1240 1004 1240 1008 q 1375 635 1375 857 q 1343 450 1375 541 q 1373 363 1373 399 l 1373 336 q 1194 114 1373 223 q 998 49 1069 49 l 985 52 q 860 0 900 0 l 830 0 q 784 30 810 0 q 716 49 784 45 q 551 114 624 71 q 450 269 450 187 l 450 285 l 453 298 q 374 581 374 398 q 385 711 374 622 l 382 711 q 258 678 313 678 l 231 678 q 46 811 121 678 q 0 1020 0 904 l 0 1031 q 144 1345 0 1232 q 301 1400 218 1400 l 307 1400 q 532 1215 464 1400 q 545 1107 543 1158 q 524 958 545 1041 l 526 958 q 665 1072 608 1044 q 920 1145 781 1137 q 977 1194 953 1194 q 947 1345 947 1274 l 947 1386 q 1077 1657 947 1535 q 1215 1709 1141 1709 m 1009 1194 l 1009 1191 l 1015 1191 l 1015 1194 l 1009 1194 m 1020 1191 l 1020 1188 q 1126 1128 1063 1181 l 1126 1131 q 1023 1191 1076 1178 l 1020 1191 m 906 1120 q 890 1093 897 1110 l 890 1090 l 892 1090 q 909 1120 892 1095 l 906 1120 m 1134 1120 l 1134 1118 l 1142 1112 l 1142 1115 l 1134 1120 m 892 966 q 749 1050 814 1050 q 581 838 644 1050 q 553 629 553 731 q 583 429 553 536 l 583 426 q 472 274 472 351 q 700 73 472 158 q 781 54 734 60 l 781 73 l 784 73 q 846 22 798 22 q 1017 90 900 22 l 1017 87 q 998 62 1010 75 q 1316 260 1240 134 q 1345 353 1345 309 l 1345 363 q 1245 494 1345 443 q 1248 548 1248 530 l 1248 602 q 1126 1023 1248 826 q 1009 1115 1055 1115 q 892 966 957 1115 m 993 901 q 1074 727 1054 901 l 1074 705 q 1039 526 1074 623 q 1109 496 1087 517 l 1104 496 q 1009 513 1053 513 l 998 513 q 762 439 882 513 l 760 439 l 760 442 q 817 486 760 458 q 754 686 754 555 q 830 849 763 849 q 909 637 889 849 q 911 608 909 608 q 895 518 906 531 l 898 518 q 958 526 943 526 l 958 529 q 928 684 928 599 l 928 732 q 990 901 928 876 l 993 901 m 941 694 q 977 529 941 600 l 1025 529 q 1055 705 1055 623 q 996 887 1042 879 q 944 743 964 887 q 941 694 941 728 m 773 662 q 833 496 773 561 l 836 496 q 884 529 884 509 q 895 616 895 571 l 895 621 q 838 827 895 745 q 827 836 827 833 q 773 716 793 836 l 773 662 m 966 713 l 968 713 q 1004 640 1000 713 l 1004 632 q 985 578 1004 588 l 974 578 q 949 648 949 597 l 949 670 q 966 713 949 705 m 860 694 l 868 694 q 890 624 884 694 q 865 562 890 574 l 863 562 q 836 627 836 562 q 860 694 841 694 m 974 486 l 1004 486 q 1107 410 1107 473 l 1107 401 q 971 285 1107 319 q 925 279 949 279 l 892 279 q 784 345 816 279 l 784 372 q 906 475 784 435 q 974 486 943 486 m 933 122 q 949 114 949 119 l 949 106 q 871 60 949 67 q 846 73 846 60 q 930 122 846 109 l 933 122 z "},"h":{"ha":1611,"x_min":0,"x_max":1581,"o":"m 1166 1644 l 1191 1644 q 1525 1446 1361 1644 q 1581 1291 1581 1352 l 1581 1229 q 1473 1031 1581 1131 q 1291 968 1381 968 l 1242 974 q 1394 597 1394 801 q 1392 548 1392 564 q 1405 477 1402 523 q 1218 187 1405 328 q 1145 146 1185 163 q 1023 22 1108 65 q 944 0 980 0 l 903 0 q 675 122 808 0 q 415 236 551 140 q 288 448 288 348 q 312 526 288 488 q 301 616 301 571 l 301 637 q 412 930 301 800 l 374 930 q 46 1112 166 930 q 0 1280 0 1197 q 165 1530 0 1449 q 304 1557 244 1557 q 543 1457 433 1557 q 667 1183 667 1329 q 654 1109 667 1154 q 879 1147 755 1147 q 998 1131 943 1147 l 998 1134 q 903 1370 903 1249 q 1085 1630 903 1558 q 1166 1644 1126 1644 m 711 968 l 705 968 q 637 1072 693 1072 q 483 963 579 1069 q 407 738 407 855 q 445 578 407 661 l 442 578 q 309 456 309 548 q 491 212 309 338 q 662 146 568 168 l 662 149 q 648 163 659 149 l 648 165 q 735 100 663 165 q 920 19 830 19 q 1147 198 1070 19 q 1156 217 1149 217 l 1156 212 q 1147 168 1156 200 l 1150 168 q 1381 477 1381 320 q 1259 637 1381 593 q 1215 643 1227 643 q 1115 613 1176 643 q 1147 773 1147 687 q 996 1088 1147 962 q 879 1126 932 1126 q 711 968 785 1126 m 846 800 q 879 779 879 794 l 876 779 q 841 784 852 784 q 768 724 810 784 l 768 727 q 803 784 768 751 q 846 800 815 795 m 624 773 l 632 773 q 681 727 681 766 l 675 727 q 635 760 656 760 l 627 760 q 591 738 613 760 l 589 738 l 589 741 q 624 773 601 773 m 849 751 l 857 751 q 906 711 906 751 l 903 711 q 849 730 878 730 q 779 686 809 730 l 773 686 l 773 689 q 849 751 801 751 m 629 716 l 651 716 q 694 678 679 716 l 692 678 q 637 700 657 700 q 600 665 614 700 l 594 665 l 594 684 q 629 716 594 707 m 909 689 l 911 689 q 852 654 899 654 l 838 654 l 825 656 l 825 662 l 830 662 q 909 689 879 662 m 673 656 l 673 648 q 613 621 652 621 l 608 621 q 578 635 587 621 l 578 640 q 613 632 591 632 q 673 656 644 632 m 798 648 q 914 624 854 648 l 914 618 q 798 632 857 629 q 586 553 672 632 l 586 559 q 798 648 646 648 m 781 613 l 792 613 q 920 553 886 613 q 928 526 928 540 l 928 505 q 803 407 928 439 q 751 401 781 401 l 732 401 q 600 486 618 401 l 600 505 q 730 608 600 575 q 781 613 751 613 m 1118 532 l 1128 532 q 1248 472 1200 532 l 1251 458 l 1251 456 q 1196 496 1226 479 q 1131 374 1190 453 q 1088 165 1115 202 q 917 57 1026 57 q 632 290 779 57 q 491 366 578 302 l 467 393 q 426 353 461 393 l 426 358 q 507 442 426 410 q 524 445 522 445 l 540 442 l 540 437 q 477 404 488 421 q 811 274 630 274 q 1118 396 994 274 q 1180 502 1164 451 q 1093 521 1128 521 q 1118 532 1097 532 m 933 155 l 928 155 q 939 190 928 157 l 922 190 q 827 146 878 190 q 808 114 808 130 q 914 79 862 79 q 1085 201 1027 79 q 1093 233 1085 206 q 1055 241 1076 241 q 933 155 995 241 z "},"i":{"ha":1422,"x_min":0,"x_max":1381,"o":"m 374 1495 q 388 1476 388 1491 l 388 1473 q 374 1419 388 1453 q 323 1473 323 1444 l 323 1476 q 336 1487 324 1481 q 355 1478 343 1487 q 374 1495 361 1495 m 355 1468 q 339 1481 355 1472 l 328 1473 q 372 1427 328 1455 q 382 1478 382 1465 q 380 1487 380 1484 l 372 1487 q 355 1468 368 1487 m 564 1432 l 589 1432 q 727 1332 669 1432 q 741 1270 741 1297 l 741 1259 q 656 1158 741 1179 l 656 1153 q 741 1080 676 1153 q 776 987 776 1042 l 776 955 q 770 906 770 913 q 876 803 805 906 l 887 792 q 949 909 949 887 q 985 941 949 941 q 1006 944 996 944 q 1044 868 1044 933 q 1050 787 1044 830 q 1044 670 1044 720 q 1088 589 1088 644 q 1053 537 1088 553 l 1044 526 q 1085 524 1044 524 q 1112 559 1085 543 q 1066 689 1112 566 q 1061 727 1061 709 l 1061 732 q 1156 852 1061 819 q 1191 857 1168 857 l 1202 857 q 1367 719 1299 857 q 1381 659 1381 678 l 1381 575 q 1305 396 1381 493 q 1251 372 1269 372 l 1240 372 q 1166 399 1211 372 q 1164 396 1164 399 q 1104 429 1121 396 q 1015 445 1084 429 l 1015 431 q 1009 366 1015 401 q 1039 228 1039 326 q 898 5 1039 50 q 865 0 879 0 l 798 0 q 675 62 739 0 q 651 125 651 94 l 651 130 q 773 282 651 195 q 838 350 773 290 q 909 385 867 377 q 930 399 930 396 l 930 410 l 917 407 l 890 407 q 822 450 862 407 q 781 385 814 443 q 705 339 750 357 q 597 250 650 250 l 572 250 q 537 285 544 250 q 591 342 537 306 q 613 374 613 364 l 610 374 q 524 361 576 363 q 418 423 439 361 l 418 437 q 472 472 418 469 l 475 472 l 475 486 q 336 553 336 502 q 456 635 336 606 q 399 610 456 631 q 345 553 345 578 q 385 515 350 533 q 475 499 438 499 l 480 499 q 648 532 493 525 q 678 556 678 532 q 686 567 681 556 q 524 673 595 644 q 483 716 483 694 l 477 716 q 401 754 422 716 q 372 806 396 781 q 342 898 342 859 l 339 898 q 282 863 317 863 l 258 863 q 165 920 216 863 q 125 1034 125 976 q 201 1172 125 1143 q 214 1175 205 1175 l 225 1175 q 355 1058 308 1175 l 355 1055 l 361 1055 q 374 1123 366 1072 q 404 1137 390 1137 l 418 1134 l 418 1145 q 453 1177 418 1172 q 488 1169 488 1173 q 543 1180 509 1180 q 475 1308 475 1235 l 475 1316 q 564 1432 475 1412 m 274 1394 q 309 1299 309 1382 l 309 1240 l 307 1213 q 195 1310 195 1257 q 217 1332 195 1332 l 225 1332 l 239 1329 l 239 1345 q 274 1394 239 1394 m 247 1348 l 247 1316 q 217 1326 227 1326 q 203 1308 203 1322 q 301 1223 203 1270 l 301 1280 q 269 1386 298 1386 q 247 1348 247 1376 m 836 1256 l 838 1256 q 863 1229 859 1256 l 863 1199 q 860 1145 863 1181 l 854 1145 q 795 1213 795 1181 q 806 1223 795 1217 l 817 1223 l 822 1221 q 836 1256 822 1253 m 827 1213 q 806 1218 817 1218 l 803 1218 l 800 1207 q 854 1153 800 1193 l 854 1215 q 841 1251 854 1246 l 838 1251 q 827 1213 827 1251 m 510 1166 l 510 1164 l 529 1164 l 529 1166 l 510 1166 m 448 1145 q 442 1112 442 1126 l 442 1080 l 445 1074 l 442 1074 q 399 1107 414 1107 q 382 982 386 1107 q 450 849 382 874 q 401 784 401 819 q 486 722 401 732 q 513 743 486 739 l 529 743 q 586 735 557 743 l 581 746 l 583 746 q 635 722 617 722 l 648 722 q 681 787 681 743 q 684 798 684 787 l 689 798 l 689 789 q 735 846 707 807 l 732 865 q 757 906 732 891 q 768 966 768 936 q 700 1090 768 1074 l 689 1090 q 629 1031 658 1090 q 627 1028 629 1028 q 551 1142 627 1079 q 521 1139 527 1139 q 448 1145 505 1139 m 467 1099 q 540 1047 505 1099 l 540 1039 q 483 1088 489 1088 l 480 1069 q 483 1028 480 1062 l 483 1023 l 480 1023 l 472 1063 q 477 1090 475 1084 l 467 1093 l 467 1099 m 689 1085 l 694 1085 q 724 1074 699 1085 q 722 1072 724 1072 l 735 1034 q 713 1017 735 1017 q 675 1023 684 1023 q 667 1061 667 1059 l 667 1063 q 684 1082 684 1074 l 689 1085 m 689 1082 q 686 1063 686 1079 l 681 1066 l 678 1066 q 673 1061 673 1065 q 700 1025 678 1025 q 722 1023 711 1023 l 727 1031 q 711 1074 720 1074 q 689 1082 694 1082 m 705 1058 l 705 1047 l 694 1047 l 694 1055 l 705 1058 m 363 1042 l 363 1031 l 366 1031 l 366 1042 l 363 1042 m 418 1044 q 423 1036 423 1044 l 431 1036 q 469 1015 456 1036 l 464 1015 q 429 1028 445 1028 l 426 1028 l 426 1025 q 442 947 426 1006 l 437 947 q 418 1031 418 984 l 418 1044 m 347 1034 l 347 1028 l 350 1028 l 350 1034 l 347 1034 m 505 1012 l 521 1012 q 567 998 528 1012 l 564 993 l 564 982 q 597 987 586 987 l 597 982 q 505 917 559 982 q 486 873 486 888 l 480 876 q 486 906 486 903 q 458 925 458 913 q 456 974 458 941 q 469 1004 460 1004 l 480 1004 q 510 944 498 994 q 529 960 529 956 q 496 998 496 976 l 496 1004 q 505 1012 496 1008 m 54 1009 l 65 1009 q 95 920 95 987 l 95 911 q 5 968 59 922 q 0 985 0 977 q 19 1004 0 1004 l 43 996 q 54 1009 49 1008 m 54 1004 q 49 982 49 996 q 16 996 24 996 l 14 996 q 8 990 8 995 l 8 979 q 90 920 35 947 l 90 922 q 54 1004 81 1004 m 526 1004 l 529 998 l 529 993 q 513 985 529 985 l 513 982 q 534 963 513 979 q 559 977 555 977 l 559 990 q 526 1004 559 996 m 694 998 l 716 998 q 722 993 722 998 q 692 990 707 993 q 700 944 700 967 q 673 838 700 913 l 673 789 q 629 741 665 741 l 621 741 q 562 779 609 741 q 458 795 463 795 l 458 792 q 448 770 452 770 l 448 784 q 486 819 448 812 l 488 814 q 467 806 484 814 l 467 800 l 469 800 q 562 789 548 789 q 689 920 650 789 q 692 949 689 935 l 686 987 l 659 968 l 659 971 q 694 998 675 998 m 486 985 q 472 966 486 966 q 464 968 467 968 l 464 928 q 491 911 475 911 l 505 936 q 488 985 505 944 l 486 985 m 589 971 l 591 971 q 618 939 613 971 q 562 860 618 897 q 545 854 553 854 l 534 854 q 507 882 507 860 l 507 895 q 572 968 507 931 l 589 971 m 996 936 q 1034 873 1030 899 l 1036 873 l 1036 882 q 996 936 1036 924 m 960 914 l 960 836 q 947 768 958 768 q 952 852 952 808 l 952 854 l 949 854 q 911 787 949 836 l 909 787 l 909 789 q 944 860 920 806 l 944 863 l 941 863 l 892 781 q 1004 637 989 701 q 1063 605 1017 627 l 1066 589 q 1058 551 1063 565 q 1080 591 1080 562 q 1017 670 1065 670 q 1034 675 1017 675 q 1036 762 1036 734 l 1036 798 q 985 930 1036 883 q 974 933 980 933 l 971 933 q 960 914 960 929 m 1074 735 l 1074 732 q 1123 570 1074 684 q 1150 439 1137 439 q 1234 382 1192 382 l 1245 382 q 1272 393 1272 386 q 1215 534 1242 393 q 1156 735 1156 685 q 1234 830 1156 805 l 1248 833 l 1248 836 q 1188 846 1215 846 q 1077 760 1113 846 q 1074 735 1074 745 m 754 836 l 754 833 l 762 833 l 762 836 l 754 836 m 765 833 l 765 830 q 789 822 774 830 l 792 822 l 792 825 l 768 833 l 765 833 m 1166 732 q 1232 505 1166 690 l 1232 502 l 1234 502 q 1373 583 1301 502 l 1373 627 q 1272 819 1373 745 q 1256 825 1263 825 l 1248 825 q 1175 770 1208 825 q 1166 732 1166 758 m 795 822 l 795 819 q 808 814 800 819 l 811 814 l 811 817 q 798 822 806 817 l 795 822 m 618 789 q 635 779 629 789 q 602 784 616 784 l 597 784 q 581 776 581 783 q 624 749 611 749 l 637 749 q 665 792 665 764 l 665 795 q 640 806 665 802 q 618 789 630 806 m 716 686 q 738 651 719 651 l 773 621 q 817 654 773 647 l 830 651 q 776 722 776 698 l 776 732 q 792 743 776 738 q 887 662 837 743 l 887 648 q 871 637 882 637 q 846 643 867 637 q 871 586 871 614 q 852 534 871 557 l 854 529 l 854 518 q 830 458 854 486 q 868 423 861 423 l 871 423 q 993 524 871 466 q 922 553 993 528 q 892 572 922 558 l 892 578 q 917 567 915 567 l 917 570 q 898 586 898 583 l 898 589 l 901 589 q 936 559 918 580 q 949 553 945 553 q 979 629 968 574 l 982 629 l 982 624 q 958 548 982 584 q 1034 529 1019 529 q 1058 591 1058 562 q 1020 616 1058 604 q 1009 624 1020 618 l 1009 610 l 1006 610 q 887 773 970 715 q 838 792 852 792 q 722 711 756 792 q 716 686 719 705 m 868 773 l 871 773 q 944 705 904 773 l 944 692 l 933 689 q 868 743 909 689 q 863 765 863 753 l 863 768 q 868 773 863 773 m 868 768 l 868 765 q 936 697 898 706 l 939 697 l 939 700 q 868 768 894 768 m 784 730 l 784 727 q 854 648 784 695 l 871 646 l 873 646 q 879 651 879 646 l 879 654 q 800 735 879 684 l 789 735 q 784 730 784 734 m 665 700 l 665 697 l 670 694 l 670 697 l 665 700 m 678 692 l 678 689 l 684 686 l 684 689 l 678 692 m 686 686 l 686 684 l 692 681 l 692 684 l 686 686 m 746 537 l 746 540 l 754 562 q 575 515 677 515 q 483 480 499 515 l 483 477 q 567 429 483 442 l 594 429 q 659 437 625 429 q 594 418 639 418 l 586 418 q 480 458 512 418 l 480 461 l 464 461 q 426 431 433 461 q 529 372 446 372 q 629 385 568 374 q 613 350 621 374 q 548 285 548 299 l 548 282 q 586 258 556 258 q 692 339 644 258 l 678 336 l 673 336 q 667 342 667 336 q 768 391 706 342 q 792 426 792 416 q 749 415 772 415 l 735 415 q 719 423 721 415 q 741 420 734 420 q 838 488 797 420 q 846 515 846 503 l 846 526 q 808 505 823 505 l 803 505 l 803 507 q 860 581 860 538 l 860 597 q 817 646 843 646 q 768 570 781 646 q 746 537 759 548 m 684 540 q 760 581 760 570 l 762 591 q 684 540 684 572 m 1367 567 q 1234 494 1303 494 l 1234 491 q 1283 396 1253 396 q 1364 537 1335 435 q 1370 567 1367 563 l 1367 567 m 1112 551 q 1093 499 1093 528 q 1161 404 1105 404 l 1164 404 q 1118 548 1118 450 l 1112 551 m 925 477 q 879 420 879 440 l 879 418 l 906 418 q 993 450 939 418 l 993 453 q 925 477 984 453 m 882 320 q 933 269 890 269 q 1009 339 1009 287 l 1009 347 q 1004 353 1009 353 q 963 301 990 301 l 947 301 q 914 331 914 309 l 914 334 q 925 382 914 351 l 922 382 q 882 320 882 363 m 789 288 q 808 296 803 296 l 811 296 l 811 293 q 662 130 662 195 q 779 16 662 56 q 817 11 799 11 l 836 11 q 979 73 920 11 q 1028 239 1028 137 q 1017 334 1025 283 l 1015 334 q 949 263 1015 284 q 928 260 939 260 q 873 317 884 260 l 873 320 q 887 366 873 347 l 887 369 l 884 369 q 789 288 853 355 m 844 252 l 871 252 q 985 209 954 252 l 979 209 q 841 244 932 244 q 806 241 818 241 q 844 252 806 250 z "},"j":{"ha":1229,"x_min":0,"x_max":1204,"o":"m 377 1383 q 483 1294 452 1383 l 488 1259 q 477 1196 486 1228 q 545 1229 519 1229 l 553 1229 q 597 1199 578 1229 l 613 1196 q 637 1207 627 1207 l 651 1207 q 681 1194 661 1207 l 681 1215 q 792 1337 681 1304 l 814 1337 q 922 1245 890 1337 q 925 1215 925 1227 l 925 1210 q 827 1080 925 1117 q 806 1077 817 1077 l 795 1077 l 768 1080 q 792 968 792 1029 q 773 879 792 930 q 670 762 773 817 l 670 760 q 836 662 776 680 q 873 678 852 678 l 887 678 q 1028 792 961 792 l 1039 792 q 1080 762 1074 792 l 1080 751 q 993 654 1080 724 l 993 651 l 1012 648 q 1153 711 1044 648 l 1177 716 q 1204 703 1196 716 l 1204 667 q 1123 589 1204 630 q 1061 572 1074 572 l 1061 570 q 1142 526 1073 545 q 1153 505 1153 515 q 1082 453 1153 460 l 1077 453 q 993 491 1028 453 l 990 491 q 928 477 965 477 q 882 494 902 479 q 846 491 880 494 l 827 494 q 776 477 809 481 q 789 431 789 440 q 738 388 772 412 q 705 274 705 290 q 727 250 724 250 q 857 258 839 258 q 1001 155 1001 244 l 1001 146 q 868 22 1001 60 q 784 14 822 14 q 543 81 652 14 q 423 8 519 38 q 372 0 389 0 l 288 0 q 119 79 201 0 q 95 149 95 118 l 95 168 q 198 269 95 245 q 152 431 171 308 q 127 513 152 456 q 182 334 149 513 q 220 269 199 286 l 239 269 q 388 247 264 269 q 434 274 395 262 l 483 377 q 472 399 476 377 q 505 564 505 486 q 491 667 499 650 q 255 594 385 594 q 203 597 212 597 q 168 589 183 589 q 106 610 140 589 q 24 713 24 631 q 33 760 27 749 q 0 833 0 781 l 0 841 q 65 909 14 909 q 117 939 87 939 l 125 939 q 163 922 142 939 q 231 1042 163 981 q 263 1050 255 1050 q 298 1023 292 1050 l 298 1006 q 255 876 298 998 q 239 727 239 826 q 260 697 246 724 q 323 689 298 689 q 453 754 372 689 l 458 762 q 336 901 336 824 q 339 933 336 919 q 336 979 336 954 l 336 985 q 385 1118 336 1059 q 350 1112 373 1112 l 347 1112 q 247 1183 275 1112 q 241 1223 241 1208 q 320 1370 241 1316 q 377 1383 341 1383 m 429 1015 q 437 971 429 1004 l 420 971 q 347 917 360 971 l 347 903 q 461 773 347 831 l 461 776 q 458 784 458 781 q 545 724 503 724 q 629 773 579 724 l 632 773 l 624 760 l 624 757 q 757 852 721 789 l 762 871 l 762 887 q 716 939 762 909 q 732 1020 727 968 q 673 1169 732 1098 q 646 1180 654 1180 q 597 1150 624 1180 q 548 1202 576 1202 q 448 1101 508 1202 q 429 1015 429 1046 m 564 1131 q 591 1066 588 1131 q 575 979 591 1042 l 597 979 q 594 987 594 985 q 632 1112 600 1112 l 637 1112 q 662 1053 662 1099 q 635 966 662 1008 q 651 949 649 959 l 648 949 q 583 968 618 968 l 564 968 q 518 960 551 968 q 537 971 525 971 l 537 974 q 521 1036 521 997 q 564 1131 528 1131 m 559 1123 q 529 1034 529 1086 q 548 977 535 980 l 551 977 l 548 990 q 562 1028 548 1021 l 567 1028 q 575 1017 575 1028 l 578 1017 q 583 1072 583 1044 q 559 1123 580 1123 m 602 1012 l 616 1020 q 627 1001 627 1019 q 618 971 627 986 l 627 971 q 651 1044 651 994 l 651 1069 q 635 1104 646 1104 l 632 1104 q 602 1015 616 1104 l 602 1012 m 168 876 l 168 871 q 203 827 168 848 q 228 760 228 801 q 217 724 225 724 l 220 738 l 220 749 q 174 836 220 814 q 119 876 133 876 l 109 876 q 90 849 90 864 l 90 846 q 155 757 90 783 l 155 754 l 138 754 l 133 757 l 133 754 q 141 746 137 754 l 136 746 l 119 757 q 106 705 106 727 l 106 692 q 138 643 106 660 l 138 640 l 130 640 q 95 705 95 659 q 117 762 95 734 l 117 765 l 114 765 l 87 768 q 52 751 74 751 q 41 754 47 754 q 35 713 35 724 q 109 618 35 646 q 141 616 117 616 q 130 610 141 610 l 130 608 q 163 602 149 602 l 168 602 q 252 678 237 602 l 252 681 q 236 713 243 713 l 233 713 q 184 629 233 673 q 168 624 176 624 q 220 697 220 667 q 233 844 230 697 l 288 1012 l 288 1028 q 266 1042 280 1042 q 184 960 223 1042 q 168 876 168 927 m 581 963 q 646 922 646 955 l 646 911 q 586 873 646 880 l 575 873 q 513 914 513 881 l 513 925 q 578 963 521 963 l 581 963 m 60 852 l 60 849 q 109 773 65 783 q 79 841 79 806 l 79 844 q 111 884 85 884 l 122 884 q 160 865 133 884 l 160 909 q 119 930 154 922 q 60 852 71 930 m 434 928 l 456 928 q 461 922 461 927 q 431 917 435 920 q 567 825 469 825 l 589 825 q 697 884 653 825 l 697 887 q 681 898 681 895 l 692 898 q 724 868 724 890 l 724 852 l 708 879 q 705 882 708 882 q 646 822 700 865 q 540 741 593 741 q 453 860 481 741 q 426 911 431 883 l 426 914 l 423 914 l 393 892 l 393 895 q 434 928 409 928 m 11 836 q 54 762 20 762 l 57 762 q 81 776 81 768 q 49 854 49 804 q 60 898 49 871 l 54 898 q 11 836 11 880 m 477 817 l 477 814 q 534 751 499 751 l 545 751 q 586 768 562 751 q 551 792 572 792 l 540 792 l 540 789 q 545 773 545 781 q 483 817 510 817 l 477 817 m 841 610 q 854 616 850 616 q 738 551 843 602 q 722 526 722 532 q 770 488 722 494 q 863 526 809 488 l 865 526 l 865 524 l 844 502 l 849 502 q 952 534 899 502 l 952 532 q 892 499 952 519 l 892 496 q 930 488 913 488 l 941 488 q 1006 505 963 488 q 1001 499 1006 499 q 1069 467 1023 467 l 1093 467 q 1142 502 1142 474 q 1099 529 1142 521 q 1053 570 1053 549 l 1034 570 l 1034 572 l 1131 605 q 1196 678 1196 648 l 1196 689 q 1180 705 1196 705 q 1039 640 1166 705 q 1015 637 1029 640 q 982 643 987 643 q 963 624 982 639 l 963 627 q 1053 724 968 648 q 1072 760 1068 743 q 1036 784 1072 779 q 901 678 972 784 l 841 610 m 694 727 l 694 724 l 705 716 l 705 719 l 694 727 m 705 713 l 705 711 l 711 708 l 711 711 l 705 713 m 513 600 l 515 575 q 480 399 515 469 q 545 363 498 363 q 643 404 643 378 q 670 461 661 452 l 670 458 l 667 445 l 670 445 q 719 472 715 472 q 662 431 703 452 l 646 382 l 665 382 q 781 437 728 382 q 762 480 766 479 q 713 529 713 487 q 738 564 713 544 q 703 629 709 564 l 703 648 q 713 667 703 663 l 722 667 q 751 594 751 640 l 751 586 q 746 570 751 578 l 749 570 q 762 575 758 575 q 716 678 739 678 q 654 694 694 694 q 513 600 569 694 m 798 591 q 879 670 817 591 l 873 670 q 798 594 837 670 l 798 591 m 618 670 q 659 586 646 670 q 632 545 659 545 l 627 545 q 589 618 589 556 q 618 670 589 670 m 613 662 q 600 629 600 647 l 600 621 q 627 553 600 570 q 648 578 648 553 l 648 591 q 613 662 640 662 m 711 654 l 711 624 q 732 572 722 572 l 741 572 l 743 586 q 719 659 743 635 l 716 659 q 711 654 711 659 m 770 589 l 770 581 q 779 583 776 583 q 773 589 779 589 l 770 589 m 526 263 q 545 233 545 250 l 545 212 q 567 233 567 225 q 610 279 567 256 l 643 374 l 640 374 q 629 377 635 377 q 562 353 612 366 l 526 263 m 697 266 q 637 231 692 231 q 602 263 602 231 q 578 231 578 248 l 578 228 q 637 193 585 193 q 713 244 699 193 q 700 266 713 259 l 697 266 m 388 222 q 458 179 388 187 q 537 228 537 186 l 537 233 q 518 255 530 252 q 475 217 509 217 l 453 217 q 418 241 418 217 q 426 260 418 247 l 420 260 q 388 222 388 244 m 103 155 q 222 27 103 75 q 331 8 273 8 q 515 68 433 8 q 551 130 551 103 l 551 144 q 532 195 551 179 q 458 171 503 171 l 456 171 q 380 212 397 171 q 377 228 377 226 l 382 239 l 233 258 q 109 190 135 258 l 103 155 m 722 239 q 651 184 701 184 l 629 184 q 572 214 586 184 l 567 214 l 545 195 q 562 138 562 165 l 562 130 q 551 90 562 123 l 551 87 q 795 27 667 27 q 987 133 948 27 l 990 157 q 890 244 990 221 q 857 247 876 247 l 854 247 q 722 239 829 247 m 323 225 l 326 225 q 431 144 395 201 l 431 138 q 323 222 370 198 l 323 225 m 787 222 l 787 220 q 651 157 767 220 q 770 222 695 201 l 787 222 z "},"k":{"ha":1209,"x_min":0,"x_max":1158,"o":"m 578 1272 q 643 1177 621 1272 q 689 1147 643 1160 q 754 1169 721 1169 l 765 1169 q 798 1156 781 1169 q 822 1161 815 1161 l 838 1161 q 882 1139 859 1161 q 985 1175 928 1175 q 1126 1088 1084 1175 q 1128 1063 1128 1073 l 1128 1044 q 1036 941 1128 987 q 993 933 1008 933 l 971 933 q 925 944 950 933 l 925 941 q 944 854 944 899 l 944 822 q 1044 860 989 860 q 1153 795 1118 860 q 1158 773 1158 785 l 1158 741 q 1053 613 1158 667 q 996 602 1019 602 l 974 602 q 993 507 987 578 l 990 494 q 1006 445 998 482 q 1077 358 1077 379 l 1077 350 q 1034 312 1077 317 q 933 366 995 312 l 930 366 q 920 263 922 315 q 987 198 987 237 l 987 190 q 884 130 968 130 q 930 144 884 134 q 979 195 979 170 q 914 247 960 247 q 873 209 899 209 l 868 209 q 817 271 829 209 l 817 274 l 713 279 q 743 203 743 248 l 743 201 q 572 11 743 89 q 502 0 530 0 l 472 0 q 288 98 359 0 q 279 127 279 119 q 187 117 240 117 q 3 195 40 117 l 0 222 l 0 231 q 184 372 0 333 q 231 453 184 408 l 231 456 q 217 494 217 480 l 217 502 q 293 556 217 525 q 374 637 309 564 q 507 700 468 700 l 507 722 q 477 833 507 760 q 469 906 469 882 q 491 1004 469 953 q 486 1061 486 1038 l 486 1099 q 559 1272 486 1237 l 578 1272 m 540 1183 l 540 1161 l 543 1161 l 543 1183 l 540 1183 m 629 1112 q 643 1082 640 1097 q 632 1042 637 1049 l 635 1042 q 705 1069 667 1069 l 713 1069 l 713 1099 q 719 1104 714 1104 q 784 998 719 1028 l 792 998 q 808 1023 808 1008 q 779 1156 793 1156 q 762 1161 770 1161 l 760 1161 q 632 1112 735 1161 l 629 1112 m 543 1158 l 543 1147 l 545 1147 l 545 1158 l 543 1158 m 800 1147 l 819 1025 q 800 996 812 996 q 852 955 815 955 q 873 1050 873 955 q 882 1107 878 1050 q 819 1153 882 1146 l 800 1147 m 570 1120 q 594 1126 583 1126 q 618 1118 618 1122 q 675 1145 667 1135 q 635 1150 650 1150 q 570 1120 597 1150 m 892 1118 l 892 1090 l 876 960 l 879 960 q 914 1006 906 960 q 939 1072 939 1057 l 939 1077 q 892 1118 939 1104 m 532 1085 l 529 1080 l 532 1080 l 534 1085 l 532 1085 m 526 1077 l 526 1072 l 529 1072 l 529 1077 l 526 1077 m 635 1034 l 635 1028 q 640 1023 635 1023 q 678 1044 640 1036 l 697 1044 q 700 1039 697 1039 q 659 1004 696 1024 l 654 1004 q 692 1036 654 1008 l 692 1039 l 689 1039 q 646 1025 679 1039 q 654 1012 654 1017 q 648 996 654 1007 q 651 971 651 981 l 651 963 l 648 944 l 646 944 q 627 1023 646 977 q 570 968 592 968 l 564 968 q 518 1017 526 968 l 515 1017 q 483 914 483 972 l 483 879 q 553 700 483 814 q 543 673 543 681 l 543 670 q 602 632 543 650 q 635 618 614 618 q 662 648 644 619 l 662 640 l 665 640 q 727 692 678 692 q 749 689 738 689 q 751 719 751 707 q 711 846 751 772 q 884 928 736 871 q 906 955 906 941 q 903 958 903 955 q 882 952 893 952 l 873 952 l 868 955 q 852 947 865 947 l 838 947 q 792 990 812 947 l 787 990 l 770 993 q 738 979 746 979 l 738 985 q 760 998 747 985 q 732 1025 756 998 q 678 1001 715 1020 l 678 1004 q 727 1031 690 1019 l 727 1034 q 716 1061 716 1054 l 708 1061 q 635 1034 677 1061 m 643 1015 l 643 1009 l 646 1009 l 646 1015 l 643 1015 m 675 996 q 719 985 696 996 l 719 971 q 713 966 719 966 l 711 966 q 667 987 711 987 l 662 987 l 662 993 l 675 996 m 662 971 l 665 971 q 692 958 680 958 l 708 958 l 708 952 l 694 949 q 662 966 675 949 l 662 971 m 562 776 l 564 776 q 643 659 600 776 l 643 648 q 627 635 643 635 q 564 665 622 635 l 559 665 l 559 670 q 567 694 567 680 q 553 765 567 701 q 562 776 557 776 m 846 667 l 887 656 l 887 659 q 882 697 882 668 q 846 667 846 669 m 586 665 q 635 643 620 643 q 621 686 635 674 q 586 665 586 675 m 301 510 l 298 510 l 298 518 q 312 559 299 535 l 309 559 q 236 515 248 515 q 358 385 301 420 l 363 385 l 369 404 q 315 475 315 447 q 372 412 345 434 l 377 412 l 382 415 l 382 412 q 369 369 369 382 q 453 363 441 366 q 499 366 474 366 l 540 366 q 562 361 551 366 l 559 388 l 559 393 q 616 524 559 437 q 540 648 616 586 q 461 673 505 673 q 317 548 373 643 q 301 510 301 517 m 448 659 l 461 659 q 467 654 467 659 l 467 648 q 391 572 467 616 l 374 572 q 369 578 369 572 l 369 583 q 448 659 369 627 m 377 581 l 382 581 q 458 643 418 591 l 458 651 l 453 651 q 377 594 426 650 l 377 581 m 928 640 l 928 637 l 933 635 l 933 637 l 928 640 m 941 632 l 941 629 l 947 627 l 947 629 l 941 632 m 949 627 l 949 624 l 958 618 l 958 621 l 949 627 m 532 627 q 548 613 543 623 l 548 597 q 480 524 548 563 l 464 521 q 442 543 442 522 q 510 624 442 581 q 532 627 525 627 m 450 545 q 464 529 450 534 q 540 597 496 529 q 543 605 540 600 q 534 616 538 616 l 526 616 q 450 545 484 616 m 697 600 l 697 597 l 703 597 l 703 600 l 697 600 m 705 591 l 705 589 q 776 562 762 562 l 779 562 q 844 575 838 562 q 730 597 778 597 q 705 591 723 597 m 648 564 l 648 559 q 713 494 648 516 q 732 491 717 491 l 738 491 l 760 510 l 760 507 q 648 388 760 488 q 637 366 639 366 q 667 345 637 347 q 773 393 692 345 q 798 401 786 393 q 830 296 826 401 q 871 217 830 225 l 873 217 q 906 258 906 233 q 922 380 914 335 l 933 380 q 1028 326 1003 326 l 1042 326 q 1069 355 1064 326 q 996 442 1069 370 l 985 461 l 987 461 l 993 458 l 993 461 q 939 532 986 490 l 939 529 q 947 477 947 513 l 947 467 l 944 467 q 933 532 939 467 q 936 534 936 532 q 857 559 896 559 l 852 559 q 784 551 830 559 q 689 586 758 551 l 670 586 q 648 564 648 586 m 863 572 l 863 570 q 977 513 920 570 q 979 510 977 510 l 979 521 q 898 575 964 575 l 882 575 l 863 572 m 873 545 l 876 545 l 876 543 q 838 507 847 507 l 838 510 q 873 545 838 524 m 903 545 l 909 543 q 890 475 901 475 l 887 475 l 887 477 q 903 545 903 539 m 570 382 q 575 339 575 352 q 548 326 555 326 q 656 307 548 309 q 811 288 688 288 q 817 285 811 285 q 803 391 817 365 q 705 345 789 391 q 659 334 686 334 q 627 366 627 342 q 724 477 627 393 l 727 483 q 643 534 663 483 q 570 382 570 451 m 225 507 l 225 499 q 241 461 225 478 q 255 472 255 469 q 228 507 239 502 l 225 507 m 353 377 q 298 323 353 348 q 258 317 273 317 l 244 317 q 296 298 260 298 l 304 298 q 382 339 352 298 q 355 377 355 361 l 353 377 m 372 361 q 415 339 372 354 q 423 358 423 353 l 420 358 q 372 361 382 361 m 14 236 l 14 225 q 133 133 14 150 l 187 127 q 279 146 279 132 q 347 222 279 189 q 418 241 380 236 l 418 244 q 401 277 401 266 l 401 296 q 412 331 401 310 l 393 336 l 391 336 q 296 288 364 288 q 285 290 290 288 l 282 290 l 282 288 q 320 263 306 280 l 320 260 q 163 320 199 320 l 163 323 l 182 323 q 241 307 193 323 q 195 342 241 311 q 184 358 195 350 q 41 293 83 338 q 14 236 14 258 m 518 358 q 510 331 518 357 l 513 331 q 567 347 567 336 q 548 358 563 358 l 518 358 m 507 317 l 507 315 q 526 309 515 315 q 534 312 532 312 q 526 320 534 316 q 507 317 515 317 m 556 307 l 553 301 q 572 277 572 301 l 572 263 q 472 228 559 228 l 472 225 q 529 214 513 214 q 616 260 602 214 l 616 263 q 559 307 616 300 l 556 307 m 608 301 q 627 263 627 283 l 627 258 q 540 206 627 214 l 526 206 l 526 203 q 591 171 551 203 l 586 171 q 423 220 535 198 l 420 220 l 420 222 l 445 222 l 461 220 l 464 220 l 464 222 l 434 239 q 293 149 293 200 l 293 130 q 399 27 293 75 q 486 11 430 16 q 713 141 624 11 q 730 206 730 177 l 730 209 q 667 290 730 267 q 608 301 635 298 z "},"l":{"ha":1048,"x_min":0,"x_max":1031,"o":"m 429 1476 l 431 1476 q 570 1378 541 1476 q 572 1354 570 1369 q 502 1237 572 1292 q 618 1183 573 1221 q 624 1177 619 1177 q 757 1324 640 1324 q 865 1232 832 1324 q 871 1194 871 1211 l 871 1177 q 773 1047 871 1084 q 751 1044 763 1044 l 735 1044 q 684 1058 713 1044 l 684 1055 l 686 1039 l 686 996 q 635 857 686 933 l 635 854 q 697 844 664 844 l 700 844 q 806 925 728 895 q 838 930 825 930 q 933 854 897 930 q 1031 798 1007 854 l 1031 765 q 985 681 1012 681 q 906 646 964 646 q 865 618 892 618 l 852 618 q 822 627 840 618 q 814 578 814 587 l 825 483 q 741 431 825 459 l 694 331 l 713 317 q 854 353 822 353 q 971 277 929 353 q 977 244 977 251 q 844 92 977 158 q 722 68 778 68 l 700 68 q 532 106 623 68 q 345 0 440 0 l 290 0 q 136 79 222 0 q 98 168 98 119 q 103 193 98 180 q 0 293 0 213 q 33 353 7 353 q 8 293 8 321 q 100 203 8 232 l 109 203 q 193 269 132 248 q 363 296 233 279 q 410 326 374 299 q 453 355 453 342 q 491 420 475 382 l 488 420 q 483 426 483 420 q 540 534 483 454 q 545 594 545 581 q 499 722 545 684 q 347 613 430 693 l 347 610 q 361 572 355 596 q 439 491 439 550 q 396 420 439 448 q 309 317 382 317 l 301 317 q 241 334 285 317 q 212 347 224 334 l 206 345 l 184 345 q 114 445 125 345 l 114 448 q 182 581 114 520 q 241 640 182 613 q 404 765 340 734 l 404 768 l 401 768 q 345 760 359 760 q 201 838 244 760 q 133 914 133 868 l 133 922 q 187 977 146 977 q 244 936 211 977 l 250 936 l 250 939 q 231 1020 231 978 q 363 1215 231 1148 q 391 1223 385 1223 l 391 1226 q 304 1283 344 1226 q 290 1332 290 1307 l 290 1343 q 391 1470 290 1430 q 429 1476 411 1476 m 279 1090 l 266 1104 l 263 1104 q 241 1015 241 1075 q 258 941 241 982 l 260 941 q 266 947 266 941 q 247 1006 247 965 q 260 1031 253 1031 q 298 968 282 1031 q 312 947 307 947 q 331 936 331 941 l 298 941 q 252 925 252 934 l 252 922 q 269 882 269 898 q 222 836 262 836 l 217 836 q 336 773 256 773 l 350 773 q 534 895 464 773 q 556 979 556 939 q 526 963 541 974 l 524 963 l 524 966 q 564 987 538 987 l 572 987 q 591 977 587 987 l 572 979 l 564 979 q 562 939 562 952 l 562 933 l 575 844 l 575 836 q 510 779 566 779 l 507 779 q 453 792 488 779 q 415 776 422 776 l 415 773 l 439 773 l 458 779 q 507 770 488 770 l 524 770 q 597 871 587 770 q 600 892 597 873 l 605 892 q 602 846 602 861 l 602 841 l 600 836 l 602 836 q 673 974 667 908 q 618 1047 673 1021 q 581 1053 598 1053 q 464 985 519 1053 l 464 1001 q 388 1188 464 1134 q 366 1194 378 1194 l 355 1194 q 285 1123 323 1194 q 279 1090 279 1096 m 315 1096 l 326 1096 q 366 971 366 1053 l 366 968 q 350 944 366 944 q 296 1050 296 964 q 315 1096 296 1084 m 317 1090 q 307 1055 307 1080 l 307 1036 q 342 955 307 982 q 334 985 334 975 q 345 1006 337 1006 l 350 1006 l 355 1004 q 317 1090 336 1090 m 260 1025 q 255 1009 255 1017 l 255 1001 q 271 947 255 976 l 285 947 q 279 974 279 959 q 288 979 288 977 q 260 1025 271 1025 m 694 800 l 694 792 q 730 749 694 768 q 789 838 730 767 l 789 836 q 743 760 785 822 q 738 735 738 742 l 738 730 q 792 678 749 678 l 792 681 q 838 770 833 768 q 803 675 838 765 l 803 673 q 860 627 803 637 q 898 648 882 627 l 898 651 q 882 656 890 651 l 871 651 l 871 654 q 892 675 871 662 l 901 675 q 887 665 895 665 l 887 659 l 914 656 q 990 716 972 656 l 990 735 q 939 787 990 764 l 939 789 l 944 789 q 963 784 962 784 q 917 833 939 825 l 917 838 l 930 833 l 930 836 q 846 920 886 920 l 844 920 q 708 838 779 920 q 694 800 694 814 m 534 822 q 526 841 528 822 q 494 795 494 827 q 510 787 494 789 q 567 838 567 794 l 567 846 q 559 887 567 863 q 534 822 534 873 m 659 827 l 659 825 l 667 819 l 667 822 l 659 827 m 670 819 l 670 817 l 675 814 l 675 817 l 670 819 m 955 814 q 1001 716 1001 755 l 998 705 l 998 703 l 1001 703 q 1012 738 1012 728 l 1012 743 q 958 814 1012 789 l 955 814 m 667 773 q 692 670 680 670 l 711 665 l 716 665 q 754 684 741 665 q 724 741 734 684 q 684 798 684 762 q 667 773 667 788 m 553 651 l 556 618 l 556 591 q 526 496 551 508 q 494 429 494 448 q 578 407 524 407 q 665 434 665 412 q 692 502 678 463 l 694 502 l 694 494 q 689 467 689 469 l 692 467 q 722 483 717 483 q 684 450 713 470 l 678 439 q 811 488 791 488 l 814 488 l 806 564 l 803 564 q 773 515 803 545 l 770 515 q 814 632 814 603 l 808 635 q 803 629 808 629 l 798 629 q 765 675 776 629 l 765 678 l 760 678 q 711 651 760 663 q 670 591 704 591 l 665 591 q 618 675 618 602 q 654 732 618 725 l 662 732 l 662 746 q 553 651 587 718 m 515 730 l 515 727 l 521 727 l 521 730 l 515 730 m 629 667 q 662 600 629 619 l 667 600 q 703 656 696 600 q 665 713 671 656 q 659 724 665 724 l 656 724 q 629 686 634 724 l 629 667 m 773 673 l 773 670 q 798 635 781 644 q 806 637 803 637 q 787 667 792 667 l 773 673 m 195 583 l 198 583 q 125 442 125 514 q 187 353 125 374 l 201 353 q 179 391 179 378 l 184 391 q 225 350 184 375 q 247 345 243 345 l 247 347 q 241 372 241 357 q 244 380 244 377 l 247 380 q 298 328 256 328 l 301 328 q 385 418 372 328 l 374 418 l 374 410 q 366 380 374 380 l 366 391 l 363 391 q 353 369 359 369 l 353 374 q 388 450 353 406 l 388 448 l 380 426 l 382 426 q 426 483 426 448 l 426 499 q 323 572 426 549 l 323 575 l 334 575 l 334 578 q 271 600 293 600 q 203 581 245 600 l 203 583 q 269 608 203 599 q 339 575 332 601 l 350 575 q 271 629 334 629 l 269 629 q 195 583 195 618 m 241 570 l 241 567 l 217 483 l 214 483 q 209 488 209 483 q 241 570 219 545 m 271 564 l 277 564 l 274 545 l 274 494 q 269 488 274 488 l 266 488 l 263 505 q 271 564 263 518 m 206 551 l 206 545 q 179 480 184 483 q 174 486 174 480 q 206 551 174 514 m 746 445 l 749 445 q 811 480 802 464 l 806 480 q 746 445 746 471 m 537 312 l 543 309 q 605 345 551 326 q 635 401 635 395 l 632 401 q 600 380 607 401 q 537 315 600 370 l 537 312 m 578 396 l 559 353 q 594 396 583 375 l 578 396 m 713 309 l 713 296 q 597 239 713 249 q 556 247 583 239 l 556 244 q 564 201 564 227 l 564 195 q 540 119 564 155 q 637 87 540 111 q 692 81 665 81 l 719 81 q 936 176 848 81 q 963 244 963 210 l 963 247 q 865 339 963 316 l 841 339 q 724 309 819 339 l 713 309 m 545 304 q 551 282 551 294 l 551 263 q 594 250 554 252 l 613 250 q 705 301 705 264 q 692 323 705 316 q 616 288 668 288 q 581 301 593 288 q 594 328 584 313 l 594 331 q 545 304 564 320 m 380 271 l 380 266 q 442 228 380 234 l 461 228 q 543 285 543 237 q 532 301 536 301 q 458 260 497 260 q 410 285 410 267 l 434 326 q 380 271 380 301 m 757 304 q 665 212 685 239 l 665 217 q 746 301 665 247 q 757 304 747 301 m 111 165 l 111 157 q 247 22 111 87 q 326 11 296 11 q 513 106 427 11 q 551 198 551 155 l 551 217 q 545 252 551 228 q 445 214 509 214 q 412 222 424 217 l 412 220 q 439 201 439 207 l 434 201 q 269 252 321 252 q 274 258 269 258 l 277 258 q 391 231 326 258 l 391 233 q 369 263 377 233 l 369 274 q 374 290 369 281 l 372 290 q 209 260 330 277 q 111 165 111 220 z "},"m":{"ha":945,"x_min":0,"x_max":911,"o":"m 469 1386 l 496 1386 q 629 1289 592 1386 q 632 1261 632 1274 l 632 1256 q 556 1156 632 1186 l 556 1153 q 665 1074 587 1153 q 751 1191 665 1149 q 800 1202 764 1199 q 909 1112 872 1202 q 911 1099 911 1107 l 911 1031 q 852 928 911 989 q 784 906 812 906 q 700 944 746 906 q 629 798 700 865 l 621 792 q 629 765 629 777 q 518 537 629 703 q 499 434 509 461 q 486 407 486 418 l 486 404 l 507 374 l 507 372 q 475 350 507 366 q 586 309 516 309 l 589 309 q 621 366 591 309 q 735 437 683 437 q 827 494 775 494 q 849 486 849 491 l 846 486 l 836 488 q 751 442 792 488 l 751 439 l 754 439 q 871 345 838 439 q 879 285 879 312 q 684 14 879 132 q 629 0 648 0 l 591 0 q 526 52 562 0 q 513 111 513 79 l 513 127 q 494 182 494 149 q 496 184 496 182 q 393 331 418 271 l 350 331 q 382 274 376 274 q 437 241 422 263 q 464 203 437 214 q 491 144 491 167 q 290 24 491 55 q 255 22 255 24 q 244 24 250 24 l 236 24 q 27 119 112 24 q 0 195 0 154 q 71 274 0 253 q 125 282 79 279 q 252 258 149 282 l 258 258 q 279 279 258 265 l 279 282 l 241 374 q 146 442 191 395 l 146 445 q 179 510 146 450 q 203 610 190 575 q 285 694 235 671 q 320 711 315 711 q 274 730 320 714 q 198 817 218 759 q 144 887 144 846 l 144 898 q 193 944 144 937 q 252 887 227 944 l 269 892 q 258 947 258 920 l 258 955 q 369 1142 258 1074 q 423 1161 386 1153 l 423 1164 q 361 1259 361 1197 l 361 1280 q 445 1383 361 1354 q 469 1386 460 1386 m 307 1039 l 304 1063 l 298 1063 q 266 947 266 1000 q 277 892 266 922 l 282 892 q 271 941 271 911 q 282 977 273 977 l 288 977 q 315 890 298 977 q 345 873 345 880 l 339 873 q 288 884 317 884 q 258 879 272 884 q 263 852 263 859 q 214 808 263 808 l 212 808 q 372 719 264 719 q 534 814 473 719 q 548 873 548 846 l 548 882 q 513 868 543 882 q 570 895 531 895 l 583 895 q 600 887 600 894 l 586 887 q 575 890 580 887 q 556 882 562 887 q 570 806 570 815 l 570 795 q 502 716 570 728 l 488 716 q 448 724 469 716 q 410 713 423 713 l 410 711 l 431 711 q 456 713 441 711 q 507 705 480 705 q 589 800 578 705 l 589 811 l 594 811 l 594 803 l 600 803 l 618 800 q 670 884 670 845 q 608 960 670 935 q 583 963 593 963 l 578 963 q 467 895 524 963 q 475 974 472 930 q 396 1137 464 1137 q 309 1039 349 1137 l 307 1039 m 339 1025 l 347 1025 q 374 920 374 1008 q 353 887 374 887 q 312 977 321 887 q 339 1025 312 1025 m 320 979 q 350 895 330 895 l 353 895 q 347 917 347 905 l 347 925 q 358 949 347 946 l 361 949 l 366 947 l 366 949 q 339 1020 357 1020 q 320 979 326 1020 m 282 971 q 277 941 277 948 q 290 892 282 892 l 296 892 q 290 917 290 905 q 298 933 298 930 q 285 971 292 971 l 282 971 m 529 754 l 529 751 l 524 751 l 524 762 l 518 762 q 496 724 496 749 l 499 724 q 564 792 549 724 q 562 814 564 814 q 529 754 529 798 m 247 654 q 258 659 258 656 q 269 651 269 655 l 269 643 q 212 559 252 587 l 209 559 q 201 567 201 559 l 198 567 q 157 448 198 507 l 157 442 q 288 369 222 384 q 263 426 281 426 q 209 486 209 469 q 301 415 267 428 l 301 412 l 290 412 q 301 355 297 361 q 385 342 351 342 q 496 377 456 342 q 480 391 481 391 l 477 391 q 467 377 477 382 l 467 380 l 477 401 l 475 401 q 458 388 475 397 l 453 388 q 486 431 469 407 l 472 429 q 420 540 431 429 l 420 551 q 437 618 423 613 l 437 616 l 434 600 l 434 597 l 437 597 q 461 616 455 604 q 415 670 449 649 q 331 694 371 694 l 317 694 q 247 654 283 694 m 507 670 l 505 665 l 507 665 l 510 670 l 507 670 m 502 662 l 494 651 l 496 651 l 505 662 l 502 662 m 350 662 l 361 662 q 377 637 377 651 q 317 543 377 589 q 290 534 306 534 q 271 559 271 543 l 271 567 q 336 659 271 610 l 350 662 m 279 570 l 279 553 q 293 543 281 548 q 366 627 330 543 q 369 637 366 633 q 358 654 363 654 l 353 654 q 285 586 321 654 q 279 570 279 577 m 203 575 q 209 567 206 567 q 263 648 241 584 l 263 651 l 260 651 q 203 575 232 651 m 491 648 l 483 637 l 486 637 l 494 648 l 491 648 m 396 605 q 366 581 396 602 l 363 581 q 396 605 377 605 m 437 586 l 437 583 q 488 532 463 583 q 496 494 496 501 l 499 494 q 507 524 507 515 l 507 534 q 453 594 496 594 q 437 586 437 591 m 431 578 q 429 543 429 544 q 469 437 429 469 q 488 488 488 460 q 431 578 488 554 m 342 559 l 347 559 q 320 469 320 512 q 369 380 320 412 l 366 380 q 315 456 326 380 l 315 483 q 342 559 315 515 m 458 556 l 458 553 q 431 534 441 534 l 431 537 q 458 556 440 550 m 467 540 l 469 540 q 437 505 450 505 l 437 507 q 467 540 463 540 m 477 521 l 480 521 l 480 515 q 458 477 470 482 l 456 477 l 456 483 q 477 521 477 516 m 496 483 q 480 434 496 460 l 488 434 q 502 483 502 466 l 496 483 m 586 206 l 583 206 l 581 225 q 567 187 574 225 l 564 187 l 562 201 l 564 206 l 562 206 q 524 119 524 162 l 524 111 q 575 19 524 47 l 575 22 q 648 146 575 47 q 844 331 758 331 q 860 326 851 331 l 860 328 q 803 415 860 368 q 765 426 775 426 l 746 426 q 600 301 662 426 q 586 206 586 260 m 608 71 q 659 62 629 62 q 808 136 764 62 q 865 285 865 206 q 841 323 865 323 q 662 149 769 323 q 608 71 630 98 m 507 309 l 548 266 q 583 282 583 275 q 589 298 583 287 l 570 298 q 507 309 549 298 m 14 201 l 14 182 q 111 68 14 128 q 263 35 183 35 q 426 73 340 35 q 480 144 480 108 q 437 209 480 176 l 434 209 q 377 182 434 188 l 374 182 q 312 195 344 182 l 312 193 q 339 168 319 193 l 339 165 q 209 247 255 230 l 209 250 l 217 250 q 260 231 247 241 q 225 252 257 252 q 127 271 155 271 q 14 201 14 261 m 266 247 l 266 241 q 334 198 277 219 q 369 193 346 193 l 380 193 q 431 225 431 193 q 382 266 431 247 q 393 250 389 250 q 396 252 393 252 l 396 247 q 366 233 396 237 l 353 233 q 285 269 311 233 q 266 247 266 262 m 505 168 q 515 141 508 141 q 562 217 532 195 q 581 266 581 237 l 578 266 q 505 182 536 266 l 505 168 m 654 54 l 651 54 q 602 62 631 54 q 583 19 583 39 l 583 16 q 605 8 585 8 l 613 8 q 732 65 665 8 q 654 54 691 54 z "},"n":{"ha":1269,"x_min":0,"x_max":1223,"o":"m 1169 1519 l 1180 1519 q 1223 1492 1208 1519 l 1223 1473 q 1120 1381 1223 1444 l 1099 1362 q 1123 1291 1123 1338 l 1120 1278 q 1145 1221 1145 1255 q 1080 1109 1145 1162 q 1025 1082 1062 1096 q 987 1053 1007 1053 q 811 854 962 995 q 773 817 807 854 q 792 708 792 759 q 670 415 792 563 q 629 388 644 388 q 562 420 607 388 q 545 415 545 418 q 570 391 545 391 q 648 323 648 328 q 686 217 686 272 l 686 198 q 551 8 686 66 q 502 0 522 0 l 456 0 q 290 76 372 0 q 269 138 269 109 q 396 263 269 212 q 450 347 450 316 q 469 372 465 371 q 461 407 461 395 q 423 412 444 407 q 160 328 224 372 q 87 244 87 265 l 81 244 l 81 247 q 168 345 106 307 q 404 423 218 382 l 404 426 q 363 461 399 426 q 353 464 353 461 q 233 439 304 439 l 209 439 q 8 559 58 439 q 0 600 0 583 l 0 618 q 65 700 0 677 q 106 705 91 705 l 136 705 q 401 675 401 689 q 461 621 433 665 q 562 757 562 735 l 562 765 q 548 773 562 770 q 502 768 526 768 l 494 768 q 345 841 386 768 l 342 857 l 342 873 q 328 898 328 890 q 309 887 309 895 q 317 846 317 863 l 317 838 q 244 749 317 769 l 231 746 q 209 749 220 749 q 146 713 180 713 q 90 754 119 713 q 0 871 0 786 q 109 1001 0 970 q 133 1004 119 1004 l 149 1004 q 179 1001 161 1004 q 214 1009 193 1009 q 260 998 227 1009 l 296 998 l 309 996 l 317 1044 q 252 1031 277 1031 l 231 1031 q 103 1120 152 1031 q 98 1156 98 1145 l 98 1172 q 201 1283 98 1248 l 233 1286 q 374 1202 317 1286 q 385 1161 385 1184 l 385 1158 l 388 1158 q 510 1215 463 1215 l 510 1218 q 434 1340 434 1269 l 434 1343 q 534 1454 434 1426 l 572 1454 q 719 1375 659 1454 q 735 1313 735 1346 q 646 1194 735 1228 l 640 1194 l 640 1191 q 749 1085 709 1161 q 784 996 784 1006 l 784 982 q 779 944 784 968 q 882 1096 849 1019 q 863 1145 863 1122 q 871 1169 863 1147 q 857 1240 857 1199 l 857 1253 q 914 1359 857 1343 l 933 1359 q 960 1351 947 1359 q 1118 1508 1019 1466 q 1169 1519 1142 1519 m 968 1343 q 985 1326 970 1343 q 1055 1373 1022 1373 l 1066 1373 q 1088 1367 1078 1373 q 1202 1454 1112 1393 q 1213 1484 1213 1472 q 1175 1508 1202 1508 l 1161 1508 q 998 1397 1100 1508 l 968 1343 m 990 1316 q 1006 1261 1001 1293 q 1080 1297 1053 1297 q 1112 1286 1095 1297 l 1112 1289 q 1066 1362 1106 1362 l 1061 1362 q 990 1316 1029 1362 m 868 1242 q 917 1128 868 1160 l 917 1126 l 909 1126 q 879 1156 899 1126 l 876 1156 l 873 1142 q 974 1063 873 1088 l 979 1063 q 1015 1082 1003 1063 l 1012 1082 l 998 1080 q 917 1145 936 1080 l 917 1172 q 933 1215 917 1185 q 906 1256 913 1231 q 892 1278 892 1258 l 903 1267 l 903 1291 l 909 1291 q 958 1218 918 1218 l 960 1218 q 996 1248 987 1218 l 996 1251 q 944 1345 996 1315 l 928 1348 l 925 1348 q 868 1256 877 1348 l 868 1242 m 993 1215 l 993 1207 q 1031 1175 993 1181 q 1099 1213 1061 1175 l 1101 1213 l 1101 1210 l 1093 1194 l 1099 1194 l 1104 1196 l 1104 1194 q 1039 1166 1059 1166 l 1020 1166 q 982 1215 987 1166 q 939 1204 971 1208 q 925 1156 925 1183 q 987 1090 938 1090 l 998 1090 q 1126 1183 1074 1090 q 1134 1221 1134 1213 q 1090 1283 1120 1283 l 1077 1283 q 998 1232 1040 1283 q 993 1215 993 1223 m 431 1109 l 429 1109 q 391 1139 409 1139 q 336 1028 336 1101 q 388 914 336 969 q 350 863 350 895 q 461 781 350 810 q 486 779 471 779 l 521 779 l 534 781 l 532 787 l 537 787 q 629 765 597 765 q 719 857 697 765 l 719 882 l 722 882 l 724 865 l 727 865 q 773 990 773 936 q 708 1063 761 1063 l 697 1063 q 643 1034 673 1063 q 532 1196 643 1145 q 502 1202 505 1202 q 431 1109 431 1202 m 521 1066 q 526 1061 526 1065 q 491 1023 500 1061 l 488 1023 l 488 1031 q 515 1066 488 1060 l 521 1066 m 529 1050 l 537 1050 q 545 1042 541 1050 l 545 1036 l 540 1039 l 534 1039 q 502 1009 502 1031 l 496 1009 q 529 1050 502 1050 m 548 1031 l 553 1031 q 532 1006 549 1006 l 532 1004 l 551 1006 l 564 1006 q 515 990 564 1002 q 445 928 484 981 l 445 933 q 510 998 445 964 l 526 1001 l 526 1004 l 521 1004 l 521 1009 q 548 1031 538 1009 m 437 1023 q 456 1012 452 1023 l 456 1009 l 453 1009 q 437 1015 444 1015 l 431 1015 q 420 998 420 1009 l 418 998 l 418 1006 q 437 1023 418 1023 m 670 1006 l 697 1006 q 722 993 722 1001 l 722 990 q 694 998 703 998 l 694 996 q 686 944 694 960 q 703 857 703 892 q 624 779 688 779 q 502 830 582 779 q 423 846 454 830 q 418 825 418 832 l 412 825 l 412 841 q 442 876 420 876 l 448 876 q 429 852 429 861 l 431 852 q 496 841 463 841 l 502 841 q 662 922 601 841 q 684 985 684 954 l 684 998 q 648 993 673 998 l 648 996 q 670 1006 648 1002 m 450 1004 q 469 993 469 999 q 434 977 434 993 l 434 971 q 429 977 429 971 l 429 990 q 450 1004 437 1004 m 190 993 q 301 901 260 969 l 301 898 l 304 898 l 304 909 q 222 998 304 972 l 195 998 q 190 993 190 998 m 14 868 q 92 762 14 794 q 109 806 94 806 l 109 803 q 103 781 103 793 l 103 773 q 152 724 109 724 q 241 808 182 724 q 255 814 250 814 l 233 784 l 247 792 l 247 789 q 220 768 247 785 q 214 757 220 764 q 222 754 217 757 q 307 844 294 754 q 193 985 307 920 q 163 993 174 993 l 160 993 q 90 955 96 955 q 141 990 112 983 l 144 990 l 144 993 l 136 993 q 16 903 54 993 q 14 868 14 880 m 548 990 q 589 949 589 987 q 529 890 589 920 q 488 884 509 884 q 456 922 456 891 q 486 968 456 941 q 548 990 520 990 m 193 982 l 195 982 l 195 979 q 133 936 190 979 l 127 936 l 127 939 q 193 982 163 977 m 461 982 l 467 982 q 431 955 467 958 l 429 960 q 461 982 461 966 m 214 971 l 214 968 q 184 906 190 909 l 182 906 l 182 911 q 214 971 199 971 m 309 968 l 309 958 l 312 958 l 312 968 l 309 968 m 312 949 l 312 941 l 315 941 l 315 949 l 312 949 m 315 939 l 315 933 l 317 933 l 317 939 l 315 939 m 643 825 l 640 825 l 640 838 q 602 803 620 838 q 600 792 600 798 l 605 789 l 627 789 q 694 863 679 789 l 694 873 q 689 882 692 882 q 643 825 658 882 m 567 746 q 464 608 567 720 q 437 537 437 569 q 483 502 451 502 l 483 510 q 469 545 469 529 l 469 553 l 472 553 q 502 513 482 513 q 602 502 587 502 q 575 494 602 494 l 510 502 q 589 412 562 435 l 629 396 q 716 502 684 433 q 757 589 736 528 q 779 703 779 651 l 779 732 l 776 732 q 684 675 744 675 l 673 675 q 567 746 612 675 m 14 613 q 79 491 14 544 q 231 450 143 450 q 336 467 275 450 l 336 469 q 298 524 298 486 q 366 597 298 573 l 380 597 q 434 575 412 597 q 450 610 450 606 q 407 659 437 645 q 233 684 368 684 q 119 694 172 694 q 16 637 37 694 q 14 613 14 623 m 621 684 q 643 659 643 679 l 643 656 q 594 567 643 604 q 578 562 585 562 l 575 562 q 548 589 548 565 l 548 605 q 591 673 548 635 q 621 684 611 684 m 556 591 q 570 570 556 576 l 572 570 q 635 654 611 570 l 635 665 q 621 675 633 670 q 556 602 587 675 l 556 591 m 727 665 q 741 637 741 659 q 675 548 720 548 q 654 581 654 548 q 705 665 654 625 l 727 665 m 662 572 q 673 559 667 560 l 678 559 q 732 640 711 559 q 722 656 727 656 l 716 656 q 662 575 682 656 l 662 572 m 244 597 l 247 597 q 279 477 247 534 q 241 572 241 511 l 241 578 l 244 597 m 309 532 l 309 521 q 355 469 309 487 l 358 469 l 358 472 q 339 513 339 502 l 339 515 q 388 564 347 564 l 396 564 q 426 545 426 561 l 429 545 q 431 559 429 554 q 388 586 417 586 l 374 586 q 309 532 309 570 m 556 382 q 567 355 567 363 q 515 312 567 321 q 472 361 488 312 l 469 361 q 456 326 456 341 q 510 279 456 290 l 524 279 q 597 331 584 279 l 597 336 q 556 385 597 370 l 556 382 m 605 347 l 605 326 q 521 269 588 269 q 450 309 469 269 q 423 274 448 309 l 429 277 l 431 277 q 331 217 417 261 q 279 136 279 180 q 401 24 279 72 q 472 14 441 14 l 488 14 q 665 149 621 14 q 675 206 672 168 q 608 347 675 290 l 605 347 m 437 233 l 467 233 q 556 206 532 233 l 591 195 l 591 193 l 586 193 q 407 220 475 220 l 393 220 l 393 225 l 412 228 l 437 228 l 437 233 m 448 228 l 448 225 q 537 212 477 225 l 540 212 l 540 214 q 467 228 488 228 l 448 228 m 543 212 l 543 209 l 548 209 l 548 212 l 543 212 z "}}}
